<svg width="764" height="648" viewBox="0 0 764 648" fill="none" xmlns="http://www.w3.org/2000/svg">
<path fill-rule="evenodd" clip-rule="evenodd" d="M415.035 0.880598C506.882 9.13448 590.159 37.6642 662.01 107.463C856.251 295.867 762.426 497.011 470.626 534.871C300.556 556.941 349.116 614.18 404.927 627.637C427.559 633.02 427.999 640.018 406.465 645.042C309.345 667.113 -28.5979 518.004 1.9444 268.235C14.6887 163.267 70.2801 91.4939 170.696 50.045C212.445 32.8195 217.279 41.0734 176.629 60.6315C145.427 75.5244 115.105 97.5946 95.5489 119.485C62.3698 156.807 39.518 208.304 34.0248 258.725C18.2043 405.68 120.159 535.05 264.52 594.084C279.682 600.184 332.856 618.307 335.932 618.307C338.789 618.307 279.682 544.919 438.106 525.899C516.55 516.389 549.729 509.571 588.84 494.499C726.391 441.566 763.964 319.014 683.104 187.67C581.809 23.1302 429.976 6.9813 280.341 30.6664C234.637 37.8436 229.803 27.9749 275.946 16.6706C328.462 3.39265 379.439 -2.34918 415.035 0.880598Z" fill="black"/>
</svg>
