<svg width="500" height="500" viewBox="0 0 500 500" fill="none" xmlns="http://www.w3.org/2000/svg">
<path d="M153.574 352.309C149.172 353.977 144.012 350.639 142.192 345.781C141.264 343.562 140.813 341.173 140.866 338.768C140.919 336.363 141.475 333.996 142.499 331.819C133.151 335.522 123.353 337.972 113.362 339.104C110.242 345.248 109.486 352.322 111.237 358.986C112.071 362.321 113.8 365.364 116.237 367.789C117.421 368.938 118.879 369.764 120.473 370.189C122.067 370.614 123.743 370.623 125.342 370.216C137.184 366.574 142.949 358.682 153.574 352.309ZM259.812 309.054C255.412 310.876 250.402 307.537 248.429 302.832C247.43 300.617 246.9 298.219 246.874 295.79C246.848 293.361 247.325 290.952 248.277 288.716C239.176 292.709 229.581 295.465 219.749 296.911C216.877 303.309 216.393 310.525 218.384 317.249C219.297 320.579 221.14 323.581 223.697 325.901C224.923 326.975 226.402 327.719 227.994 328.064C229.587 328.409 231.241 328.344 232.802 327.874C244.179 323.926 249.644 315.731 259.812 309.054Z" fill="black"/>
<path d="M271.193 274.302C204.416 307.692 137.498 341.687 67.6731 371.282C52.0406 375.684 36.4081 358.077 35.1931 346.544C27.9138 280.302 16.3555 214.601 0.590565 149.852C-0.624009 144.341 0.0836686 138.581 2.59598 133.529C5.10829 128.477 9.27393 124.436 14.4006 122.079C86.1881 96.5816 159.498 71.5391 235.528 50.8991C246.606 47.2566 268.613 60.0041 269.978 75.4866C275.138 132.552 280.298 189.464 286.521 246.237C288.498 258.214 281.513 270.659 271.193 274.302Z" fill="#17447D"/>
<path d="M282.423 283.407C211.853 313.752 141.281 344.872 67.8235 371.279C57.0485 374.314 47.4885 367.334 46.2735 355.799C39.0789 289.18 27.9292 223.047 12.8835 157.752C11.6809 152.223 12.4112 146.45 14.9523 141.395C17.4934 136.34 21.6916 132.31 26.846 129.977C98.481 104.927 171.633 80.3393 247.518 60.0018C258.596 56.5018 268.768 63.5018 270.283 75.3318C279.238 135.582 287.888 195.532 297.906 255.177C299.726 267.167 292.748 279.764 282.423 283.407Z" fill="#466DA3"/>
<path d="M287.434 303.441C215.344 329.848 142.799 356.253 67.8242 378.413C52.7992 384.333 54.7742 403.163 61.6017 406.643C100.454 426.981 139.914 447.468 180.742 466.743C187.874 470.081 202.444 469.018 212.914 464.316C284.247 431.683 351.479 395.411 417.802 360.656C427.667 355.656 437.987 334.706 423.267 330.001C387.904 320.893 352.847 310.878 317.939 300.406C310.957 297.371 297.299 298.736 287.434 303.441Z" fill="#17447D"/>
<path d="M289.555 286.443C218.073 317.555 146.285 349.425 71.6153 376.593C61.1428 380.69 58.1153 386.76 64.9378 390.25C103.638 410.435 142.938 430.623 183.468 449.895C190.603 453.235 204.868 452.02 215.34 447.315C285.913 414.535 352.84 378.565 419.165 344.418C429.03 339.56 431.305 333.338 424.325 330.605C389.115 315.885 354.36 300.105 320.06 283.558C313.078 280.523 299.57 281.738 289.555 286.443Z" fill="#466DA3"/>
<path d="M326.891 313.004L347.833 304.354C343.888 302.534 339.941 300.559 335.996 298.739L334.176 297.829C331.81 296.646 329.22 295.979 326.576 295.875C323.933 295.77 321.298 296.229 318.846 297.222C315.051 298.739 311.259 300.257 307.464 301.927C307.009 302.079 306.401 302.382 305.946 302.534C307.616 303.444 309.286 304.202 310.946 304.962C316.266 307.692 321.578 310.422 326.891 313.004ZM352.084 306.324C345.101 309.209 337.969 312.092 330.989 314.977C336.756 317.859 342.674 320.744 348.441 323.627C355.726 320.744 363.011 318.012 370.296 315.279C366.654 313.459 363.011 311.637 360.431 310.422C357.699 309.057 354.816 307.692 352.084 306.324ZM370.904 318.769C364.831 321.047 358.761 323.474 352.691 325.752C356.789 327.724 360.734 329.697 364.831 331.669C375.154 326.509 382.286 323.169 384.259 322.109C381.679 320.894 378.189 319.074 374.546 317.404C373.179 317.859 372.116 318.314 370.904 318.769ZM267.246 361.114C273.164 364.614 279.084 367.942 285.154 371.129C298.359 364.604 311.404 358.229 323.404 352.312L308.834 343.659C294.866 349.274 281.056 355.194 267.246 361.114ZM245.544 347.754C259.354 341.837 273.316 335.767 287.126 329.847C282.532 326.952 278.03 323.915 273.626 320.739C272.275 319.828 270.959 318.867 269.681 317.857C255.871 323.777 242.059 329.857 228.249 335.767C230.526 337.284 232.801 338.952 235.078 340.469C238.406 343.12 241.902 345.554 245.544 347.754ZM290.466 332.127C276.589 338.059 262.727 344.028 248.881 350.034C253.738 353.069 258.594 356.104 263.451 358.989C277.254 352.936 291.116 347.019 305.036 341.239L295.474 335.319C293.956 334.402 292.286 333.187 290.466 332.127ZM205.628 364.754C217.768 359.594 229.758 354.434 241.748 349.272C237.953 346.844 234.311 344.272 230.668 341.837C228.543 340.319 226.419 338.952 224.296 337.587C211.394 343.049 198.494 348.514 185.441 353.837C184.531 354.292 183.469 354.587 182.559 355.049C185.728 356.57 188.969 357.938 192.271 359.147C196.674 360.962 201.073 362.934 205.628 364.754ZM245.246 351.704C242.818 352.767 240.389 353.829 237.809 354.892C228.559 358.837 219.141 362.782 209.884 366.729C215.804 369.309 221.724 372.042 227.794 374.622C233.256 372.192 238.871 369.764 244.336 367.337L259.816 360.507C257.406 359.145 255.028 357.728 252.683 356.257C250.246 354.892 247.818 353.222 245.246 351.704ZM236.436 374.622C235.071 375.227 233.553 375.834 232.186 376.594C239.471 379.782 246.604 383.119 253.889 386.459C262.996 382.057 272.406 377.504 281.664 372.959C275.61 369.629 269.59 366.239 263.604 362.789C254.534 366.702 245.478 370.646 236.436 374.622ZM164.496 381.907C167.996 380.539 171.476 379.022 174.968 377.657C183.771 374.014 192.421 370.372 201.218 366.729C196.513 364.757 191.656 362.782 186.953 360.809C183.991 359.558 181.056 358.243 178.151 356.864C166.311 361.719 154.626 367.032 142.789 372.042C147.189 374.164 151.741 376.292 156.288 378.264L164.496 381.907ZM205.628 368.549C193.412 373.673 181.169 378.733 168.898 383.727C173.453 385.699 177.854 387.522 182.398 389.647C184.523 390.557 186.649 391.619 188.774 392.529C200.28 386.938 211.919 381.625 223.681 376.594C220.493 375.227 217.458 373.709 214.271 372.344C211.246 370.979 208.358 369.754 205.628 368.549ZM202.746 389.647C199.408 391.164 195.916 392.832 192.578 394.352C197.578 396.627 202.444 399.054 207.451 401.484C209.879 402.697 212.309 403.759 214.736 404.984C225.511 399.984 237.348 394.362 249.644 388.442C242.359 385.102 235.073 381.917 227.788 378.577C219.411 382.198 211.063 385.888 202.746 389.647ZM290.619 328.484C298.369 325.144 306.099 321.804 313.839 318.619C316.85 317.417 319.836 316.152 322.794 314.824L301.849 304.352C292.287 308.298 282.725 312.396 273.164 316.644L278.164 320.287C282.271 322.867 286.369 325.754 290.619 328.484ZM294.109 330.607C298.964 333.644 303.973 336.679 308.829 339.714L311.106 338.804C322.186 334.249 333.106 329.849 344.191 325.447C338.423 322.564 332.656 319.682 326.739 316.797C315.964 321.349 305.036 325.904 294.109 330.607ZM312.471 341.992C316.266 344.267 319.909 346.392 323.704 348.517C324.766 349.124 325.828 349.732 327.041 350.337C339.941 343.964 351.629 338.197 361.041 333.492C356.791 331.519 352.694 329.394 348.444 327.422C336.452 332.127 324.461 336.983 312.471 341.992ZM107.586 398.297H107.736C110.469 399.512 113.201 400.877 115.934 402.092C130.654 395.717 145.376 389.647 160.096 383.574C152.811 380.387 145.678 377.202 138.546 373.709C133.993 375.684 129.296 377.657 124.736 379.477C119.232 381.759 113.665 383.885 108.041 385.852C106.846 386.37 105.821 387.215 105.087 388.291C104.352 389.367 103.937 390.629 103.889 391.931C103.842 393.232 104.163 394.521 104.818 395.648C105.472 396.774 106.432 397.693 107.586 398.297ZM164.346 385.549C149.521 391.642 134.748 397.864 120.031 404.214C127.619 407.857 135.206 411.499 142.643 415.142C155.543 409.832 167.836 403.002 179.978 396.779L184.531 394.502C182.104 393.439 179.676 392.227 177.096 391.164C172.996 389.189 168.596 387.369 164.346 385.549ZM172.086 404.672C163.738 408.922 155.391 413.322 146.741 416.964C153.419 420.302 160.241 423.489 167.078 426.829C171.479 424.704 188.479 417.267 210.789 406.794C203.351 403.294 196.066 399.662 188.788 396.324C183.166 399.054 177.551 401.939 172.086 404.672Z" fill="#17447D"/>
<path d="M257.838 263.83C201.838 288.72 145.838 313.915 88.4653 336.983C77.8403 340.323 68.2778 333.34 66.7603 321.805C59.9328 272.483 51.7478 223.755 41.4153 175.505C39.1403 164.123 45.5128 151.678 55.8328 147.73C112.898 128.305 170.723 109.03 229.913 91.8802C240.688 88.2377 250.855 95.2202 252.525 107.058C259.508 150.008 266.335 192.958 273.47 235.908C275.138 247.593 268.158 260.188 257.838 263.83ZM131.565 101.895C130.75 103.106 130.315 104.533 130.315 105.993C130.315 107.453 130.75 108.879 131.565 110.09C132.044 110.72 132.606 111.282 133.235 111.76C133.758 112.21 134.384 112.523 135.058 112.67C136.181 112.837 137.325 112.566 138.254 111.916C139.184 111.265 139.83 110.282 140.058 109.17C141.28 104.475 135.513 96.8852 131.565 101.895Z" fill="white"/>
<path d="M61.0006 198.415L59.6331 195.077C79.2106 187.032 98.9406 180.507 119.733 173.525C133.612 168.97 147.424 164.214 161.166 159.26L162.381 162.6C148.58 167.532 134.717 172.287 120.796 176.865C100.001 183.847 80.4231 190.372 61.0006 198.415Z" fill="#FF465A"/>
<path d="M82.1665 198.322L95.024 194.182L96.094 197.505L83.2365 201.645L82.1665 198.322Z" fill="#FDB849"/>
<path d="M100.737 193.094L119.712 186.676L120.879 190.126L101.904 196.544L100.737 193.094Z" fill="#17447D"/>
<path d="M127.318 187.794L126.256 184.294C137.031 181.107 147.806 177.312 158.431 173.214L159.796 176.554C149.158 180.824 138.319 184.575 127.318 187.794ZM104.248 205.399L103.033 202.059C141.37 188.178 180.037 175.224 218.998 163.207L220.061 166.547C181.196 178.537 142.343 191.739 104.248 205.399Z" fill="#FFD340"/>
<path d="M85.4283 232.564L84.5183 229.064C87.942 228.185 91.2523 226.912 94.3833 225.272L95.9008 228.457C92.5814 230.228 89.0669 231.607 85.4283 232.564Z" fill="#FDB849"/>
<path d="M100.629 222.887L121.204 215.512L122.432 218.942L101.857 226.317L100.629 222.887Z" fill="#17447D"/>
<path d="M127.317 217.691L126.255 214.191C136.725 211.156 147.35 207.666 157.67 204.173L158.885 207.513C148.412 211.166 137.94 214.656 127.317 217.691Z" fill="#FDB849"/>
<path d="M110.319 234.229L109.107 230.892C145.678 217.641 182.57 205.293 219.749 193.859L220.812 197.199C183.674 208.608 146.832 220.955 110.319 234.229ZM110.619 240.852L156.929 223.874L158.129 227.149L111.819 244.129L110.619 240.852Z" fill="#FFD340"/>
<path d="M70.7432 270.565L136.048 244.23L137.411 247.605L72.1032 273.943L70.7432 270.565Z" fill="#FF465A"/>
<path d="M90.4617 276.648L100.349 272.766L101.679 276.156L91.7917 280.038L90.4617 276.648Z" fill="#FDB849"/>
<path d="M108.349 274.006L107.287 270.506C115.083 268.177 122.736 265.391 130.204 262.161L131.569 265.499C124.037 268.873 116.278 271.716 108.349 274.006Z" fill="#17447D"/>
<path d="M110.472 285.683L109.107 282.345C142.84 268.604 176.79 255.398 210.942 242.733L212.157 246.073C178.044 258.711 144.145 271.916 110.472 285.683ZM112.597 295.7L111.232 292.36C118.982 289.023 127.014 285.683 135.059 282.8L136.272 286.138C128.23 289.173 120.339 292.36 112.597 295.7Z" fill="#FFD340"/>
<path d="M306.249 264.754L327.802 73.6764C328.399 65.5376 332.043 57.9233 338.007 52.3532C343.971 46.7831 351.816 43.6668 359.977 43.6264L471.527 33.3064C495.657 40.7439 501.727 60.4739 499.602 79.5964L476.232 287.061C475.313 295.174 471.361 302.639 465.168 307.959C458.975 313.28 451 316.061 442.842 315.746L344.192 311.649C326.134 310.879 305.499 285.381 306.249 264.754Z" fill="#008C6E"/>
<path d="M306.247 264.753L320.667 61.383C321.264 53.244 324.908 45.6293 330.872 40.0591C336.836 34.4889 344.681 31.3728 352.842 31.3329H460.447C464.996 31.3319 469.493 32.2937 473.644 34.1549C477.794 36.0162 481.503 38.7348 484.528 42.1321C487.553 45.5294 489.824 49.5284 491.193 53.8662C492.562 58.2041 492.997 62.7825 492.47 67.3005L469.097 274.753C468.179 282.865 464.228 290.331 458.035 295.651C451.843 300.971 443.868 303.753 435.71 303.438L337.06 299.34C332.749 299.14 328.523 298.08 324.628 296.223C320.733 294.366 317.248 291.75 314.378 288.528C311.507 285.307 309.31 281.544 307.914 277.461C306.517 273.378 305.951 269.058 306.247 264.753Z" fill="#45A353"/>
<path d="M372.877 269.593C372.117 271.65 372.117 273.911 372.877 275.968C378.037 289.02 400.955 283.406 395.795 267.166C395.425 265.659 394.713 264.259 393.712 263.074C392.712 261.889 391.45 260.952 390.027 260.336C383.197 257.751 375.155 263.068 372.877 269.593ZM325.98 219.501L337.06 68.9455C337.97 56.5005 349.202 46.788 362.71 46.788L448.762 47.0905C464.242 47.0905 476.232 59.5355 474.562 73.803L456.35 227.393C454.832 239.838 443.145 249.095 429.637 248.488L350.72 245.148C336.3 244.55 325.07 233.018 325.98 219.501Z" fill="white"/>
<path d="M329.774 221.938L340.854 71.3853C341.764 58.9403 352.994 49.2253 366.501 49.2253L452.554 49.5303C457.002 49.5209 461.383 50.6162 465.304 52.7178C460.57 49.0541 454.747 47.0769 448.761 47.1003L362.709 46.7978C349.209 46.7978 337.959 56.3578 337.059 68.9553L325.979 219.5C325.718 224.11 326.816 228.696 329.136 232.688C331.456 236.68 334.897 239.904 339.031 241.96C335.97 239.633 333.525 236.591 331.911 233.101C330.297 229.61 329.563 225.778 329.774 221.938Z" fill="black"/>
<path d="M355.576 78.9768L458.17 78.0668L449.065 159.717L348.745 158.047L355.576 78.9768Z" fill="#FDB849"/>
<path d="M371.969 146.97C390.029 139.533 410.219 141.81 429.034 137.56C437.534 135.665 445.612 132.218 452.861 127.39L456.046 99.0052C447.908 105.943 438.609 111.389 428.576 115.093C413.096 120.708 396.859 121.923 380.466 122.075C374.989 121.999 369.512 122.303 364.076 122.985C359.832 123.703 355.665 124.822 351.631 126.325L348.899 157.898L356.031 158.048C360.488 153.255 365.923 149.477 371.969 146.97Z" fill="#FFD340"/>
<path d="M351.177 213.901L433.74 216.631L432.98 224.828L349.962 221.641L351.177 213.901Z" fill="#FDB849"/>
<path d="M375.915 168.52L414.915 168.367C416.356 168.369 417.781 168.658 419.108 169.22C420.435 169.781 421.635 170.602 422.64 171.635C423.644 172.667 424.431 173.891 424.955 175.232C425.479 176.574 425.729 178.007 425.69 179.447L425.538 181.27C425.487 182.667 425.159 184.041 424.573 185.311C423.987 186.581 423.154 187.722 422.124 188.668C421.093 189.614 419.885 190.346 418.57 190.821C417.254 191.297 415.857 191.506 414.46 191.437L375.46 189.767C373.846 189.682 372.272 189.236 370.853 188.462C369.434 187.689 368.206 186.607 367.26 185.297C366.314 183.987 365.673 182.481 365.385 180.891C365.097 179.301 365.169 177.666 365.595 176.107C366.319 173.93 367.7 172.031 369.548 170.672C371.397 169.313 373.621 168.561 375.915 168.52Z" fill="#466DA3"/>
<path d="M247.214 242.279C269.374 222.701 283.487 217.541 302.762 211.319C306.349 218.287 309.197 225.611 311.262 233.171C311.454 233.949 311.881 234.649 312.486 235.175C313.091 235.701 313.843 236.028 314.64 236.11C315.438 236.192 316.241 236.026 316.94 235.634C317.639 235.242 318.2 234.644 318.547 233.921C326.217 219.91 334.89 206.473 344.499 193.714C345.072 192.927 345.47 192.027 345.666 191.074C345.862 190.12 345.852 189.136 345.636 188.188C345.42 187.239 345.004 186.347 344.415 185.572C343.826 184.798 343.078 184.158 342.222 183.696C325.679 174.894 307.922 166.546 292.744 158.046C292.022 157.656 291.196 157.499 290.381 157.594C289.565 157.689 288.799 158.033 288.186 158.58C287.572 159.126 287.142 159.847 286.953 160.646C286.764 161.445 286.826 162.283 287.129 163.046C289.888 170.416 292.12 177.972 293.807 185.659C267.557 192.944 248.732 202.809 228.699 225.726C227.241 227.37 226.461 229.507 226.517 231.705C226.573 233.902 227.461 235.996 229.002 237.564C230.824 239.384 232.644 241.206 234.467 242.876C238.109 246.376 243.422 245.616 247.214 242.279Z" fill="#D70A32"/>
</svg>
