<svg width="90" height="90" viewBox="0 0 90 90" fill="none" xmlns="http://www.w3.org/2000/svg">
<path d="M85.059 62.5304C83.984 46.1997 82.6022 34.2048 81.1566 17.0345C76.5101 22.2108 69.5245 24.3357 64.1938 24.7314C53.1948 25.5468 46.0595 20.0087 35.1965 19.1604C24.1791 18.2997 14.7327 22.3594 5.04028 27.0677C6.57656 42.1429 8.02792 57.552 8.26628 72.7131C15.085 69.3761 22.0938 66.4406 29.7877 66.2746C37.0349 66.1183 43.9336 69.1909 51.0891 69.904C61.9473 70.9867 75.9475 68.4671 85.059 62.5304Z" stroke="#628AFE" stroke-width="6" stroke-miterlimit="1.5" stroke-linecap="round" stroke-linejoin="round"/>
<path d="M48.0877 36.3344C45.5352 36.0787 42.7242 36.0555 40.5906 37.6729C38.8594 38.9853 37.9812 41.3756 39.9411 42.9707C42.7802 45.28 47.4266 43.8103 50.0041 46.6619C51.7826 48.6295 50.3612 51.3132 48.4071 52.4712C46.892 53.3676 45.0566 53.4651 43.3505 53.22C41.5324 52.9594 39.6902 52.7549 37.8799 52.4412" stroke="#628AFE" stroke-width="6" stroke-miterlimit="1.5" stroke-linecap="round" stroke-linejoin="round"/>
<path d="M44.532 36.3634C44.559 35.3019 44.6275 34.2471 44.5918 33.1837" stroke="#628AFE" stroke-width="6" stroke-miterlimit="1.5" stroke-linecap="round" stroke-linejoin="round"/>
<path d="M44.1963 53.2616C44.2291 54.2662 44.2619 55.2688 44.3169 56.2724" stroke="#628AFE" stroke-width="6" stroke-miterlimit="1.5" stroke-linecap="round" stroke-linejoin="round"/>
<path d="M30.3559 56.5552C27.3856 56.1788 24.2021 56.4017 21.4075 57.5289C20.2919 55.6433 18.1245 54.6339 15.9697 54.7574C15.4795 48.9799 15.1108 43.1619 14.7036 37.3806C17.1663 35.9312 18.5598 33.5419 18.746 30.7279C24.0072 27.6496 29.4932 26.5369 35.4617 27.7876" stroke="#628AFE" stroke-width="6" stroke-miterlimit="1.5" stroke-linecap="round" stroke-linejoin="round"/>
<path d="M55.9749 33.0699C59.9873 33.5775 64.0953 33.675 68.1194 33.2475C69.4935 34.5503 71.3473 35.5732 73.2638 35.7227C73.5427 40.9936 74.6437 46.2094 75.106 51.4725C72.4117 52.6151 69.5765 54.5923 69.3912 57.7894C65.1509 58.7773 60.7398 58.7744 56.5008 57.7807" stroke="#628AFE" stroke-width="6" stroke-miterlimit="1.5" stroke-linecap="round" stroke-linejoin="round"/>
</svg>