<svg width="77" height="75" viewBox="0 0 77 75" fill="none" xmlns="http://www.w3.org/2000/svg">
<rect x="6.39941" width="70" height="68" rx="34" transform="rotate(5.4 6.39941 0)" fill="#466DA3"/>
<path d="M45.3858 32.5661C42.2506 24.4604 29.0612 24.9325 26.3963 33.259C24.7884 38.2836 29.1837 42.3215 29.3411 47.1845L40.1951 48.2105C40.6357 46.956 41.4292 45.4893 41.9679 44.5925C43.0869 42.73 44.5295 41.5794 45.237 39.4502C45.9104 37.4245 46.1314 34.4944 45.3858 32.5661Z" stroke="white" stroke-width="2.5" stroke-miterlimit="1.5" stroke-linecap="round" stroke-linejoin="round"/>
<path d="M28.5232 53.7136C28.6602 52.2305 28.7277 50.7415 28.8934 49.2618C28.9591 48.6756 28.9266 47.9483 29.4735 47.5859C30.272 47.0571 31.3834 47.0744 32.3057 47.139C34.0351 47.261 35.7721 47.4397 37.499 47.6067C38.2856 47.6822 39.4722 47.6565 40.144 48.1147C40.7835 48.5494 40.8586 49.5781 40.8703 50.269C40.8917 51.5925 41.0027 54.5545 39.7945 55.4634C39.0333 56.0361 37.9282 56.0662 37.021 56.092C34.6134 56.16 28.3567 55.5099 28.5232 53.7136Z" stroke="white" stroke-width="2.5" stroke-miterlimit="1.5" stroke-linecap="round" stroke-linejoin="round"/>
<path d="M17.0511 41.9032C17.9404 41.5365 18.859 41.2523 19.7549 40.9062" stroke="white" stroke-width="2.5" stroke-miterlimit="1.5" stroke-linecap="round" stroke-linejoin="round"/>
<path d="M18.6926 24.5383C19.5811 25.2281 20.4226 25.9764 21.3137 26.6611" stroke="white" stroke-width="2.5" stroke-miterlimit="1.5" stroke-linecap="round" stroke-linejoin="round"/>
<path d="M38.0182 19.189C38.0975 17.9973 38.216 16.8179 38.3667 15.6334" stroke="white" stroke-width="2.5" stroke-miterlimit="1.5" stroke-linecap="round" stroke-linejoin="round"/>
<path d="M51.8827 28.6676C53.1434 27.9946 54.4349 27.372 55.7129 26.7324" stroke="white" stroke-width="2.5" stroke-miterlimit="1.5" stroke-linecap="round" stroke-linejoin="round"/>
<path d="M48.282 44.667C49.1193 45.5733 49.9612 46.4708 50.7662 47.4058" stroke="white" stroke-width="2.5" stroke-miterlimit="1.5" stroke-linecap="round" stroke-linejoin="round"/>
</svg>
