<svg width="70" height="68" viewBox="0 0 70 68" fill="none" xmlns="http://www.w3.org/2000/svg">
<rect width="70" height="68" rx="34" fill="#466DA3"/>
<path d="M41.7394 15.7798C36.0582 11.3343 27.6193 12.1632 22.8388 17.0214C17.9146 22.026 17.4091 31.7553 23.4071 36.5251C26.8741 39.2829 32.7542 40.8665 37.1503 39.5745C45.3458 37.1658 49.6213 27.1587 45.0365 19.347" stroke="white" stroke-width="3.86817" stroke-miterlimit="1.5" stroke-linecap="round" stroke-linejoin="round"/>
<path fill-rule="evenodd" clip-rule="evenodd" d="M39.4434 38.6599C38.0848 39.3928 36.5264 39.7525 35.8203 39.8721C36.4947 42.5955 37.7015 45.8829 38.7652 48.4702C39.4299 50.086 40.2523 51.562 40.9938 53.1435C41.5803 54.3948 43.335 56.002 44.5064 54.3444C45.4028 53.0765 44.6286 51.1438 44.1885 49.8485C42.9731 46.27 40.8544 42.1479 39.4434 38.6599Z" fill="white" stroke="white" stroke-width="3.86817" stroke-miterlimit="1.5" stroke-linecap="round" stroke-linejoin="round"/>
<path d="M33.9873 19.2897C34.861 19.2881 35.7245 19.4782 36.5167 19.8467C37.4098 20.2633 38.1867 20.9093 38.6429 21.766" stroke="white" stroke-width="3.86817" stroke-miterlimit="1.5" stroke-linecap="round" stroke-linejoin="round"/>
</svg>
