<svg width="77" height="75" viewBox="0 0 77 75" fill="none" xmlns="http://www.w3.org/2000/svg">
<rect y="6.58759" width="70" height="68" rx="34" transform="rotate(-5.4 0 6.58759)" fill="#466DA3"/>
<path d="M46.338 22.0914C38.2534 16.9116 27.1729 19.0678 21.4455 26.1046C15.5471 33.3536 16.0966 46.3107 24.642 51.881C29.5828 55.101 37.5737 56.4636 43.2381 54.2006C53.7979 49.9822 58.2108 36.1839 51.1562 26.4059" stroke="white" stroke-width="2.5" stroke-miterlimit="1.5" stroke-linecap="round" stroke-linejoin="round"/>
<path d="M38.4759 29.7829C36.3525 29.7709 34.0348 29.9701 32.4032 31.4689C31.0793 32.6856 30.5406 34.7231 32.2799 35.8844C34.7986 37.5666 38.5138 35.9952 40.8596 38.1434C42.4785 39.6263 41.5159 41.9478 39.9958 43.0538C38.8183 43.9099 37.3123 44.1341 35.8884 44.0646C34.3693 43.9912 32.8355 43.967 31.3193 43.8497" stroke="white" stroke-width="2.5" stroke-miterlimit="1.5" stroke-linecap="round" stroke-linejoin="round"/>
<path d="M35.1613 30.0945C35.1009 29.2171 35.0755 28.3439 34.9628 27.4709" stroke="white" stroke-width="2.5" stroke-miterlimit="1.5" stroke-linecap="round" stroke-linejoin="round"/>
<path d="M36.3369 44.0641C36.4419 44.8894 36.5467 45.7137 36.6707 46.5361" stroke="white" stroke-width="2.5" stroke-miterlimit="1.5" stroke-linecap="round" stroke-linejoin="round"/>
</svg>
