<svg width="94" height="90" viewBox="0 0 94 90" fill="none" xmlns="http://www.w3.org/2000/svg">
<path d="M67.9224 12.2613C42.4551 -3.67853 15.6715 13.1588 11.1874 32.5427C8.19292 45.4863 12.0461 58.4646 23.3929 68.5826C21.7873 75.2778 21.3066 78.9621 20.0215 84.3102C25.832 81.9189 32.6987 77.8958 36.824 76.017C37.074 75.9041 55.2523 83.7534 71.7958 69.5177C89.6576 54.1472 87.6136 24.5863 67.9224 12.2613Z" stroke="#628AFE" stroke-width="6" stroke-miterlimit="1.5" stroke-linecap="round" stroke-linejoin="round"/>
<path d="M70.3347 52.1756C68.3089 54.7213 64.8014 57.8083 61.4693 58.8698C56.2102 60.5451 51.5174 59.2211 45.2322 55.0948C35.1423 48.47 24.4828 39.6663 30.3346 28.5737C31.0603 27.1976 31.8737 25.8591 32.9511 24.7059C35.5142 26.6147 40.0366 30.3647 42.4696 32.4269C41.9012 33.8725 41.0384 35.1173 41.875 37.6881C42.4575 39.4772 44.2122 40.6998 45.6223 41.9215C49.3293 45.134 55.4049 50.0063 59.4868 44.7027C63.0991 47.2503 66.5723 49.8365 70.3347 52.1756Z" stroke="#628AFE" stroke-width="6" stroke-miterlimit="1.5" stroke-linecap="round" stroke-linejoin="round"/>
</svg>
