<svg width="90" height="90" viewBox="0 0 90 90" fill="none" xmlns="http://www.w3.org/2000/svg">
<rect width="90" height="90" rx="25" fill="#72B686"/>
<path d="M68.7773 20.3848C58.6496 10.4926 42.5824 9.79879 31.2292 15.1594C11.6638 24.3973 6.27619 52.1285 18.0376 66.1355C31.0091 81.5832 51.1082 80.3528 61.8998 72.5219C75.8865 62.372 83.3729 43.9916 73.915 28.6858" stroke="white" stroke-width="3.86817" stroke-miterlimit="1.5" stroke-linecap="round" stroke-linejoin="round"/>
<path d="M34.1665 33.1981C34.1298 33.837 34.0758 34.4729 34.042 35.1117" stroke="white" stroke-width="3.86817" stroke-miterlimit="1.5" stroke-linecap="round" stroke-linejoin="round"/>
<path d="M53.5428 33.1102C53.5389 33.8533 53.5409 34.5963 53.5466 35.3394" stroke="white" stroke-width="3.86817" stroke-miterlimit="1.5" stroke-linecap="round" stroke-linejoin="round"/>
<path d="M49.0943 46.8876C48.2085 45.5211 46.5651 44.09 44.8898 43.8092C35.9974 42.3202 34.0683 57.8905 40.3447 61.8123C43.6064 63.8504 47.312 62.3749 49.2565 59.2927C51.3245 56.0174 51.3939 50.4282 49.0943 46.8876Z" stroke="white" stroke-width="3.86817" stroke-miterlimit="1.5" stroke-linecap="round" stroke-linejoin="round"/>
</svg>
