<svg width="90" height="90" viewBox="0 0 90 90" fill="none" xmlns="http://www.w3.org/2000/svg">
<g opacity="0.7">
<rect width="90" height="90" rx="25" fill="#45A353"/>
<path d="M36.7722 54.8952C33.0511 55.6122 29.4632 56.2626 25.8117 57.3752C23.57 42.6619 21.9324 27.8655 21.1797 12.9997C26.4872 11.393 31.8651 11.0147 37.382 11.3245C36.6071 25.8284 37.3627 40.3719 36.8088 54.8884L36.7722 54.8952Z" stroke="white" stroke-width="3.86817" stroke-miterlimit="1.5" stroke-linecap="round" stroke-linejoin="round"/>
<path d="M33.8058 65.4223C26.5808 63.5483 22.1727 73.4337 28.4114 77.617C33.9293 81.3168 41.079 73.9462 37.495 68.4949" stroke="white" stroke-width="3.86817" stroke-miterlimit="1.5" stroke-linecap="round" stroke-linejoin="round"/>
<path d="M68.7873 21.6818C67.0021 33.449 65.5864 45.3475 63.1498 57.0057L51.2707 55.1104C51.2707 44.3699 51.2388 31.5026 52.0639 19.7721C57.6223 19.7306 63.4113 20.1842 68.7873 21.6828V21.6818Z" stroke="white" stroke-width="3.86817" stroke-miterlimit="1.5" stroke-linecap="round" stroke-linejoin="round"/>
<path d="M58.2445 66.4647C52.2094 64.7566 48.059 73.7774 53.4128 77.29C59.058 80.9937 64.8123 72.604 60.7661 67.918" stroke="white" stroke-width="3.86817" stroke-miterlimit="1.5" stroke-linecap="round" stroke-linejoin="round"/>
</g>
</svg>
