<svg width="700" height="700" viewBox="0 0 700 700" fill="none" xmlns="http://www.w3.org/2000/svg">
<g clip-path="url(#clip0_302_97)">
<path d="M77.0977 350.001C77.0977 424.262 106.598 495.481 159.108 547.991C211.618 600.501 282.837 630.001 357.098 630.001C431.358 630.001 502.577 600.501 555.088 547.991C607.598 495.481 637.098 424.262 637.098 350.001C637.098 275.74 607.598 204.521 555.088 152.011C502.577 99.5008 431.358 70.0009 357.098 70.0009C282.837 70.0009 211.618 99.5008 159.108 152.011C106.598 204.521 77.0977 275.74 77.0977 350.001Z" fill="#466DA3" stroke="#DAEDF7" stroke-width="1.50648"/>
<path d="M62.8813 470.5C62.8813 500.589 74.834 529.445 96.1098 550.721C117.386 571.997 146.242 583.949 176.33 583.949C206.419 583.949 235.275 571.997 256.551 550.721C277.827 529.445 289.779 500.589 289.779 470.5C289.779 440.412 277.827 411.555 256.551 390.28C235.275 369.004 206.419 357.051 176.33 357.051C146.242 357.051 117.386 369.004 96.1098 390.28C74.834 411.555 62.8813 440.412 62.8813 470.5Z" fill="#FF6242"/>
<path d="M176.338 390.367C203.541 390.37 229.837 400.146 250.436 417.913C271.035 435.68 284.565 460.255 288.562 487.163C290.948 471.036 289.831 454.585 285.286 438.93C280.741 423.275 272.875 408.783 262.225 396.441C251.575 384.099 238.39 374.198 223.569 367.411C208.747 360.624 192.637 357.11 176.335 357.11C160.033 357.11 143.923 360.624 129.101 367.411C114.28 374.198 101.095 384.099 90.4447 396.441C79.7945 408.783 71.9291 423.275 67.3843 438.93C62.8394 454.585 61.7218 471.036 64.1075 487.163C68.1036 460.254 81.6348 435.676 102.235 417.909C122.836 400.141 149.134 390.367 176.338 390.367Z" fill="#FF866E"/>
<path d="M62.8813 470.5C62.8813 500.589 74.834 529.445 96.1098 550.721C117.386 571.997 146.242 583.949 176.33 583.949C206.419 583.949 235.275 571.997 256.551 550.721C277.827 529.445 289.779 500.589 289.779 470.5C289.779 440.412 277.827 411.555 256.551 390.28C235.275 369.004 206.419 357.051 176.33 357.051C146.242 357.051 117.386 369.004 96.1098 390.28C74.834 411.555 62.8813 440.412 62.8813 470.5V470.5Z" stroke="#45413C" stroke-width="1.50648" stroke-linecap="round" stroke-linejoin="round"/>
<path d="M137.392 449.241C137.392 452.626 138.736 455.871 141.129 458.264C143.523 460.658 146.768 462.002 150.153 462.002C153.537 462.002 156.783 460.658 159.176 458.264C161.569 455.871 162.914 452.626 162.914 449.241C162.914 445.857 161.569 442.611 159.176 440.218C156.783 437.825 153.537 436.48 150.153 436.48C146.768 436.48 143.523 437.825 141.129 440.218C138.736 442.611 137.392 445.857 137.392 449.241Z" fill="#45413C"/>
<path d="M223.79 449.241C223.79 452.626 225.134 455.871 227.527 458.264C229.921 460.658 233.166 462.002 236.551 462.002C239.935 462.002 243.181 460.658 245.574 458.264C247.967 455.871 249.312 452.626 249.312 449.241C249.312 445.857 247.967 442.611 245.574 440.218C243.181 437.825 239.935 436.48 236.551 436.48C233.166 436.48 229.921 437.825 227.527 440.218C225.134 442.611 223.79 445.857 223.79 449.241Z" fill="#45413C"/>
<path d="M153.412 537.841C153.551 527.34 157.82 517.317 165.295 509.94C172.769 502.564 182.849 498.428 193.35 498.428C203.852 498.428 213.931 502.564 221.406 509.94C228.881 517.317 233.15 527.34 233.289 537.841H153.412Z" fill="#FFA694" stroke="#45413C" stroke-width="1.50648" stroke-linecap="round" stroke-linejoin="round"/>
<path d="M398.307 448.47C398.307 478.559 410.26 507.415 431.535 528.691C452.811 549.967 481.667 561.919 511.756 561.919C541.844 561.919 570.701 549.967 591.976 528.691C613.252 507.415 625.205 478.559 625.205 448.47C625.205 418.382 613.252 389.526 591.976 368.25C570.701 346.974 541.844 335.021 511.756 335.021C481.667 335.021 452.811 346.974 431.535 368.25C410.26 389.526 398.307 418.382 398.307 448.47Z" fill="#FFE500"/>
<path d="M511.755 368.335C538.956 368.338 565.251 378.113 585.85 395.878C606.449 413.644 619.98 438.218 623.979 465.124C626.364 448.997 625.247 432.547 620.702 416.891C616.157 401.236 608.292 386.744 597.642 374.402C586.991 362.06 573.806 352.159 558.985 345.372C544.163 338.585 528.053 335.072 511.751 335.072C495.45 335.072 479.339 338.585 464.518 345.372C449.696 352.159 436.511 362.06 425.861 374.402C415.211 386.744 407.345 401.236 402.801 416.891C398.256 432.547 397.138 448.997 399.524 465.124C403.521 438.216 417.053 413.64 437.654 395.874C458.254 378.108 484.552 368.335 511.755 368.335Z" fill="#FFF48C"/>
<path d="M398.307 448.47C398.307 478.559 410.26 507.415 431.535 528.691C452.811 549.967 481.667 561.919 511.756 561.919C541.844 561.919 570.701 549.967 591.976 528.691C613.252 507.415 625.205 478.559 625.205 448.47C625.205 418.382 613.252 389.526 591.976 368.25C570.701 346.974 541.844 335.021 511.756 335.021C481.667 335.021 452.811 346.974 431.535 368.25C410.26 389.526 398.307 418.382 398.307 448.47V448.47Z" stroke="#45413C" stroke-width="1.50648" stroke-linecap="round" stroke-linejoin="round"/>
<path d="M525.175 427.207C525.175 430.591 526.519 433.837 528.912 436.23C531.306 438.623 534.551 439.968 537.936 439.968C541.32 439.968 544.566 438.623 546.959 436.23C549.352 433.837 550.697 430.591 550.697 427.207C550.697 423.822 549.352 420.576 546.959 418.183C544.566 415.79 541.32 414.446 537.936 414.446C534.551 414.446 531.306 415.79 528.912 418.183C526.519 420.576 525.175 423.822 525.175 427.207Z" fill="#45413C"/>
<path d="M438.777 427.207C438.777 428.882 439.107 430.542 439.748 432.09C440.39 433.638 441.33 435.045 442.515 436.23C443.7 437.415 445.106 438.355 446.655 438.996C448.203 439.638 449.862 439.968 451.538 439.968C453.214 439.968 454.873 439.638 456.422 438.996C457.97 438.355 459.377 437.415 460.562 436.23C461.746 435.045 462.686 433.638 463.328 432.09C463.969 430.542 464.299 428.882 464.299 427.207C464.299 425.531 463.969 423.871 463.328 422.323C462.686 420.775 461.746 419.368 460.562 418.183C459.377 416.998 457.97 416.058 456.422 415.417C454.873 414.776 453.214 414.446 451.538 414.446C449.862 414.446 448.203 414.776 446.655 415.417C445.106 416.058 443.7 416.998 442.515 418.183C441.33 419.368 440.39 420.775 439.748 422.323C439.107 423.871 438.777 425.531 438.777 427.207Z" fill="#45413C"/>
<path d="M534.673 475.868C534.743 481.157 533.762 486.408 531.786 491.315C529.811 496.222 526.88 500.687 523.164 504.452C519.449 508.218 515.022 511.207 510.142 513.248C505.262 515.288 500.024 516.339 494.735 516.339C489.445 516.339 484.208 515.288 479.328 513.248C474.447 511.207 470.021 508.218 466.305 504.452C462.59 500.687 459.659 496.222 457.683 491.315C455.708 486.408 454.726 481.157 454.796 475.868H534.673Z" fill="#FFA694" stroke="#45413C" stroke-width="1.50648" stroke-linecap="round" stroke-linejoin="round"/>
<path d="M277.085 295.1L231.34 340.845C229.855 342.328 227.964 343.338 225.905 343.747C223.847 344.156 221.713 343.946 219.774 343.143C217.835 342.34 216.177 340.98 215.01 339.236C213.843 337.491 213.219 335.44 213.217 333.341V295.1H165.743C158.969 295.1 152.472 292.409 147.682 287.619C142.892 282.828 140.2 276.331 140.2 269.557V137.551C140.2 134.196 140.86 130.874 142.143 127.774C143.426 124.674 145.307 121.857 147.679 119.485C150.051 117.112 152.867 115.23 155.967 113.946C159.066 112.662 162.388 112.001 165.743 112.001H357.795C364.571 112.003 371.067 114.696 375.857 119.487C380.648 124.278 383.338 130.776 383.338 137.551V269.557C383.338 276.331 380.647 282.828 375.857 287.619C371.067 292.409 364.57 295.1 357.795 295.1H277.085Z" fill="white" stroke="#45413C" stroke-width="1.50648" stroke-linecap="round" stroke-linejoin="round"/>
<path d="M315.888 242.396C317.48 240.8 318.375 238.637 318.375 236.383C318.375 234.128 317.48 231.966 315.888 230.37L291.836 206.318C291.44 205.924 291.126 205.455 290.911 204.939C290.697 204.423 290.586 203.87 290.586 203.311C290.586 202.752 290.697 202.199 290.911 201.683C291.126 201.167 291.44 200.699 291.836 200.305L315.888 176.253C317.48 174.657 318.375 172.494 318.375 170.24C318.375 167.985 317.48 165.823 315.888 164.227L300.852 149.191C299.256 147.598 297.093 146.703 294.839 146.703C292.584 146.703 290.422 147.598 288.826 149.191L264.774 173.243C264.38 173.639 263.911 173.953 263.395 174.167C262.879 174.382 262.326 174.492 261.767 174.492C261.208 174.492 260.655 174.382 260.139 174.167C259.623 173.953 259.155 173.639 258.761 173.243L234.709 149.191C233.113 147.598 230.95 146.703 228.696 146.703C226.441 146.703 224.279 147.598 222.683 149.191L207.654 164.227C206.061 165.823 205.167 167.985 205.167 170.24C205.167 172.494 206.061 174.657 207.654 176.253L231.692 200.305C232.488 201.103 232.935 202.184 232.935 203.311C232.935 204.439 232.488 205.52 231.692 206.318L207.654 230.37C206.061 231.966 205.167 234.128 205.167 236.383C205.167 238.637 206.061 240.8 207.654 242.396L222.683 257.425C224.279 259.017 226.441 259.912 228.696 259.912C230.95 259.912 233.113 259.017 234.709 257.425L258.761 233.373C259.559 232.576 260.64 232.129 261.767 232.129C262.895 232.129 263.976 232.576 264.774 233.373L288.826 257.425C290.422 259.017 292.584 259.912 294.839 259.912C297.093 259.912 299.256 259.017 300.852 257.425L315.888 242.396Z" fill="#FF6242" stroke="#E04122" stroke-width="1.50648" stroke-linecap="round" stroke-linejoin="round"/>
<path d="M404.495 273.35L449.834 318.689C451.302 320.169 453.177 321.179 455.221 321.589C457.264 322 459.384 321.793 461.309 320.995C463.235 320.197 464.879 318.844 466.033 317.108C467.187 315.373 467.798 313.333 467.789 311.248V273.35H548.289C551.614 273.35 554.906 272.695 557.977 271.423C561.049 270.15 563.839 268.285 566.19 265.934C568.54 263.583 570.405 260.792 571.676 257.72C572.948 254.648 573.602 251.356 573.601 248.031V117.208C573.602 113.884 572.948 110.591 571.676 107.52C570.405 104.448 568.54 101.657 566.19 99.3054C563.839 96.9542 561.049 95.0891 557.977 93.8166C554.906 92.5441 551.614 91.8892 548.289 91.8892H357.938C351.223 91.8892 344.783 94.5567 340.035 99.3049C335.287 104.053 332.619 110.493 332.619 117.208V248.031C332.619 254.746 335.287 261.186 340.035 265.934C344.783 270.683 351.223 273.35 357.938 273.35H404.495Z" fill="white" stroke="#45413C" stroke-width="1.50648" stroke-linecap="round" stroke-linejoin="round"/>
<path d="M520.268 159.553C522.378 157.812 523.711 155.306 523.973 152.584C524.236 149.861 523.407 147.146 521.669 145.035L510.203 131.098C508.462 128.988 505.956 127.655 503.233 127.393C500.511 127.13 497.796 127.959 495.685 129.698L429.99 183.752L415.255 165.832C413.516 163.722 411.01 162.39 408.289 162.127C405.568 161.865 402.854 162.694 400.744 164.432L386.806 175.898C384.697 177.638 383.364 180.145 383.102 182.867C382.839 185.589 383.668 188.304 385.406 190.416L400.156 208.336L418.174 230.232C419.913 232.341 422.418 233.673 425.139 233.936C427.86 234.199 430.574 233.37 432.685 231.632L454.588 213.614L520.268 159.553Z" fill="#6DD627" stroke="#46B000" stroke-width="1.50648" stroke-linecap="round" stroke-linejoin="round"/>
<path d="M185 635C375 763 707 635 687.151 377.263" stroke="#466DA3" stroke-width="5"/>
<path d="M659.934 249.204C659.745 252.302 665.322 254.341 683.698 257.989C703.149 261.835 707.383 261.745 706.604 257.852C705.485 252.501 660.34 244.234 659.934 249.204Z" fill="#466DA3"/>
<path d="M646.231 134.408C638.954 132.159 638.011 133.491 633.162 152.78C628.136 172.69 627.804 176.736 630.812 179.198C636.273 183.636 639.001 179.339 646.233 155.421C651.559 137.768 651.602 136.068 646.231 134.408Z" fill="#466DA3"/>
<path d="M686.304 179.345C681.072 177.638 679.16 178.4 672.952 184.553C654.607 202.918 640.048 213.705 650.236 216.763C654.395 218.048 658.157 215.197 680.328 194.859C692.531 183.523 693.303 181.688 686.304 179.345Z" fill="#466DA3"/>
</g>
<defs>
<clipPath id="clip0_302_97">
<rect width="700" height="700" fill="white"/>
</clipPath>
</defs>
</svg>
