<svg width="500" height="500" viewBox="0 0 500 500" fill="none" xmlns="http://www.w3.org/2000/svg">
<g clip-path="url(#clip0_635_223)">
<path d="M214.746 0.0347717C210.2 12.1403 204.768 23.8946 198.496 35.2023C193.473 41.1477 187.983 46.682 182.078 51.7523C167.718 64.0598 151.598 74.1723 136.653 85.6023C124.931 94.6873 113.653 104.942 107.653 118.425C106.235 121.7 105.249 125.145 104.721 128.675C102.609 130.985 100.651 133.432 98.8607 136C95.1177 141.432 92.6622 147.646 91.6807 154.17C88.3956 153.819 85.2615 152.606 82.5957 150.655C83.514 152.253 84.7816 153.622 86.3037 154.661C87.8258 155.7 89.5631 156.382 91.3857 156.655C90.83 162.592 92.0545 168.561 94.9032 173.8C93.8247 168.192 94.3845 162.393 96.5157 157.095H97.2457C99.0749 156.956 100.889 156.662 102.668 156.215C101.375 160.893 101.174 165.806 102.081 170.575C100.68 170.126 99.3094 169.588 97.9782 168.962C99.3281 169.904 100.749 170.74 102.228 171.462C103.295 176.691 105.551 181.605 108.821 185.822C106.929 181.771 105.835 177.393 105.598 172.927C113.363 175.857 120.983 175.565 130.068 173.367C144.273 170.002 154.823 157.117 163.321 144.367C177.456 123.19 189.25 100.541 198.496 76.8173C199.373 74.4723 200.401 71.9823 201.278 69.4898C211.703 52.5537 220.111 34.4566 226.331 15.5673C230.284 16.9674 233.575 19.7877 235.563 23.4798L247.871 19.0823C244.614 13.1857 239.806 8.29323 233.967 4.93548C228.127 1.57773 221.48 -0.117108 214.746 0.0347717ZM120.246 131.767C115.169 135.666 110.765 140.368 107.206 145.687C107.058 143.49 106.911 141.437 106.766 139.24C107.206 138.652 107.791 138.067 108.231 137.49C116.583 127.672 127.426 120.49 138.416 114.042C143.106 111.26 147.793 108.767 152.483 105.985C149.261 109.355 146.036 112.735 143.106 116.387C135.628 121.502 127.568 126.052 120.246 131.767ZM128.158 133.817C123.525 138.89 118.368 143.458 112.773 147.445C112.481 147.592 112.333 147.737 112.041 147.885C113.974 145.169 116.242 142.707 118.791 140.557C121.706 138.215 124.931 136.015 128.153 133.817H128.158ZM116.871 110.52C125.956 100.115 137.826 92.6423 148.961 84.2898C165.663 71.8355 180.945 57.5832 194.533 41.7898C193.653 43.1098 192.921 44.5748 192.033 45.8923C175.923 71.2523 152.478 91.0298 128.448 108.907C121.532 113.766 114.925 119.052 108.666 124.732C109.114 123.188 109.653 121.671 110.278 120.19C111.976 116.653 114.199 113.393 116.871 110.52ZM97.6757 153.892C99.614 149.71 101.97 145.734 104.708 142.025C105.001 144.075 105.296 146.127 105.736 148.177C104.992 149.514 104.308 150.883 103.683 152.28C101.842 153.021 99.9255 153.561 97.9682 153.892H97.6757ZM181.931 101.002C176.335 113.753 169.666 126.006 161.996 137.627C154.816 148.91 146.023 161.66 134.448 167.08C125.371 171.371 115.205 172.803 105.296 171.185C105.157 165.932 106.053 160.704 107.933 155.797C108.811 158.297 109.683 160.78 110.716 163.125C109.813 160.239 109.079 157.303 108.518 154.332C108.692 154.003 108.839 153.66 108.958 153.307C110.278 152.575 111.743 151.695 113.061 150.962C120.42 145.901 127.288 140.161 133.576 133.817C136.946 130.74 140.171 127.665 143.541 124.587C160 115.085 174.718 102.845 187.061 88.3923C185.301 92.6423 183.691 96.8923 181.931 101.002ZM261.791 33.8823C265.197 30.42 269.039 27.4157 273.221 24.9448C277.031 37.5473 279.523 51.1748 276.006 63.9223C272.781 75.9373 264.723 85.7548 258.276 96.4523C255.91 100.077 254.083 104.025 252.853 108.175C251.659 112.389 252.131 116.901 254.171 120.777C253.225 116.118 254.007 111.274 256.371 107.15C258.651 103.105 261.3 99.2784 264.283 95.7198C276.298 79.5998 283.918 59.5248 281.573 39.5973C281.242 33.0367 278.594 26.8064 274.101 22.0148C268.246 23.3323 264.136 28.1673 261.791 33.8823Z" fill="black"/>
<path d="M449.792 283.132C455.947 274.34 455.067 260.712 446.714 254.117C442.956 251.427 438.562 249.761 433.964 249.282C429.188 248.592 424.319 248.941 419.691 250.307C415.062 251.673 410.783 254.022 407.147 257.195C403.573 260.454 401.04 264.696 399.868 269.388C398.695 274.081 398.934 279.015 400.554 283.572C408.322 302.915 439.679 297.5 449.792 283.132Z" fill="#FFD340"/>
<path d="M178.856 500.001C145.886 492.236 113.651 484.321 80.2407 478.313C131.821 452.963 183.106 427.313 234.538 401.531C241.426 405.928 248.606 407.978 256.373 410.763C284.653 400.213 310.151 388.491 337.406 375.596C351.766 389.808 362.906 404.596 377.406 418.821C386.638 414.133 393.963 410.031 403.196 405.488C426.348 424.238 449.793 445.638 471.773 465.713C448.328 473.626 425.321 482.271 401.876 490.183C383.028 482.8 363.626 476.92 343.851 472.598C287.731 484.751 241.426 491.501 178.856 500.001Z" fill="#14D29B"/>
<path d="M285.386 425.562C276.301 428.932 260.036 443 258.571 443C246.993 443 197.613 443.145 192.923 442.265C183.998 446.807 147.646 459.41 138.998 462.5C143.686 463.82 168.891 468.215 176.071 471.877C178.121 472.905 170.208 483.6 170.208 483.747C175.043 483.16 237.906 469.68 253.586 466.747C255.491 466.455 265.893 473.195 270.586 474.367C278.646 469.825 324.216 448.43 330.371 446.38C331.691 445.94 348.541 453.705 356.601 455.61C369.056 450.775 380.631 443.595 392.941 438.027C383.416 434.217 374.191 430.115 364.953 425.572L285.386 425.562Z" fill="#008C6E"/>
<path d="M265.018 362.556C243.623 359.039 238.203 356.556 228.678 348.056C219.153 339.556 208.455 329.741 195.708 330.766C191.605 331.059 187.648 332.516 183.545 332.516C174.753 332.516 167.573 326.069 160.833 320.649C146.18 308.779 128.303 299.549 109.545 300.426C90.7878 301.304 71.8878 315.374 70.5678 334.129C69.6903 346.144 52.5453 352.006 41.7028 357.429C30.7342 362.63 19.1697 366.468 7.26782 368.856C24.1178 368.711 194.828 363.581 265.018 362.556Z" fill="#466DA3"/>
<path d="M218.567 356.545C210.947 353.028 204.352 348.045 196.732 344.383C192.265 342.142 187.366 340.893 182.372 340.72C177.42 340.692 172.473 341.035 167.572 341.745C163.504 342.403 159.369 342.551 155.264 342.185C151.927 341.707 148.672 340.769 145.592 339.4C140.055 336.486 134.805 333.054 129.914 329.15C124.885 325.074 119.038 322.125 112.769 320.505C104.78 319.076 96.5416 320.476 89.4718 324.463C82.5843 328.273 72.9118 337.795 68.8093 339.408C64.2668 348.053 50.6393 352.89 41.5593 357.433C30.5909 362.635 19.0264 366.472 7.12427 368.86C22.0718 368.715 157.467 364.61 237.179 362.86C230.744 361.511 224.495 359.391 218.567 356.545Z" fill="#17447D"/>
<path d="M492.875 307.021C481.046 304.633 469.976 299.399 460.625 291.771C451.98 285.021 440.842 278.584 430.875 282.834C426.772 284.584 423.107 287.961 418.565 287.814C410.505 287.376 408.455 276.679 404.792 269.644C397.905 256.604 380.027 253.086 366.107 257.921C352.187 262.756 341.635 273.749 331.38 284.299C331.232 277.851 324.785 273.016 318.337 272.721C311.89 272.426 305.882 275.654 300.752 279.316C291.375 285.909 283.17 294.116 273.792 300.856C264.415 307.596 257.965 309.356 241.847 311.406C331.835 311.564 406.127 311.564 492.875 307.021Z" fill="#466DA3"/>
<path d="M455.947 293.393C450.536 290.131 444.203 288.741 437.924 289.436C432.064 290.168 426.494 292.661 420.634 293.538C416.727 294.424 412.644 294.118 408.912 292.661C405.241 290.627 402.238 287.573 400.267 283.868C397.649 279.014 394.396 274.529 390.594 270.533C386.6 266.61 381.936 263.434 376.822 261.156C373.369 259.595 369.721 258.51 365.977 257.931C352.057 262.768 341.507 273.758 331.249 284.308C331.102 277.861 324.654 273.026 318.207 272.731C311.759 272.436 305.752 275.663 300.624 279.326C291.247 285.918 283.039 294.126 273.662 300.866C264.284 307.606 257.837 309.366 241.717 311.416C328.319 311.563 400.412 311.563 483.057 307.606C473.532 304.383 465.032 298.376 455.947 293.393Z" fill="#17447D"/>
<path d="M364.806 59.8201L359.678 101.143H375.356L380.338 67.8776L364.806 59.8201Z" fill="black"/>
<path d="M413.305 53.3745C399.825 59.527 383.853 53.3745 369.345 56.452C367.884 56.596 366.527 57.2744 365.535 58.357C363.63 60.857 366.123 64.5095 368.76 66.122C371.398 67.7345 374.76 69.052 375.793 72.122C376.965 75.6395 373.888 79.302 370.373 80.3295C366.763 81.009 363.043 80.8075 359.528 79.742C342.528 76.0795 323.628 74.7595 308.828 83.992C320.11 85.1645 325.093 95.567 331.393 104.947C337.693 114.327 344.875 124.727 355.865 127.072C357.186 127.519 358.612 127.548 359.949 127.155C361.287 126.762 362.47 125.965 363.338 124.875C364.07 123.555 366.855 110.955 367.148 110.955H367.295C379.31 112.565 390.593 121.357 402.608 119.307C409.647 98.0357 413.258 75.7802 413.305 53.3745Z" fill="#14D29B"/>
<path d="M367.15 110.811H367.297C368.03 110.958 372.865 112.131 373.45 112.276C374.77 104.363 376.235 94.6931 377.992 86.9256C380.337 76.2281 381.217 66.2656 384.295 55.7156C379.253 55.3582 374.186 55.6041 369.202 56.4481C367.741 56.5916 366.384 57.27 365.392 58.3531C363.487 60.8531 365.977 64.5056 368.615 66.1181C371.252 67.7306 374.615 69.0481 375.65 72.1181C375.988 73.1664 375.988 74.2947 375.65 75.3431C374.77 78.8581 372.717 84.4281 371.84 87.9431C370.52 93.0806 366.997 110.663 367.15 110.811Z" fill="#008C6E"/>
<path d="M389.42 183.504C390.52 183.794 391.653 183.941 392.79 183.944C393.37 183.92 393.937 183.763 394.446 183.483C394.955 183.203 395.392 182.809 395.723 182.331C396.455 181.306 399.093 182.479 399.678 181.306C400.118 180.281 398.213 178.376 398.798 178.229C399.678 177.936 400.548 177.496 401.298 177.204C401.443 177.056 401.738 177.056 401.883 176.909C402.178 176.616 402.03 176.176 401.883 175.884C401.735 175.591 401.443 175.299 401.298 175.004C400.858 173.834 402.178 171.634 402.178 170.461C402.03 168.996 400.125 168.851 398.805 168.119C397.868 167.496 396.827 167.049 395.73 166.799C394.936 166.679 394.125 166.78 393.385 167.091C389.283 167.971 385.325 169.436 381.223 170.316C378.552 170.68 375.97 171.527 373.603 172.816C372.953 173.324 372.468 174.012 372.207 174.794C371.947 175.576 371.922 176.418 372.138 177.214C375.648 182.029 383.995 182.321 389.42 183.504Z" fill="#E28A42"/>
<path d="M348.966 430.727L414.001 36.9244L419.061 37.7594L354.026 431.562L348.966 430.727Z" fill="black"/>
<path d="M382.682 177.045C384.954 175.864 386.988 174.274 388.682 172.355C390.087 170.463 392.024 169.035 394.247 168.252C395.997 167.667 400.109 166.347 399.522 163.71C396.152 164.297 391.172 165.762 388.239 165.907C385.489 165.883 382.745 165.638 380.034 165.175C377.291 164.736 374.479 165.145 371.974 166.347C369.044 168.097 368.019 169.28 368.897 172.65C369.934 176.752 378.139 179.097 382.682 177.045Z" fill="#F2BF8C"/>
<path d="M307.515 238.592C295.296 247.826 281.1 254.095 266.045 256.907C248.755 260.132 230.145 258.519 215.045 249.434C207.865 245.184 201.857 239.324 194.97 234.487C188.082 229.649 180.022 225.987 171.67 226.574C189.858 220.545 208.474 215.892 227.36 212.654C251.537 208.844 277.182 207.672 299.307 218.077C303.705 220.127 308.1 222.912 310.005 227.162C312.057 231.704 311.47 235.659 307.515 238.592Z" fill="black"/>
<path d="M256.806 101.003C269.849 99.8305 282.306 105.838 294.026 111.845C300.329 115.07 306.629 118.148 312.489 121.81C323.489 128.56 333.296 137.06 343.849 144.375C354.401 151.69 366.121 158.151 378.869 159.908C378.506 165.703 376.89 171.351 374.132 176.461C371.374 181.572 367.541 186.023 362.896 189.508C355.276 187.008 347.511 183.941 339.896 181.448C334.181 179.543 328.321 177.786 322.751 175.448C291.244 162.538 266.186 133.673 256.806 101.003Z" fill="#FDB849"/>
<path d="M252.706 96.0015C278.351 109.776 293.883 138.204 297.253 167.069C300.623 195.934 293.151 225.244 281.281 251.766C278.496 239.164 280.401 225.684 281.133 212.789C282.173 193.121 279.078 173.452 272.048 155.054C268.238 145.089 263.256 135.554 259.448 125.601C255.641 115.649 251.973 106.709 252.706 96.0015Z" fill="#FFD340"/>
<path d="M391.036 171.915C390.107 172.478 389.225 173.115 388.398 173.82C388.106 174.112 387.373 174.845 387.518 175.285C387.811 176.017 389.423 175.87 390.018 175.87C392.885 175.798 395.716 175.205 398.371 174.12C399.779 173.601 401.037 172.742 402.033 171.62C402.219 171.398 402.341 171.13 402.388 170.845C402.435 170.56 402.405 170.267 402.3 169.998C402.195 169.728 402.02 169.492 401.793 169.313C401.566 169.135 401.295 169.02 401.008 168.982C400.381 168.837 399.73 168.837 399.103 168.982C396.249 169.425 393.508 170.421 391.036 171.915Z" fill="#F2BF8C"/>
<path d="M395.285 175.004C392.952 174.964 390.641 175.466 388.535 176.472C387.948 176.764 387.363 177.349 387.655 177.937C387.724 178.071 387.829 178.184 387.958 178.262C388.088 178.34 388.237 178.38 388.388 178.377C390.568 179.061 392.862 179.31 395.138 179.109C396.765 179.067 398.383 178.87 399.973 178.522C400.853 178.229 403.343 177.057 402.025 175.884C401.065 175.419 400.015 175.169 398.948 175.152C397.731 175.032 396.508 174.983 395.285 175.004Z" fill="#F2BF8C"/>
<path d="M388.692 179.095C388.107 179.24 387.519 179.68 387.519 180.267C387.551 180.484 387.634 180.69 387.761 180.868C387.888 181.047 388.057 181.192 388.252 181.292C390.036 182.306 392.063 182.813 394.114 182.757C395.579 182.905 402.467 182.465 398.802 179.68C395.601 178.318 392.027 178.112 388.692 179.095Z" fill="#F2BF8C"/>
<path d="M394.844 181.88C393.205 181.539 391.518 181.49 389.862 181.735C389.422 181.735 388.837 182.028 388.837 182.468C388.837 182.613 388.982 182.76 389.129 182.908C389.982 183.492 390.922 183.937 391.914 184.225C393.259 184.654 394.629 184.996 396.017 185.25C397.042 185.545 398.654 185.398 398.214 183.933C397.922 182.908 395.869 182.175 394.844 181.88Z" fill="#F2BF8C"/>
<path d="M307.073 192.87C299.598 172.503 299.306 169.718 286.706 154.62C289.04 148.831 290.378 142.687 290.661 136.45C290.673 133.622 290.076 130.823 288.911 128.245C287.763 126.244 286.217 124.499 284.368 123.118C278.213 117.988 270.741 114.618 264.293 109.928C257.846 105.238 252.278 97.6205 252.423 89.708C248.028 87.958 242.898 81.9405 238.356 82.958C237.038 90.5755 232.356 103.765 225.756 107.868C219.453 111.823 210.956 113.868 207.878 120.618C204.948 127.213 208.463 134.685 212.421 140.693C217.547 148.506 223.278 155.905 229.563 162.82C238.356 172.343 248.761 182.455 248.613 195.35C261.656 204.728 270.301 205.46 274.988 220.85C287.952 214.5 299.018 204.85 307.073 192.87Z" fill="white"/>
<path d="M279.816 374.424C283.186 389.224 287.729 404.174 286.409 419.116C287.815 420.395 289.575 421.219 291.457 421.48C293.34 421.742 295.257 421.428 296.959 420.581L298.279 391.421C298.571 385.706 298.719 379.991 299.011 374.421L279.816 374.424Z" fill="#E28A42"/>
<path d="M285.531 400.212C286.627 406.45 286.922 412.802 286.409 419.115C287.815 420.393 289.574 421.217 291.457 421.479C293.34 421.74 295.257 421.427 296.959 420.58L297.986 395.67C294.116 397.866 289.907 399.402 285.531 400.212Z" fill="black"/>
<path d="M210.497 374.425H187.497C186.764 394.5 189.402 415.16 192.039 435.087C195.649 436.195 199.529 436.041 203.039 434.65C201.764 420.086 202.702 405.412 205.822 391.13C206.931 385.445 208.495 379.859 210.497 374.425Z" fill="#F2BF8C"/>
<path d="M203.471 404.607C199.082 407.415 193.815 408.51 188.671 407.685C189.56 416.845 190.685 425.982 192.043 435.085C195.653 436.193 199.533 436.038 203.043 434.647C202.158 424.646 202.302 414.58 203.471 404.607Z" fill="black"/>
<path d="M277.472 381.457C285.382 381.513 293.264 380.528 300.917 378.527C302.472 357.605 305.36 336.804 309.562 316.25C311.312 307.312 313.52 298.52 314.837 289.582C320.407 255 316.45 219.247 305.607 185.832C295.839 195.618 284.169 203.297 271.317 208.397C270.993 232.363 272.956 256.304 277.18 279.897C279.172 288.457 280.301 297.195 280.55 305.98C280.257 319.315 275.42 332.065 273.955 345.252C272.637 357.72 272.782 369.735 277.472 381.457Z" fill="#D70A32"/>
<path d="M209.188 384.096C201.568 386.596 193.95 383.656 186.33 381.166C181.791 367.991 181.637 353.701 185.89 340.431C190.433 326.509 199.81 314.494 204.06 300.431C206.165 292.047 207.683 283.527 208.603 274.931C213.73 241.374 228.385 210.164 242.89 179.391C245.786 180.649 248.844 181.49 251.975 181.891C268.638 181.853 285.144 178.668 300.625 172.504C304.571 179.058 307.348 186.249 308.83 193.754C299.662 204.096 289.282 213.296 277.913 221.154C271.802 257.809 256.36 292.275 233.073 321.234C224.573 331.639 221.498 344.984 217.54 357.574C214.748 366.366 211.093 375.159 209.188 384.096Z" fill="#FF465A"/>
<path d="M249.338 17.9076C247.608 13.1838 244.744 8.9574 240.998 5.6001C237.788 5.70116 234.721 6.9491 232.353 9.1176C230.006 11.28 228.458 14.1709 227.958 17.3226C231.335 19.1169 234.246 21.6758 236.458 24.7951C237.675 22.4951 239.551 20.6109 241.846 19.3838C244.14 18.1568 246.749 17.6427 249.338 17.9076Z" fill="#D70A32"/>
<path d="M248.164 103.048C250.923 103.114 253.65 102.458 256.077 101.143C253.712 97.6895 252.437 93.6065 252.414 89.4208C248.019 87.6708 242.889 81.6534 238.347 82.6709C237.389 87.2971 235.966 91.8144 234.097 96.1534C235.804 98.2513 237.945 99.9542 240.374 101.145C242.802 102.335 245.46 102.984 248.164 103.048Z" fill="#F2BF8C"/>
<path d="M248.603 96.3036C250.302 96.8807 252.083 97.1779 253.878 97.1837C252.887 94.8181 252.389 92.2756 252.413 89.7111C248.018 87.9611 242.888 81.9436 238.345 82.9611C238.053 84.4261 237.613 86.1836 237.173 88.0886C240.259 91.7145 244.182 94.5341 248.603 96.3036Z" fill="black"/>
<path d="M214.026 105.251C204.501 108.181 197.759 116.386 191.606 124.154C182.229 136.021 172.856 147.891 165.961 161.371C178.53 169.748 192.321 176.126 206.844 180.276C208.621 179.238 210.164 177.842 211.374 176.177C212.585 174.512 213.438 172.615 213.879 170.604C208.896 168.406 206.111 163.854 202.596 159.761C199.081 155.669 194.249 151.694 188.674 152.134C195.709 145.384 202.009 139.091 208.456 131.766C211.824 128.492 214.382 124.479 215.929 120.044C217.249 115.794 214.749 109.639 214.026 105.251ZM273.371 76.2288C266.044 94.6938 246.409 94.6938 235.419 82.5313C228.091 74.4713 225.169 68.9038 225.749 58.9388C225.894 56.3013 224.869 53.6638 225.014 50.8788C225.601 39.0113 225.309 26.2613 237.909 20.6938C248.754 16.0038 267.801 14.3938 274.409 26.8488C279.099 35.6413 279.539 48.0988 278.071 57.6213C277.217 63.9823 275.64 70.2252 273.371 76.2288Z" fill="#F2BF8C"/>
<path d="M225.744 58.9425L226.182 58.5025C227.566 57.0015 228.748 55.3266 229.699 53.52C230.911 51.1429 231.848 48.636 232.494 46.0475C234.692 39.015 238.354 28.9025 247.879 29.93C251.304 30.4695 254.619 31.5576 257.697 33.1525C260.915 34.9116 264.65 35.4824 268.247 34.765C269.436 34.3786 270.57 33.8364 271.617 33.1525C272.889 32.5077 274.114 31.7733 275.282 30.955C275.516 30.8438 275.724 30.6835 275.892 30.4848C276.059 30.2861 276.181 30.0538 276.251 29.8036C276.32 29.5535 276.335 29.2913 276.294 29.0348C276.254 28.7784 276.158 28.5338 276.014 28.3175C274.84 25.8727 273.197 23.6821 271.179 21.87C269.363 20.2914 267.278 19.051 265.024 18.2075C260.243 16.4795 255.139 15.829 250.077 16.3025C245.749 16.6147 241.498 17.6034 237.477 19.2325C224.727 24.8 223.554 38.2825 222.977 50.15C223.244 52.7875 225.889 56.305 225.744 58.9425Z" fill="black"/>
<path d="M238.204 51.1778C239.563 50.3753 241.088 49.8921 242.662 49.7648C244.235 49.6375 245.818 49.8693 247.289 50.4428C248.741 51.0441 250.03 51.9822 251.049 53.1797C252.068 54.3773 252.788 55.7999 253.149 57.3303C250.535 57.9184 247.8 57.6093 245.384 56.4528C242.528 55.4307 240.033 53.5974 238.204 51.1778ZM262.381 57.7703C262.97 56.3189 263.885 55.0226 265.055 53.9821C266.226 52.9415 267.621 52.1847 269.131 51.7703C270.655 51.3973 272.245 51.3887 273.773 51.7454C275.3 52.102 276.722 52.8137 277.924 53.8228C276.181 55.8616 273.804 57.2547 271.174 57.7778C268.31 58.6657 265.244 58.6631 262.381 57.7703Z" fill="white"/>
<path d="M249.631 51.7556C248.936 51.178 248.143 50.7309 247.289 50.4356C245.817 49.8648 244.235 49.6344 242.662 49.7617C241.089 49.889 239.564 50.3707 238.204 51.1706C240.033 53.5902 242.528 55.4235 245.384 56.4456C246.004 56.6864 246.64 56.8819 247.289 57.0306C247.883 55.1954 248.669 53.4274 249.631 51.7556ZM272.639 51.6156C271.514 51.5152 270.38 51.5648 269.269 51.7631C267.738 52.1335 266.322 52.8745 265.145 53.9207C263.968 54.967 263.066 56.2864 262.519 57.7631C265.431 58.6585 268.546 58.6585 271.459 57.7631C272.025 57.6578 272.569 57.4601 273.071 57.1781C272.558 55.3711 272.411 53.48 272.639 51.6156Z" fill="black"/>
<path d="M261.791 74.6177C261.586 75.6326 261.129 76.58 260.464 77.3734C259.798 78.1668 258.945 78.7811 257.981 79.1602C255.859 79.6449 253.635 79.3863 251.681 78.4277C248.64 76.8127 246.066 74.4404 244.209 71.5402C249.785 73.7998 255.779 74.8488 261.791 74.6177Z" fill="#E28A42"/>
<path d="M243.475 71.2532C246.91 71.8407 250.405 71.9877 253.877 71.6907C255.288 71.5211 256.707 71.4235 258.127 71.3982C259.544 71.3767 260.947 71.6776 262.23 72.2782C262.774 72.4913 263.229 72.8824 263.522 73.3878C263.815 73.8932 263.928 74.4829 263.842 75.0607C260.372 75.9066 256.761 76.0045 253.249 75.3481C249.737 74.6916 246.406 73.2958 243.475 71.2532Z" fill="black"/>
<path d="M225.012 49.8545C224.471 48.9523 223.694 48.2155 222.764 47.7245C221.833 47.2335 220.787 47.0069 219.737 47.0695C219.179 47.2108 218.657 47.4662 218.203 47.8195C217.749 48.1727 217.373 48.6162 217.099 49.122C216.703 50.1055 216.456 51.1429 216.367 52.1995C216.209 55.1829 216.811 58.1574 218.117 60.8445C218.636 62.1286 219.437 63.2801 220.459 64.2145C221.545 65.3141 223.019 65.9427 224.564 65.9645C225.163 66.0096 225.763 65.9092 226.314 65.672C231.607 63.1895 227.212 52.7845 225.012 49.8545Z" fill="#F2BF8C"/>
<path d="M220.178 50.0049C221.742 51.131 223.044 52.5805 223.998 54.2549C225.546 56.8073 226.263 59.7774 226.05 62.7549C225.336 61.9486 224.455 61.3073 223.468 60.8756C222.481 60.4439 221.412 60.2321 220.335 60.2549C220.934 59.8294 221.434 59.2793 221.8 58.6424C222.358 57.6131 222.564 56.4295 222.385 55.2724C222.013 53.3856 221.262 51.5938 220.178 50.0049ZM260.768 68.3199C259.238 63.6484 258.787 58.6907 259.45 53.8199C257.623 57.9342 256.008 62.1397 254.613 66.4199C255.432 67.1766 256.409 67.7402 257.475 68.069C258.54 68.3978 259.665 68.4835 260.768 68.3199Z" fill="#E28A42"/>
<path d="M238.204 46.1942C239.509 45.2947 241.021 44.74 242.599 44.5817C243.496 44.585 244.386 44.7336 245.236 45.0217C247.289 45.4617 249.339 46.0467 251.391 46.6342C252.047 46.8727 252.745 46.9723 253.441 46.9267C255.054 46.7792 256.079 45.3142 256.959 44.1417C257.251 43.7017 257.546 43.1167 257.839 42.6767C253.168 41.3388 248.337 40.6481 243.479 40.6242C242.971 40.5634 242.458 40.6668 242.014 40.9192C241.602 41.1837 241.252 41.5332 240.986 41.9442C239.909 43.2567 238.976 44.6816 238.204 46.1942ZM279.379 46.1942C278.489 45.3458 277.366 44.784 276.154 44.5817C275.494 44.5879 274.844 44.7381 274.249 45.0217C272.784 45.4617 271.319 46.0467 269.854 46.6342C269.414 46.7792 268.829 47.0717 268.389 46.9267C267.216 46.7792 266.484 45.3142 265.751 44.1417C265.459 43.7017 265.311 43.1167 265.019 42.6767C268.379 41.3486 271.956 40.6527 275.569 40.6242C275.982 40.5801 276.398 40.6846 276.741 40.9192C277.065 41.1966 277.316 41.5483 277.474 41.9442C278.191 43.3227 278.827 44.7417 279.379 46.1942Z" fill="black"/>
<path d="M229.701 90.4464C245.674 99.9714 255.051 117.696 260.181 135.431C265.016 152.136 266.931 170.306 262.086 187.011C255.931 207.964 239.811 224.816 221.641 236.831C210.946 243.866 199.076 249.874 190.576 259.399C190.871 254.856 186.621 251.046 182.664 248.994C176.216 245.624 168.744 243.866 163.029 239.324C160.264 237.124 157.989 234.372 156.348 231.244C154.706 228.115 153.735 224.679 153.496 221.154C152.911 210.904 158.626 201.224 165.514 193.604C172.401 185.984 180.764 179.684 187.346 171.771C207.136 148.034 208.601 113.004 229.701 90.4464Z" fill="#FFD340"/>
<path d="M260.182 135.572C255.492 119.307 247.287 103.042 233.66 93.2223C239.861 102.813 243.354 113.902 243.77 125.315C243.961 129.724 243.715 134.141 243.037 138.502C245.81 141.573 248.129 145.025 249.925 148.752C255.42 160.489 258.223 173.306 258.13 186.265C258.134 190.936 257.692 195.597 256.81 200.185C259.019 196.033 260.787 191.662 262.087 187.142C266.922 170.3 265.017 152.275 260.182 135.572Z" fill="#FDB849"/>
<path d="M204.058 249.283L203.033 247.965C207.428 244.595 212.118 241.518 216.661 238.44C226.97 231.964 236.553 224.399 245.246 215.875C250.947 210.264 255.045 203.232 257.116 195.505C258.129 190.138 258.173 184.633 257.246 179.25C255.494 166.252 251.371 153.687 245.083 142.178L246.551 141.3C252.974 152.972 257.149 165.745 258.858 178.958C259.782 184.541 259.732 190.243 258.711 195.81C256.644 203.849 252.383 211.154 246.403 216.91C237.656 225.567 227.975 233.227 217.538 239.75C213.143 242.835 208.453 245.913 204.058 249.283Z" fill="black"/>
<path d="M224.281 210.162C210.899 214.608 196.423 214.504 183.106 209.867C184.426 207.229 186.183 204.887 187.503 202.247C199.897 204.474 212.616 204.125 224.868 201.222C225.117 204.215 224.919 207.227 224.281 210.162Z" fill="#FDB849"/>
<path d="M224.134 171.623L235.134 176.461C236.306 176.898 237.634 177.778 237.479 179.098C237.331 179.976 236.451 180.708 236.451 181.598C236.451 182.488 237.039 183.211 236.891 183.943C236.746 185.261 234.986 185.848 234.391 187.166C233.951 188.193 234.536 189.666 233.659 190.391C233.204 190.736 232.713 191.031 232.194 191.271C231.314 191.708 230.874 192.588 230.141 193.176C229.176 193.802 228.095 194.228 226.962 194.429C225.83 194.63 224.668 194.602 223.546 194.346C221.609 194.062 219.698 193.621 217.831 193.028C220.521 191.296 223.776 190.669 226.916 191.278C225.014 190.838 223.109 190.251 221.204 189.958C220.545 189.851 219.904 189.654 219.299 189.373C218.744 189.012 218.249 188.567 217.831 188.053C216.867 186.641 216.314 184.988 216.237 183.28C216.16 181.572 216.56 179.876 217.394 178.383C218.715 175.365 221.12 172.953 224.134 171.623Z" fill="#F2BF8C"/>
<path d="M233.364 98.2084C230.727 93.6659 224.574 92.0559 219.444 93.3734C214.446 95.016 209.887 97.7719 206.109 101.433C189.237 116.819 175.027 134.892 164.057 154.918C162.221 157.46 161.386 160.59 161.712 163.708C162.444 166.076 163.874 168.167 165.814 169.708C179.234 182.115 196.291 189.873 214.462 191.836C218.145 189.936 221.124 186.906 222.962 183.191C225.159 179.282 226.647 175.016 227.357 170.588C219.661 164.265 210.727 159.622 201.129 156.961C207.879 150.961 214.609 144.506 220.909 138.211C226.479 132.641 232.047 126.633 234.977 119.308C236.453 115.927 237.078 112.236 236.797 108.558C236.516 104.879 235.337 101.326 233.364 98.2084Z" fill="#FDB849"/>
<path d="M277.911 427.616L278.351 428.496C279.229 429.961 281.574 430.693 282.894 431.426C285.054 432.519 287.314 433.403 289.644 434.063C294.678 435.724 299.818 437.047 305.029 438.021C310.3 438.944 315.656 439.288 321.001 439.046C325.281 438.969 329.547 438.528 333.751 437.726C334.046 436.848 334.484 435.976 334.779 435.088C335.376 434.937 335.961 434.742 336.529 434.503C334.916 424.978 324.954 424.978 320.116 423.661C314.225 420.682 308.546 417.303 303.116 413.548C303.556 411.206 303.996 408.713 304.289 406.368C304.436 405.343 304.436 404.026 303.849 403.586C303.711 403.463 303.547 403.372 303.37 403.321C303.193 403.27 303.006 403.26 302.824 403.291C301.874 403.221 300.921 403.371 300.039 403.731C298.721 404.318 297.401 404.758 296.084 405.343C294.71 405.786 293.457 406.538 292.419 407.541C291.833 408.128 291.395 408.846 291.14 409.636C290.886 410.425 290.822 411.264 290.954 412.083C288.611 409.583 286.266 406.956 283.921 404.463C283.328 405.929 282.886 407.451 282.601 409.006C282.456 410.618 283.189 412.523 284.351 412.671C282.348 416.14 279.468 419.02 275.999 421.023C275.706 421.168 275.411 421.316 275.411 421.756C275.388 422.009 275.44 422.264 275.559 422.488C275.947 424.353 276.751 426.106 277.911 427.616Z" fill="#17447D"/>
<path d="M307.366 437.137C310.953 437.744 314.574 438.135 318.208 438.31C322.021 438.432 325.837 438.334 329.638 438.017C331.103 437.87 332.423 437.722 333.888 437.577C334.166 436.719 334.509 435.883 334.913 435.077H335.061C324.951 435.665 314.986 435.665 304.876 435.957C303.848 435.981 302.819 435.933 301.798 435.812C303.589 436.494 305.46 436.939 307.366 437.137Z" fill="white"/>
<path d="M308.096 436.557C304.314 436.123 300.55 435.539 296.814 434.807C293.492 434.181 290.213 433.346 286.996 432.307C283.72 431.106 280.616 429.481 277.764 427.472V427.617C276.32 429.172 274.576 430.419 272.636 431.282C272.828 434.842 273.57 438.351 274.834 441.684C278.341 442.898 281.981 443.686 285.676 444.029C289.239 444.074 292.725 442.997 295.641 440.952C296.468 440.483 297.402 440.237 298.353 440.237C299.303 440.237 300.237 440.483 301.064 440.952C302.768 441.804 304.346 442.888 305.751 444.174C313.224 450.174 323.629 444.762 331.981 441.244C332.738 440.166 333.328 438.98 333.731 437.727C332.512 437.801 331.289 437.801 330.069 437.727C322.896 437.582 315.424 437.434 308.096 436.557ZM301.356 423.807L300.476 422.342C303.697 420.588 306.343 417.942 308.096 414.722L309.561 415.602C307.608 419.02 304.775 421.853 301.356 423.807ZM309.121 426.152L307.804 424.979C309.858 422.572 311.673 419.972 313.224 417.214L314.691 418.092C313.141 420.978 311.273 423.681 309.121 426.152ZM294.761 420.437L294.029 418.824C297.494 417.437 300.6 415.283 303.114 412.524L304.434 413.549C301.85 416.633 298.521 419.004 294.761 420.437Z" fill="black"/>
<path d="M180.908 439.631C180.761 439.631 180.761 439.778 180.908 439.631C180.908 440.071 181.201 440.218 181.348 440.658C182.486 442.263 183.994 443.569 185.743 444.468C187.776 445.884 189.934 447.11 192.191 448.131C196.958 450.44 201.909 452.352 206.991 453.846C211.995 455.319 217.163 456.159 222.376 456.346C226.484 456.566 230.604 456.419 234.686 455.908C235.093 454.955 235.435 453.975 235.711 452.976C236.151 452.831 236.883 452.683 237.461 452.536C236.141 441.536 226.461 440.668 221.928 438.763C219.583 437.738 210.206 429.678 205.663 425.868C206.256 423.16 206.696 420.421 206.981 417.663C207.23 416.522 207.075 415.33 206.541 414.291C206.432 414.162 206.298 414.057 206.147 413.982C205.996 413.907 205.832 413.863 205.663 413.853C204.776 413.649 203.847 413.753 203.026 414.146C201.706 414.586 200.386 415.171 199.068 415.611C197.713 415.999 196.495 416.761 195.551 417.808C194.939 418.5 194.49 419.319 194.237 420.207C193.983 421.095 193.932 422.028 194.086 422.938C191.888 419.861 189.691 416.636 187.493 413.558C186.746 415.174 186.299 416.912 186.173 418.688C186.026 420.593 186.613 422.791 187.786 423.083C185.879 426.776 182.989 429.87 179.433 432.023C179.141 432.168 178.846 432.316 178.846 432.756V433.488C179.11 435.654 179.812 437.744 180.908 439.631Z" fill="#466DA3"/>
<path d="M208.897 454.429C212.389 455.585 215.965 456.467 219.594 457.066C223.157 457.286 226.729 457.286 230.292 457.066C231.797 456.89 233.247 456.39 234.542 455.601C234.837 454.724 235.274 453.696 235.569 452.819C235.569 452.819 228.389 455.896 202.159 450.914C204.311 452.257 206.564 453.432 208.897 454.429Z" fill="white"/>
<path d="M211.094 454.137C207.579 452.965 202.449 450.475 198.932 449.302C195.725 448.299 192.592 447.075 189.554 445.64C186.374 444.043 183.459 441.967 180.909 439.485V439.63C179.575 441.278 177.867 442.584 175.927 443.44C176.056 447.547 176.643 451.626 177.677 455.602C180.964 457.253 184.465 458.437 188.079 459.12C191.519 459.487 194.972 458.545 197.749 456.482C198.571 456.016 199.514 455.808 200.456 455.887C201.397 455.965 202.293 456.326 203.027 456.922C204.713 458.087 206.24 459.466 207.569 461.025C214.602 468.497 224.859 463.077 232.919 459.705C233.676 458.522 234.265 457.24 234.669 455.895C233.751 456.102 232.821 456.249 231.884 456.335C228.343 456.847 224.76 456.994 221.189 456.775C217.75 456.207 214.371 455.325 211.094 454.137ZM203.622 437.002L202.597 435.537C205.657 433.578 208.257 430.978 210.217 427.917L211.681 428.945C209.614 432.186 206.863 434.936 203.622 437.002ZM211.094 440.365L209.629 439.192C211.721 436.551 213.538 433.703 215.052 430.692L216.664 431.572C215.175 434.72 213.304 437.673 211.094 440.365ZM197.467 432.752L196.734 431.14C200.267 429.811 203.361 427.528 205.674 424.545L207.139 425.572C204.591 428.763 201.258 431.237 197.467 432.752ZM260.917 31.8325C259.112 28.5418 256.55 25.7283 253.442 23.625C252.124 22.7475 246.557 20.9875 244.941 22.4525C235.269 31.5375 232.339 46.2025 225.307 57.475C218.419 68.7575 209.482 78.8675 204.939 91.3225C203.359 95.2327 202.562 99.4152 202.594 103.633C203.207 108.035 205.269 112.108 208.454 115.208C200.982 102.9 210.799 87.22 218.704 75.645C221.929 70.955 225.454 67 228.814 62.4575C237.607 50.88 242.589 38.5725 251.089 25.385C254.6 27.1531 257.897 29.3163 260.917 31.8325Z" fill="black"/>
</g>
<defs>
<clipPath id="clip0_635_223">
<rect width="500" height="500" fill="white"/>
</clipPath>
</defs>
</svg>
