<svg width="100" height="100" viewBox="0 0 100 100" fill="none" xmlns="http://www.w3.org/2000/svg">
<rect width="100" height="100" rx="30" fill="#B4C3EE"/>
<path d="M90.0188 67.4959C88.9438 51.1652 87.5619 39.1702 86.1163 22C81.4698 27.1763 74.4842 29.3012 69.1535 29.6968C58.1545 30.5123 51.0193 24.9741 40.1563 24.1259C29.1388 23.2651 19.6925 27.3249 10 32.0331C11.5363 47.1083 12.9876 62.5175 13.226 77.6786C20.0447 74.3416 27.0535 71.4061 34.7474 71.2401C41.9946 71.0838 48.8934 74.1563 56.0488 74.8695C66.907 75.9522 80.9072 73.4326 90.0188 67.4959Z" stroke="black" stroke-width="3.86817" stroke-miterlimit="1.5" stroke-linecap="round" stroke-linejoin="round"/>
<path d="M53.0877 41.2047C50.5352 40.9499 47.7242 40.9268 45.5906 42.5383C43.8594 43.8461 42.9812 46.2278 44.9411 47.8173C47.7802 50.1183 52.4266 48.6538 55.0041 51.4952C56.7826 53.4558 55.3612 56.1299 53.4071 57.2838C51.892 58.177 50.0566 58.2742 48.3505 58.0299C46.5324 57.7703 44.6902 57.5665 42.8799 57.254" stroke="black" stroke-width="3.86817" stroke-miterlimit="1.5" stroke-linecap="round" stroke-linejoin="round"/>
<path d="M49.532 41.2335C49.559 40.1758 49.6275 39.1248 49.5918 38.0652" stroke="black" stroke-width="3.86817" stroke-miterlimit="1.5" stroke-linecap="round" stroke-linejoin="round"/>
<path d="M49.1963 58.0714C49.2291 59.0723 49.2619 60.0714 49.3169 61.0714" stroke="black" stroke-width="3.86817" stroke-miterlimit="1.5" stroke-linecap="round" stroke-linejoin="round"/>
<path d="M35.3559 61.3531C32.3856 60.9781 29.2021 61.2002 26.4075 62.3233C25.2919 60.4445 23.1245 59.4387 20.9697 59.5618C20.4795 53.8049 20.1108 48.0077 19.7036 42.2471C22.1663 40.8028 23.5598 38.422 23.746 35.6181C29.0072 32.5508 34.4932 31.4421 40.4617 32.6883" stroke="black" stroke-width="3.86817" stroke-miterlimit="1.5" stroke-linecap="round" stroke-linejoin="round"/>
<path d="M60.9749 37.9518C64.9873 38.4576 69.0953 38.5547 73.1194 38.1287C74.4935 39.4268 76.3473 40.4461 78.2638 40.5951C78.5427 45.8471 79.6437 51.0443 80.106 56.2886C77.4117 57.4271 74.5765 59.3973 74.3912 62.583C70.1509 63.5674 65.7398 63.5644 61.5008 62.5743" stroke="black" stroke-width="3.86817" stroke-miterlimit="1.5" stroke-linecap="round" stroke-linejoin="round"/>
</svg>
