<svg width="100" height="100" viewBox="0 0 100 100" fill="none" xmlns="http://www.w3.org/2000/svg">
<rect width="100" height="100" rx="30" fill="#B4C3EE"/>
<path d="M71.012 24.4323C57.4016 13.7807 37.18 15.7676 25.7245 27.4074C13.9264 39.3985 12.7163 62.711 27.0861 74.1404C35.3948 80.7478 49.4838 84.5431 60.0177 81.4474C79.6555 75.6767 89.9009 51.6974 78.9153 32.9803" stroke="black" stroke-width="3.86817" stroke-miterlimit="1.5" stroke-linecap="round" stroke-linejoin="round"/>
<path d="M55.62 36.8838C51.817 36.5026 47.6298 36.4669 44.4521 38.8765C41.8736 40.8326 40.5631 44.3924 43.4832 46.7683C47.7119 50.2095 54.6357 48.0228 58.4755 52.2697C61.1254 55.2014 59.0072 59.1984 56.0958 60.9229C53.8406 62.2575 51.1038 62.4042 48.564 62.0384C45.8542 61.6495 43.1098 61.3465 40.4126 60.8795" stroke="black" stroke-width="3.86817" stroke-miterlimit="1.5" stroke-linecap="round" stroke-linejoin="round"/>
<path d="M49.6274 36.8809C49.668 35.2983 49.7703 33.7292 49.7162 32.1456" stroke="black" stroke-width="3.86817" stroke-miterlimit="1.5" stroke-linecap="round" stroke-linejoin="round"/>
<path d="M49.3677 62.1137C49.4159 63.6104 49.4642 65.1052 49.5472 66.6" stroke="black" stroke-width="3.86817" stroke-miterlimit="1.5" stroke-linecap="round" stroke-linejoin="round"/>
</svg>
