<svg width="500" height="500" viewBox="0 0 500 500" fill="none" xmlns="http://www.w3.org/2000/svg">
<g clip-path="url(#clip0_635_318)">
<path d="M131.831 0.00488281C134.516 14.4111 133.658 29.254 129.331 43.2549C136.259 40.3302 142.097 35.3095 146.026 28.8974C145.026 44.0899 139.851 60.1174 130.001 71.8024C137.109 71.6347 144.125 70.1637 150.701 67.4624C147.352 74.065 142.717 79.9316 137.068 84.7177C131.42 89.5037 124.872 93.1126 117.809 95.3324C125.439 97.4485 133.275 98.736 141.181 99.1724C137.862 102.909 133.766 105.875 129.181 107.865C124.596 109.855 119.633 110.82 114.636 110.692C119.507 112.492 124.818 112.725 129.829 111.36C124.002 118.673 116.869 124.843 108.794 129.557C101.605 127.992 95.0402 124.332 89.9286 119.04C88.3963 109.213 87.9478 99.2473 88.5911 89.3224C88.7676 85.863 89.3851 82.4404 90.4286 79.1374C92.2857 74.6442 94.7577 70.4307 97.7736 66.6174C111.631 47.0849 123.316 22.2099 131.831 0.00488281Z" fill="black"/>
<path d="M213.465 296.672L211.795 292.832C221.836 288.207 230.831 281.589 238.236 273.381C245.64 265.173 251.299 255.545 254.868 245.082C257.205 238.082 257.205 232.895 255.035 229.222C251.863 223.88 244.518 222.377 238.675 222.722C235.816 222.936 232.972 223.326 230.16 223.89C226.093 224.7 221.953 225.091 217.805 225.057C210.46 224.892 201.445 220.885 199.443 213.037C198.737 209.2 198.966 205.25 200.11 201.52C200.662 199.392 200.997 197.215 201.11 195.02C201.011 191.958 200.224 188.958 198.808 186.242C197.392 183.526 195.383 181.163 192.93 179.327C187.699 175.418 181.974 172.219 175.903 169.812L177.573 165.972C184.111 168.442 190.245 171.874 195.77 176.155C198.698 178.408 201.086 181.285 202.761 184.578C204.436 187.87 205.356 191.495 205.453 195.187C205.32 197.661 204.928 200.113 204.283 202.505C203.327 205.583 203.098 208.841 203.615 212.022C205.115 217.865 212.13 220.702 217.973 220.87C221.843 220.879 225.704 220.487 229.493 219.7C232.474 219.148 235.484 218.758 238.508 218.532C247.858 218.032 255.37 221.205 258.875 227.215C261.713 232.055 261.713 238.4 259.043 246.58C255.161 257.542 249.13 267.619 241.304 276.221C233.477 284.822 224.013 291.775 213.465 296.672Z" fill="#17447D"/>
<path d="M155.87 481.148C161.715 479.648 167.557 477.648 173.4 475.806C155.202 436.238 104.952 330.393 102.782 314.201C107.282 312.201 111.962 308.023 115.637 293.498C118.975 280.476 119.637 264.951 122.315 251.761C123.393 245.846 124.79 239.994 126.5 234.231C119.155 233.898 115.315 239.731 112.977 244.583C110.353 249.343 108.441 254.461 107.302 259.776C106.302 242.746 98.6197 227.053 91.1072 211.693C88.0697 205.42 85.0646 199.132 82.0922 192.828C78.7522 193.496 77.5922 195.828 76.7497 199.006C76.1107 202.478 76.054 206.032 76.5822 209.523C77.2687 212.748 78.1597 215.926 79.2497 219.038C74.0722 211.361 71.4022 207.018 66.5597 202.846C61.8872 198.671 55.5422 196.168 49.8647 193.163C49.2998 195.394 49.2467 197.725 49.7095 199.979C50.1723 202.234 51.139 204.355 52.5372 206.183C49.6997 204.348 46.3597 203.683 43.5222 201.843C42.6953 204.429 42.5062 207.176 42.9711 209.851C43.436 212.526 44.5412 215.048 46.1922 217.203C47.8622 219.373 50.1922 221.043 52.0372 223.046C56.2876 228.242 58.6949 234.7 58.8822 241.411C51.3515 234.58 43.3143 228.33 34.8397 222.713C30.1672 236.568 46.3597 244.416 50.8672 256.101C55.8672 268.956 49.6997 282.813 51.2022 296.003C52.7022 307.688 63.7222 317.206 68.5647 327.723C91.4372 378.641 100.617 432.566 113.472 486.156C127.775 486.593 142.063 484.905 155.87 481.148Z" fill="#E57B23"/>
<path d="M85.9197 318.039C88.9197 320.879 94.0997 321.379 97.9397 321.539C100.103 321.706 102.276 321.706 104.44 321.539C103.647 319.098 103.088 316.587 102.772 314.039C103.615 314.034 95.9372 317.707 85.9197 318.039ZM71.2272 234.899C70.1835 230.489 68.7305 226.185 66.8872 222.044C64.9907 218.204 62.257 214.838 58.8872 212.194C57.7172 211.194 56.5497 210.359 55.3872 209.357C59.2272 214.532 62.8997 219.542 66.2397 225.049C68.0547 228.389 69.5572 231.729 71.2272 234.899ZM75.9022 221.712C79.0788 228.525 81.9205 235.489 84.4172 242.579C84.2497 239.742 83.9172 236.737 83.5822 233.899C83.2216 230.313 82.437 226.783 81.2447 223.382C80.6881 221.965 79.9593 220.621 79.0747 219.382C75.9923 214.257 72.4134 209.448 68.3897 205.024C68.8897 206.192 69.3897 207.194 69.8897 208.364C71.9276 212.798 73.9319 217.248 75.9022 221.712ZM94.4347 270.127C89.2413 274.065 84.9784 279.098 81.9488 284.868C78.9191 290.639 77.197 297.006 76.9047 303.517C74.4047 293.499 71.5622 283.649 69.5572 273.632C77.2497 273.967 86.9197 268.792 94.4347 270.127Z" fill="#B2490F"/>
<path d="M292.096 416.709C275.401 416.542 248.188 416.042 235.501 402.852C229.323 396.352 229.501 382.152 229.658 373.469C229.969 362.797 231.821 352.226 235.158 342.084C240.658 325.054 249.683 309.529 259.533 294.669C268.716 280.814 279.568 267.959 284.076 251.597C288.751 234.234 286.076 216.037 284.076 198.174C281.403 173.467 280.403 148.089 286.576 123.882C292.748 99.6744 306.778 76.6319 328.481 64.4494C350.183 52.0944 382.071 52.5944 400.436 69.4494C415.961 70.7844 429.651 80.9694 437.831 94.1569C446.011 107.344 449.018 123.207 449.018 138.734C449.018 154.262 446.178 169.619 443.341 184.812C439.841 203.342 432.323 219.369 432.656 238.902C432.942 257.749 438.062 276.206 447.526 292.507C452.868 301.857 459.713 310.204 465.723 319.052C471.366 327.116 476.071 335.798 479.746 344.929C489.227 368.974 489.465 395.679 480.413 419.889C480.581 414.389 475.573 410.039 471.066 406.867C466.383 403.863 461.069 401.98 455.538 401.367C433.668 398.029 411.631 403.704 390.096 408.047C357.787 414.105 324.966 417.006 292.096 416.709Z" fill="black"/>
<path d="M468.896 474.139C479.081 433.904 481.918 390.664 469.396 351.099C467.149 343.103 463.472 335.58 458.543 328.894C451.031 319.879 439.343 314.704 427.991 311.364C405.121 304.864 405.453 300.679 393.433 296.339C369.388 307.802 342.35 311.422 316.136 306.689C314.278 306.737 312.454 307.194 310.793 308.027C309.293 308.527 307.623 308.862 306.121 309.527C303.281 310.527 300.621 311.697 297.938 312.864C290.404 316.222 282.652 319.067 274.733 321.379C266.619 323.212 259.044 326.912 252.611 332.185C246.177 337.458 241.063 344.16 237.673 351.757C228.158 371.122 224.318 392.492 218.141 413.194C211.849 433.946 202.928 453.807 191.596 472.294C219.542 467.509 248.088 467.395 276.071 471.959C289.761 474.129 303.118 477.459 316.806 479.639C335.767 482.509 354.897 484.125 374.071 484.479C406.626 485.324 438.346 485.492 468.896 474.139Z" fill="#14D29B"/>
<path d="M277.409 360.61C280.247 366.787 283.252 372.797 286.589 378.64C289.429 383.817 292.767 388.657 295.607 393.665C301.282 403.182 306.792 412.865 314.472 420.712C317.893 424.455 322.038 427.465 326.657 429.56C331.29 431.52 336.347 432.266 341.349 431.73C351.867 430.895 361.549 425.73 370.232 419.877C378.615 413.911 386.54 407.326 393.939 400.177C413.472 381.645 429.999 360.11 445.359 337.737C448.359 333.397 451.359 329.057 454.539 324.717C451.729 322.217 448.65 320.037 445.359 318.217C443.534 320.067 441.752 321.96 440.017 323.895C423.794 340.815 406.687 356.864 388.767 371.975C381.331 378.372 373.405 384.177 365.062 389.337C356.892 394.535 347.639 397.791 338.014 398.855C328.359 399.461 318.827 396.422 311.304 390.34C303.624 384.34 298.449 375.982 293.107 367.967L284.092 354.947C280.752 349.947 277.747 344.93 274.742 339.755C271.737 334.58 268.899 329.402 265.894 324.227C264.697 324.716 263.528 325.274 262.394 325.897C267.559 337.572 272.232 349.252 277.409 360.61ZM243.184 405.687C247.26 423.197 252.617 440.383 259.212 457.107C261.047 461.607 262.884 466.122 264.887 470.462C268.559 470.962 272.232 471.462 276.072 471.962C284.087 473.297 292.099 474.962 300.279 476.462C297.706 473.606 295.309 470.595 293.102 467.447C284.145 454.592 276.695 440.752 270.897 426.197C263.897 409.337 258.042 391.975 252.699 374.612C249.527 363.76 246.357 352.907 243.517 341.89C241.369 344.96 239.472 348.198 237.842 351.572C236.851 353.472 235.959 355.422 235.169 357.415C236.754 373.667 239.432 389.794 243.184 405.687ZM417.477 484.32C422.654 476.972 427.494 469.292 432.169 461.78C442.519 445.42 452.037 428.557 461.219 411.362C466.394 401.847 471.234 392.33 476.077 382.647C474.768 372.12 472.533 361.729 469.399 351.595C463.399 362.112 457.212 372.462 450.534 382.647C441.352 397.005 431.334 411.027 420.817 424.552C411.465 436.435 401.606 447.909 391.267 458.942C382.801 468.416 373.215 476.825 362.719 483.985C366.392 484.152 370.064 484.32 373.737 484.32C388.762 484.82 403.119 485.155 417.477 484.32Z" fill="#008C6E"/>
<path d="M280.582 180.976C278.737 185.115 278.269 189.738 279.247 194.163C279.789 196.364 280.963 198.359 282.625 199.902C284.286 201.444 286.362 202.468 288.597 202.846C290.708 202.973 292.814 202.529 294.695 201.562C296.575 200.594 298.159 199.137 299.282 197.346C301.488 193.726 302.644 189.564 302.62 185.326C303.107 180.93 302.046 176.503 299.62 172.806C291.935 163.278 283.587 173.628 280.582 180.976ZM271.067 228.888C268.596 233.487 267.885 238.828 269.067 243.913C271.067 250.926 277.58 255.768 284.592 257.938C289.423 259.701 294.749 259.522 299.45 257.438C306.13 253.938 308.8 245.251 307.465 237.738C306.13 230.226 301.787 223.713 297.615 217.536C293.615 211.536 290.435 205.016 283.757 212.036C278.825 217.088 274.56 222.751 271.067 228.888Z" fill="#FDB849"/>
<path d="M302.452 173.299C301.851 174.341 301.005 175.221 299.987 175.861C298.968 176.501 297.809 176.883 296.609 176.971C295.407 176.914 294.247 176.508 293.272 175.804C288.491 172.494 284.962 167.672 283.254 162.114C280.704 154.717 279.96 146.817 281.084 139.074C281.442 136.021 282.407 133.069 283.922 130.394C284.702 129.085 285.767 127.97 287.039 127.131C288.311 126.293 289.756 125.753 291.267 125.551C300.117 124.716 307.127 137.071 307.794 144.751C308.797 153.931 308.129 165.451 302.452 173.299Z" fill="#E57B23"/>
<path d="M295.439 163.446C297.274 157.446 299.279 151.259 298.277 144.914C297.442 140.241 292.934 131.226 287.092 131.226H286.424C290.597 136.401 288.424 144.749 288.259 150.759C288.01 154.958 288.346 159.172 289.259 163.279C290.083 166.805 291.316 170.223 292.932 173.464C293.53 170.07 294.368 166.722 295.439 163.446Z" fill="#B2490F"/>
<path d="M266.224 419.546C249.697 367.626 227.327 303.683 210.632 251.756C190.097 247.916 140.847 238.066 137.342 237.898L131.664 243.898C148.027 297.148 172.734 355.588 191.099 408.343C197.777 409.696 249.529 417.043 266.224 419.546Z" fill="#FF465A"/>
<path d="M260.549 425.553C244.022 373.633 221.649 309.693 204.954 257.771C184.422 253.931 135.172 244.081 131.664 243.913C149.194 300.843 165.889 357.941 185.414 414.201C192.099 415.703 243.854 423.051 260.549 425.553Z" fill="#D70A32"/>
<path d="M165.053 282.646C164.553 280.811 164.053 278.806 163.553 276.971C162.053 271.796 160.215 263.614 156.04 259.941C155.057 259.083 153.813 258.584 152.51 258.523C151.206 258.463 149.921 258.845 148.863 259.609C145.188 263.109 148.028 269.959 149.195 273.966C152.195 283.314 154.038 289.994 156.875 299.844C157.875 303.181 159.875 307.844 164.055 308.344C167.225 308.679 168.228 306.174 168.555 303.344C168.58 300.828 168.355 298.315 167.885 295.844C167.058 291.329 166.223 286.989 165.053 282.646Z" fill="black"/>
<path d="M294.106 314.536C315.976 305.186 331.836 298.176 336.008 227.891C349.993 221.683 365.49 219.71 380.583 222.213C380.416 235.236 380.751 248.426 384.083 260.946C387.416 273.466 393.431 298.176 413.466 306.356C386.418 326.223 356.368 328.726 333.163 362.451C325.501 333.401 307.793 331.731 294.106 314.536Z" fill="#E57B23"/>
<path d="M304.457 321.213C307.431 324.634 310.668 327.816 314.139 330.731C317.908 334.065 321.99 337.027 326.327 339.578C327.327 335.738 328.327 331.898 329.499 328.058C326.855 326.876 324.342 325.421 321.999 323.718C315.999 319.218 309.812 314.871 303.969 310.028C301.969 311.028 299.969 312.028 297.792 312.866C299.949 315.706 302.119 318.543 304.457 321.213ZM359.382 335.738C364.057 333.401 368.564 331.063 372.904 328.393C384.592 320.378 395.609 311.531 406.797 302.851C404.981 301.585 403.305 300.129 401.797 298.508C400.462 299.508 399.127 300.346 397.957 301.348C393.457 304.686 389.109 307.848 384.434 310.863C379.934 313.701 375.419 316.206 370.577 318.711C365.904 321.046 361.062 323.051 356.387 325.211C352.617 327.236 348.644 328.86 344.534 330.053C344.534 334.053 344.702 338.066 344.867 342.073C349.699 340.256 354.542 338.076 359.382 335.738Z" fill="#B2490F"/>
<path d="M354.373 256.939C348.734 259.559 342.558 260.817 336.343 260.611C334.522 260.54 332.745 260.025 331.168 259.111C332.503 249.596 335.168 240.581 335.84 227.894C349.825 221.687 365.322 219.713 380.415 222.216C380.415 227.216 380.415 232.234 380.75 237.241C373.411 245.557 364.43 252.264 354.373 256.939Z" fill="black"/>
<path d="M286.75 187.156C286.956 192.401 287.74 197.607 289.087 202.681C292.76 216.371 301.107 229.726 313.462 237.073C337.837 251.596 371.392 245.253 392.93 228.223C411.127 214.033 420.31 193.166 428.155 171.973C434 156.278 439.175 138.583 437.672 121.723C436.002 102.523 420.31 88.1657 404.95 78.3157C389.925 68.4682 371.56 60.7882 353.362 61.9557C344.687 62.2866 336.36 65.4534 329.657 70.9707C310.79 87.3332 298.27 116.048 292.595 139.253C289.762 154.933 286.09 171.296 286.75 187.156Z" fill="#E57B23"/>
<path d="M440.017 121.875C438.347 102.675 421.317 87.1495 406.125 77.1245C391.1 67.2745 372.067 59.427 353.875 60.597C344.727 61.1588 335.978 64.5414 328.832 70.2795C310.635 86.1395 298.78 112.53 293.437 137.56C296.193 132.068 299.316 126.769 302.787 121.7C307.462 114.7 311.802 107.51 316.812 100.832C321.561 93.8595 327.362 87.6644 334.007 82.467C336.866 80.3009 340.088 78.6612 343.522 77.6245C346.591 76.9547 349.749 76.7858 352.872 77.1245C358.372 77.6245 364.892 79.7945 366.73 85.3045C374.73 80.4645 385.927 84.4695 393.44 88.6445C401.469 92.7429 407.923 99.3733 411.805 107.51C415.156 115.756 416.473 124.689 415.645 133.552C415.145 143.905 413.145 154.087 412.472 164.605C411.878 173.916 412.721 183.264 414.972 192.32C416.831 192.147 418.671 191.813 420.472 191.32C423.312 185.142 426.972 178.632 429.487 172.287C435.175 156.265 441.352 138.737 440.017 121.875Z" fill="black"/>
<path d="M349.731 125.582C350.479 122.919 349.43 120.296 347.388 119.723C345.346 119.149 343.085 120.843 342.337 123.505C341.589 126.168 342.638 128.791 344.68 129.365C346.722 129.938 348.983 128.245 349.731 125.582Z" fill="#D70A32"/>
<path d="M352.371 154.602C357.213 149.602 362.056 144.585 369.401 143.917C382.756 142.08 392.606 154.602 390.103 167.122C380.47 165.164 371.069 162.199 362.056 158.275L352.371 154.602ZM296.278 136.57C301.118 131.57 305.961 126.555 313.306 125.887C326.661 124.05 336.511 136.57 334.008 149.092C324.376 147.137 314.975 144.175 305.961 140.257" fill="#B2490F"/>
<path d="M390.099 167.12C388.862 163.374 386.794 159.956 384.049 157.122C381.304 154.288 377.954 152.111 374.249 150.755C370.554 149.46 366.588 149.133 362.73 149.805C358.872 150.477 355.251 152.126 352.211 154.595C352.211 154.595 355.884 160.938 368.071 165.278C375.015 168.284 382.753 168.932 390.099 167.12ZM333.836 148.923C332.598 145.176 330.528 141.758 327.781 138.925C325.035 136.092 321.683 133.917 317.976 132.563C314.281 131.267 310.315 130.94 306.458 131.612C302.6 132.284 298.978 133.934 295.939 136.403C295.939 136.403 299.611 142.745 311.799 147.088C324.654 152.095 333.836 148.923 333.836 148.923Z" fill="white"/>
<path d="M371.067 160.94C371.936 157.54 373.283 154.28 375.067 151.258C374.764 151.072 374.422 150.958 374.067 150.923C370.372 149.629 366.406 149.302 362.549 149.975C358.691 150.647 355.07 152.295 352.03 154.763C352.03 154.763 355.702 161.108 367.89 165.448C368.529 165.746 369.2 165.97 369.89 166.115C370.185 164.37 370.578 162.642 371.067 160.94ZM314.305 139.57C315.148 137.276 316.269 135.093 317.642 133.07C317.81 132.903 317.81 132.738 317.977 132.738C314.282 131.443 310.317 131.116 306.459 131.787C302.601 132.459 298.98 134.107 295.94 136.575C295.94 136.575 299.612 142.92 311.8 147.26C312.135 147.428 312.3 147.428 312.635 147.595C312.917 144.87 313.476 142.181 314.305 139.57ZM40.6774 258.94C35.24 254.623 30.5571 249.432 26.8199 243.58C22.8802 237.492 21.0611 230.273 21.6449 223.045L26.3199 223.545C25.833 229.779 27.4146 235.999 30.8199 241.243C34.3746 246.686 38.7691 251.532 43.8399 255.6L40.6774 258.94ZM23.3149 255.768C16.9059 249.042 13.2175 240.18 12.9624 230.893L17.6374 230.725C17.8635 238.856 21.1417 246.604 26.8199 252.428L23.3149 255.768ZM107.622 229.39C105.105 213.056 98.7548 197.549 89.0924 184.14L92.9324 181.468C102.971 195.499 109.601 211.677 112.297 228.718L107.622 229.39ZM112.63 210.358C111.464 203.49 108.969 196.915 105.285 191.003L109.285 188.503C113.261 194.944 115.976 202.082 117.285 209.538L112.63 210.358ZM333.17 123.378C328.327 120.705 323.82 117.535 318.812 115.363C313.844 112.933 308.24 112.116 302.785 113.028C304.509 110.793 306.786 109.047 309.392 107.964C311.998 106.88 314.842 106.496 317.642 106.85C323.274 107.501 328.721 109.26 333.67 112.025C336.018 112.978 338.212 114.272 340.182 115.865C338 118.703 335.5 120.373 333.17 123.378ZM400.282 155.933C398.282 146.083 391.602 141.743 384.59 138.738C377.606 136.079 370.193 134.723 362.72 134.738C363.387 131.065 364.22 127.393 365.057 123.718C372.53 124.613 379.773 126.877 386.425 130.398C390.6 132.568 395.775 136.073 397.945 140.748C400.115 145.423 400.282 148.42 400.282 155.933Z" fill="black"/>
<path d="M351.701 200.505C346.701 206.18 343.688 209.353 336.343 211.19C332.97 212.104 329.437 212.275 325.991 211.69C324.266 211.363 322.624 210.692 321.164 209.717C319.703 208.742 318.454 207.483 317.491 206.015C316.565 204.545 316.06 202.85 316.031 201.113C316.001 199.377 316.448 197.665 317.323 196.165C319.056 197.431 321.054 198.286 323.166 198.665C332.443 201.276 342.166 201.903 351.701 200.505Z" fill="#B2490F"/>
<path d="M357.211 198.672C350.635 199.565 343.943 198.461 338.001 195.505C334.001 193.332 330.501 190.162 326.649 187.825C322.476 185.487 312.961 182.647 310.456 188.992C310.222 189.702 310.13 190.451 310.187 191.196C310.244 191.941 310.449 192.667 310.789 193.332C314.789 201.347 329.821 203.017 337.501 203.85C344.453 204.277 351.358 202.464 357.201 198.675" fill="black"/>
<path d="M327.331 175.466C322.153 173.466 316.978 171.626 313.306 167.466C321.803 159.134 329.882 150.386 337.513 141.253C334.341 152.928 331.671 163.946 327.331 175.466Z" fill="#B2490F"/>
<path d="M398.779 198.674C398.314 199.773 398.118 200.967 398.205 202.157C398.292 203.347 398.66 204.499 399.279 205.519C400.037 206.42 401.016 207.109 402.119 207.519C407.618 209.522 413.647 209.522 419.146 207.519C426.632 205.236 433.45 201.168 439.014 195.664C441.263 193.593 443.079 191.097 444.356 188.319C444.964 186.913 445.249 185.388 445.191 183.858C445.133 182.327 444.733 180.828 444.021 179.472C439.521 171.792 425.324 173.472 418.814 177.302C410.799 182.147 401.784 189.492 398.779 198.674Z" fill="#E57B23"/>
<path d="M407.465 195.505C412.121 195.305 416.757 196.22 420.987 198.175C420.292 196.305 420.175 194.269 420.652 192.332C421.652 188.492 425.652 187.157 429.167 186.487C432.682 185.817 436.345 185.655 439.852 185.152C428.667 179.14 414.142 184.982 407.465 195.505Z" fill="#B2490F"/>
<path d="M402.786 213.03C400.939 217.17 400.471 221.794 401.451 226.22C401.992 228.421 403.166 230.416 404.827 231.958C406.488 233.501 408.564 234.523 410.799 234.9C412.91 235.03 415.017 234.588 416.897 233.619C418.778 232.651 420.363 231.194 421.484 229.4C423.69 225.781 424.847 221.619 424.824 217.38C425.308 212.984 424.248 208.557 421.824 204.858C413.971 195.335 405.791 205.685 402.786 213.03Z" fill="#FFD340"/>
<path d="M459.045 352.601C460.099 345.693 460.657 338.718 460.715 331.731C460.772 324.673 458.868 317.738 455.215 311.698C449.03 302.506 401.115 264.286 391.6 247.756C390.6 265.286 383.252 281.648 375.07 297.173C366.725 312.533 357.207 327.558 351.365 343.923C341.515 371.638 342.517 402.188 347.025 431.238C343.525 409.536 354.87 389.166 367.225 370.968C379.58 352.938 394.437 336.078 402.117 315.543C398.445 332.738 388.092 346.428 380.412 362.121C370.23 382.991 366.222 408.033 375.07 429.401C373.07 413.208 379.07 397.013 386.422 382.488C393.775 367.963 403.285 354.776 411.3 340.586C418.477 327.896 424.155 313.873 425.322 299.348C432.157 303.554 437.567 309.721 440.847 317.046C444.836 326.521 447.04 336.652 447.347 346.928C448.015 357.113 447.68 367.463 448.847 377.648C450.51 393.314 455.338 408.479 463.037 422.223C455.875 400.006 456.207 375.973 459.045 352.601Z" fill="black"/>
<path d="M393.106 260.943C390.635 265.542 389.924 270.883 391.106 275.968C393.106 282.981 399.621 287.821 406.633 289.993C411.464 291.757 416.79 291.577 421.491 289.493C428.168 285.993 430.841 277.306 429.503 269.793C428.166 262.281 423.828 255.771 419.656 249.593C415.656 243.593 412.476 237.073 405.798 244.093C400.916 249.188 396.655 254.844 393.106 260.943Z" fill="#FFD340"/>
<path d="M368.731 494.507L362.231 490.007C342.863 476.053 324.964 460.167 308.808 442.594C292.948 425.399 278.256 406.699 270.076 384.497C265.236 371.474 272.748 341.424 233.181 320.054L238.501 335.907C231.156 335.407 223.808 328.727 218.133 324.219C203.608 312.534 195.763 280.312 174.883 288.494C184.733 304.519 193.581 321.549 203.598 337.409C194.583 330.732 188.238 321.549 180.561 313.534C172.883 305.519 165.701 294.169 152.846 298.844C155.686 303.684 158.188 309.529 161.026 314.369C158.026 311.369 156.353 309.194 150.343 311.869C155.034 327.682 163.582 342.082 175.218 353.772C167.371 346.092 154.348 338.079 145.166 346.927C162.863 358.279 174.716 373.472 187.738 388.497C197.294 399.674 208.169 409.653 220.126 418.214C225.957 421.713 231.976 424.89 238.156 427.729C244.333 430.902 250.846 433.229 256.353 437.247C260.431 440.491 264.128 444.187 267.373 448.264C279.058 462.122 288.908 477.147 300.428 491.337C305.271 497.182 313.783 498.684 321.298 499.684C337.343 501.852 352.368 492.337 368.731 494.507Z" fill="#E57B23"/>
<path d="M181.58 361.447L178.58 357.947C176.745 355.777 176.745 355.609 174.907 353.604C169.907 348.264 163.055 344.089 157.712 343.422C161.071 345.857 164.251 348.53 167.227 351.422C171.727 355.764 176.91 362.442 183.59 364.112C183.255 363.612 182.922 363.277 182.59 362.774C182.422 362.609 182.422 362.442 182.255 362.442C182.082 362.114 181.75 361.782 181.58 361.447ZM175.75 336.237C170.075 328.559 160.557 313.699 160.892 314.202C159.672 312.641 158.058 311.433 156.217 310.702C158.555 316.379 160.892 321.887 163.717 327.229C165.702 331.487 168.227 335.471 171.23 339.084C174.73 343.084 179.41 345.084 183.917 347.597C184.752 348.097 185.755 348.767 186.59 349.267C182.749 345.118 179.13 340.768 175.75 336.237Z" fill="#B2490F"/>
<path d="M69.0548 109.357C69.0253 117.021 70.2662 124.638 72.7273 131.897C74.6393 138.434 78.1381 144.398 82.9123 149.257C89.9248 155.757 100.107 158.272 109.79 157.769C119.561 156.94 129.139 154.573 138.172 150.757C140.631 153.838 143.795 156.282 147.399 157.88C151.002 159.479 154.938 160.185 158.872 159.939C156.682 159.124 154.711 157.809 153.117 156.099C151.523 154.389 150.35 152.332 149.69 150.089C153.48 152.79 157.641 154.926 162.045 156.432C166.71 157.726 171.683 157.312 176.07 155.264C169.505 155.261 163.162 152.89 158.205 148.587C163.263 150.172 168.627 150.529 173.851 149.63C179.075 148.73 184.01 146.6 188.247 143.414C162.705 144.414 136.327 134.567 118.797 115.869C121.97 104.182 121.47 88.9891 130.985 81.4766C152.766 63.952 170.484 41.9088 182.915 16.8691C168.921 31.8977 153.36 45.3861 136.497 57.1041C127.815 63.1041 118.8 68.6216 111.12 75.8016C103.44 82.9816 96.9348 92.0066 94.9323 102.347C93.2623 92.6616 83.4123 85.6516 73.8973 83.1466C69.8509 81.8459 65.5365 81.6159 61.3748 82.4791C59.2867 82.906 57.3382 83.8472 55.7059 85.2176C54.0736 86.5879 52.8092 88.344 52.0273 90.3266C51.3873 92.5851 51.375 94.9753 51.9917 97.2403C52.6084 99.5052 53.8307 101.559 55.5273 103.182C59.38 106.449 64.0621 108.586 69.0548 109.357Z" fill="#466DA3"/>
<path d="M182.583 16.5332C181.945 31.1949 177.702 45.4731 170.228 58.1032C177.648 56.8473 184.484 53.2843 189.763 47.9207C185.436 62.9665 176.502 76.2778 164.218 85.9832C171.191 87.4839 178.385 87.6536 185.421 86.4832C180.665 92.1564 174.813 96.8107 168.215 100.167C161.617 103.523 154.409 105.513 147.023 106.016C153.914 109.911 161.259 112.939 168.893 115.031C164.819 117.896 160.172 119.843 155.272 120.736C150.372 121.63 145.336 121.449 140.513 120.206C144.808 123.18 149.993 124.592 155.203 124.206C147.779 129.937 139.423 134.346 130.501 137.238C123.88 134.028 118.318 128.987 114.473 122.713C115.305 112.812 117.148 103.022 119.973 93.4957C120.948 90.1568 122.353 86.9584 124.151 83.9807C126.96 80.0055 130.334 76.4622 134.168 73.4632C152.198 57.7707 169.393 36.2332 182.583 16.5332ZM75.5682 89.6557C75.1474 88.1967 74.2739 86.9091 73.0736 85.9789C71.8734 85.0487 70.4086 84.5241 68.8907 84.4807C65.831 84.4757 62.8924 85.6756 60.7107 87.8207C65.8857 85.3157 70.5607 86.3182 75.5682 89.6557Z" fill="#17447D"/>
<path d="M54.0329 98.6731C47.0329 97.5031 42.0129 92.3281 37.0029 87.3206C42.437 88.4888 48.0382 88.6582 53.5329 87.8206C54.7022 89.4688 55.2351 91.4848 55.0329 93.4956C54.958 95.2614 54.621 97.0063 54.0329 98.6731Z" fill="#D70A32"/>
</g>
<defs>
<clipPath id="clip0_635_318">
<rect width="500" height="500" fill="white"/>
</clipPath>
</defs>
</svg>
