<svg width="500" height="500" viewBox="0 0 500 500" fill="none" xmlns="http://www.w3.org/2000/svg">
<g clip-path="url(#clip0_635_278)">
<path d="M257.982 117.569C259.747 117.289 261.553 117.684 263.039 118.677C264.352 120.035 265.088 121.848 265.094 123.737C265.002 130.004 263.198 136.126 259.877 141.442C255.452 149.504 249.444 157.409 240.907 160.889C239.687 161.509 238.286 161.676 236.954 161.362C236.159 160.971 235.47 160.393 234.947 159.677C234.425 158.961 234.084 158.128 233.954 157.252C231.742 148.082 237.274 138.279 241.069 130.217C242.548 126.822 244.885 123.87 247.85 121.653C250.816 119.435 254.307 118.028 257.982 117.569Z" fill="#F7846C"/>
<path d="M260.67 123.578C256.127 128.285 252.05 133.421 248.495 138.913C251.025 137.965 253.397 137.018 255.925 136.068C252.402 144.603 245.959 151.608 237.747 155.83C238.222 155.673 239.802 146.503 240.277 145.238C241.156 142.766 242.268 140.384 243.597 138.123C248.455 132.374 254.223 127.461 260.67 123.578Z" fill="#DD4040"/>
<path d="M149.052 42.7905C165.97 43.738 179.882 55.753 195.052 63.0255C202.239 66.3434 209.696 69.0407 217.342 71.0881C227.496 74.3849 238.007 76.4546 248.652 77.2531C259.367 77.9725 270.064 75.614 279.482 70.4556C284.7 67.293 289.6 62.393 290.55 56.3855C291.497 49.4305 286.755 42.473 280.272 39.4705C273.636 36.8091 266.239 36.7519 259.562 39.3105C263.909 35.5186 267.595 31.0308 270.47 26.0305C271.666 24.2305 272.424 22.1758 272.685 20.0305C273 15.2805 269.365 11.178 265.252 8.64804C254.03 1.52554 239.8 2.47554 226.837 4.53054C213.872 6.75304 200.435 9.90554 187.63 7.06054C179.565 5.16304 171.977 0.893041 163.597 0.103041C156.113 -0.513746 148.684 1.81178 142.887 6.58554C137.11 11.4344 133.475 18.3637 132.77 25.873C126.308 26.8204 120.192 29.3912 114.994 33.345C109.796 37.2987 105.686 42.5063 103.047 48.4805C101.257 53.3208 100.089 58.3686 99.5699 63.503C98.937 72.2416 98.937 81.0145 99.5699 89.7531C100.517 109.991 101.467 130.386 106.842 149.831C108.265 154.888 110.162 160.266 114.905 162.636C119.655 165.166 125.812 163.268 129.765 159.473C133.367 155.409 135.919 150.524 137.197 145.246C145.892 115.681 142.412 83.903 145.892 53.233C146.164 49.562 147.243 45.9963 149.052 42.7905Z" fill="black"/>
<path d="M174.821 195.353C174.188 208.476 171.821 228.081 186.836 239.463C161.858 288.463 118.856 272.663 118.856 234.563C132.606 227.763 134.666 190.296 133.558 177.491C147.628 190.453 159.011 199.938 174.821 195.353Z" fill="#F7846C"/>
<path d="M133.715 189.659C139.408 199.302 145.415 209.422 155.375 214.954C157.724 216.321 160.349 217.144 163.058 217.363C165.767 217.582 168.49 217.191 171.028 216.219C172.163 215.756 173.272 215.228 174.348 214.639C173.967 208.211 174.073 201.762 174.663 195.349C158.853 199.934 147.47 190.599 133.558 177.644C133.865 181.642 133.917 185.655 133.715 189.659Z" fill="black"/>
<path d="M181.302 226.023C188.574 232.663 200.114 230.448 209.127 226.813C231.102 217.801 251.022 202.151 274.579 199.313C278.228 226.066 286.69 251.937 299.557 275.673C291.494 289.746 277.582 299.231 270.784 313.923C266.199 323.568 265.724 334.633 265.724 345.386C265.882 391.548 272.682 436.448 276.634 483.561C248.019 475.971 211.182 478.658 181.934 484.033C152.687 489.408 123.914 497.156 94.3494 499.533C83.4419 500.323 72.2169 500.481 61.6244 497.161C63.6794 469.969 64.1519 432.501 60.5169 405.623C43.7669 409.576 37.4344 408.471 20.2019 408.786C20.9919 401.988 24.6294 382.701 25.1044 377.008C26.2094 365.311 27.1594 353.758 28.8969 342.228C30.6469 330.846 33.6469 319.778 36.1694 308.553C38.2244 299.068 40.7544 289.423 45.9719 281.203C49.6982 275.713 54.1078 270.719 59.0944 266.341C70.7919 256.066 84.7044 248.636 98.4594 241.363C106.364 237.093 114.269 232.983 122.017 228.716C127.707 236.466 133.242 245.156 141.462 250.058C149.682 254.808 160.592 256.223 168.812 251.323C177.824 245.943 180.194 236.456 181.302 226.023Z" fill="#466DA3"/>
<path d="M86.2886 394.709C97.3443 389.713 107.329 382.626 115.694 373.839C116.529 370.094 117.059 366.287 117.276 362.456C117.434 356.456 116.484 350.126 111.109 346.646C103.204 341.431 92.6086 348.396 85.9711 352.814C78.3836 357.871 71.7436 364.511 63.6811 368.781C50.5586 375.736 35.2236 378.584 24.7886 389.806C24.1591 390.451 23.5744 391.139 23.0386 391.864C21.9311 398.344 20.8236 404.984 20.3486 408.464C34.2611 408.146 41.0611 408.779 51.9686 407.039C63.3636 402.929 75.2211 399.926 86.2886 394.709ZM119.646 249.576C130.396 260.801 146.996 273.606 163.596 268.231C172.924 265.231 179.724 256.849 184.149 248.469C187.103 242.653 189.486 236.565 191.264 230.289C187.571 230.101 184.054 228.65 181.304 226.179C180.196 236.614 177.984 246.099 168.971 251.316C160.751 256.216 150.001 254.794 141.621 250.051C133.401 245.301 127.871 236.454 122.176 228.709C117.591 231.079 113.006 233.609 108.426 235.981C111.857 240.759 115.606 245.301 119.646 249.576Z" fill="#17447D"/>
<path d="M250.548 78.5174C251.894 98.2179 250.939 118.008 247.703 137.487C244.703 154.877 240.431 177.327 227.941 190.45C219.508 198.778 208.316 203.727 196.481 204.362C178.098 205.927 159.676 201.845 143.676 192.662C123.746 180.965 118.381 164.047 115.218 142.072C112.879 127.646 111.717 113.053 111.746 98.4374C112.063 78.5174 115.383 51.9574 128.978 36.3074C135.235 29.1923 142.948 23.5053 151.595 19.6319C160.242 15.7585 169.621 13.7892 179.096 13.8574C202.968 14.1724 223.361 26.6624 237.433 44.8574C245.061 54.5254 249.629 66.25 250.553 78.5299" fill="#F7846C"/>
<path d="M238.531 44.2134C224.461 26.0309 204.066 12.9109 180.194 12.5934C170.37 12.7229 160.68 14.8825 151.731 18.9366C142.783 22.9906 134.769 28.8514 128.194 36.1509C114.596 51.8009 110.171 79.3109 109.854 99.2309C109.696 109.191 112.226 118.358 113.334 128.318C114.281 128.793 115.229 129.426 116.179 129.901C116.969 130.216 118.866 131.323 119.814 130.691C120.606 130.216 120.764 128.318 120.764 127.691C121.026 125.912 121.131 124.113 121.079 122.316C121.106 118.719 121.37 115.128 121.869 111.566C123.843 96.4134 128.1 81.6471 134.494 67.7684C141.926 52.1184 155.046 42.1584 171.964 51.0184C187.299 59.0809 200.104 73.1509 213.384 84.2184C224.926 93.8609 239.311 93.7034 236.784 84.3759C234.966 78.694 233.591 72.88 232.671 66.9859C239.449 71.8475 247.436 74.747 255.754 75.3659C266.664 75.6809 280.891 71.2534 287.056 61.6159C288.427 59.6082 289.212 57.2589 289.323 54.8306C289.435 52.4024 288.869 49.9909 287.689 47.8659" fill="black"/>
<path d="M107.789 103.814C103.679 101.124 98.4616 99.0638 94.1941 101.284C92.2084 102.444 90.6544 104.22 89.7666 106.341C86.7666 112.824 88.0166 120.571 90.8741 127.211C95.869 138.995 105.049 148.512 116.644 153.929C119.644 155.351 123.284 156.301 125.972 154.561C127.513 153.393 128.579 151.705 128.972 149.811C130.371 144.323 130.095 138.542 128.182 133.211C124.232 120.729 119.014 111.084 107.789 103.814Z" fill="#F7846C"/>
<path d="M120.594 143.505C118.844 123.113 108.894 116.005 99.2485 108.568C104.784 115.998 109.999 122.953 112.846 131.818C110.001 130.395 104.151 128.498 100.674 129.445C108.261 133.398 110.474 135.61 120.594 143.515V143.505ZM200.744 101.755C200.388 109.551 201.571 117.341 204.224 124.68C206.594 130.53 211.494 136.063 218.134 136.695C211.614 140.749 204.365 143.487 196.794 144.755C193.159 131.64 195.846 114.408 200.744 101.755Z" fill="#DD4040"/>
<path d="M207.073 115.038C212.448 108.873 222.091 101.126 230.156 102.076C238.221 103.026 245.656 107.451 248.493 119.623C248.493 119.623 242.493 124.208 228.731 123.103C220.888 122.546 213.371 119.746 207.073 115.038ZM145.098 109.503C150.476 103.338 160.118 95.5908 168.181 96.5408C176.243 97.4908 183.681 101.916 186.521 114.088C186.521 114.088 180.521 118.673 166.758 117.566C158.925 116.964 151.419 114.17 145.098 109.503Z" fill="white"/>
<path d="M238.061 120.418C238.259 115.644 239.443 110.963 241.538 106.668C238.312 103.97 234.343 102.314 230.156 101.918C222.091 100.968 212.448 108.873 207.073 114.881C213.329 119.664 220.87 122.472 228.731 122.943C231.784 123.221 234.859 123.168 237.901 122.786C238.033 122.004 238.087 121.211 238.061 120.418ZM178.616 100.338C175.6 98.1601 172.046 96.8486 168.338 96.5458C160.276 95.5958 150.633 103.501 145.258 109.508C151.514 114.292 159.055 117.099 166.916 117.571C170.022 117.845 173.148 117.792 176.243 117.413C175.651 111.614 176.465 105.757 178.616 100.338Z" fill="black"/>
<path d="M158.538 154.09C158.538 166.422 176.403 177.172 201.065 170.217" stroke="black" stroke-width="1.90043" stroke-linejoin="round"/>
<path d="M194.896 73.9322C193.791 79.7822 193.316 84.0522 188.256 85.4747C180.826 87.5297 167.706 81.9972 160.116 81.0472C152.993 80.2522 145.888 83.2522 139.243 86.2647C143.353 80.8897 146.198 73.7647 152.838 72.1947C155.172 71.671 157.564 71.4583 159.953 71.5622C170.551 71.5622 184.463 73.1422 194.896 73.9322ZM252.761 94.9597C251.924 93.2563 250.738 91.7479 249.281 90.5322C246.436 88.1622 242.326 88.1622 238.848 88.1622C234.578 88.1622 230.311 88.1622 226.041 88.3197C224.986 88.4706 223.91 88.378 222.897 88.0491C221.883 87.7202 220.958 87.1637 220.193 86.4222C219.782 85.6174 219.463 84.7687 219.243 83.8922C218.768 81.5222 218.296 79.3097 217.821 76.9372C226.694 76.4073 235.598 76.8314 244.381 78.2022C246.072 78.329 247.679 78.9939 248.966 80.0997C250.193 81.3193 251.067 82.8483 251.496 84.5247C252.054 86.4789 252.372 88.4937 252.443 90.5247C252.725 91.9851 252.832 93.474 252.761 94.9597Z" fill="black"/>
<path d="M326.118 196.615C321.533 194.087 318.213 189.502 314.736 185.55C310.626 180.965 306.516 174.167 306.516 167.842C306.516 165.63 307.781 164.047 309.993 164.997C314.578 167.052 323.431 175.43 328.333 175.905C333.083 176.38 335.763 168.79 337.186 164.207C338.171 160.511 339.494 156.912 341.138 153.457C342.066 152.616 343.18 152.006 344.389 151.676C345.597 151.346 346.866 151.307 348.093 151.56C350.781 152.985 352.843 156.62 356.316 154.407C361.848 151.087 366.908 160.407 374.181 157.885C376.393 157.095 375.446 161.047 377.501 162.152C379.556 163.257 381.293 158.992 381.926 161.362C382.716 164.84 386.676 165.947 389.676 166.112C390.941 166.112 389.518 172.912 389.833 174.177C390.607 178.097 390.585 182.131 389.769 186.042C388.953 189.953 387.36 193.66 385.083 196.942C382.761 200.196 379.821 202.959 376.429 205.075C373.038 207.191 369.263 208.617 365.321 209.272C358.339 210.157 351.247 209.176 344.768 206.427C338.236 203.795 331.986 200.511 326.113 196.625" fill="#DD4040"/>
<path d="M434.413 364.505C455.44 314.072 468.563 262.217 479.788 208.622C414.81 188.872 334.973 169.575 267.623 159.772C255.139 212.17 235.397 262.568 208.97 309.505C224.148 308.872 238.06 313.617 252.603 318.202C307.62 335.425 377.34 355.347 434.413 364.505Z" fill="#14D29B"/>
<path d="M430.778 357.254C451.488 307.454 464.611 256.389 475.678 203.754C412.281 184.624 334.498 165.969 268.888 156.484C256.401 208.105 236.934 257.783 211.026 304.144C225.886 303.512 239.323 308.097 253.553 312.524C307.306 329.102 375.128 348.389 430.778 357.254Z" fill="#FDB849"/>
<path d="M427.458 349.811C447.152 301.773 462.188 251.955 472.358 201.043C404.107 180.423 334.545 164.419 264.145 153.141C252.416 203.035 233.624 251 208.338 295.583C223.04 295.111 236.635 299.696 250.708 304.121C304.3 321.038 371.965 340.483 427.458 349.811Z" fill="#FFD340"/>
<path d="M361.06 196.147C360.902 197.095 360.585 198.202 359.477 198.36C352.207 199.15 349.36 159.942 355.21 155.2C360.427 151.09 364.695 157.572 365.012 162.95C365.96 174.172 362.957 185.712 361.06 196.147Z" fill="#F7846C"/>
<path d="M365.954 196.617C365.482 197.409 364.689 198.367 363.584 198.199C355.679 197.092 366.429 160.889 374.334 158.042C381.289 155.512 383.504 162.469 381.922 167.542C378.602 177.804 371.492 187.607 365.954 196.617ZM379.077 193.457C378.602 193.929 378.129 194.562 377.327 194.247C372.577 192.349 384.284 167.054 389.502 166.104C394.087 165.314 394.559 170.689 392.979 174.169C389.512 181.439 383.819 187.607 379.077 193.457Z" fill="#F7846C"/>
<path d="M454.65 253.375L455.125 251.32C446.903 249.738 438.05 247.683 428.723 245.32C431.913 235.485 434.864 225.575 437.575 215.598L435.52 214.965C432.675 224.925 429.828 234.885 426.668 244.688C417.34 242.315 407.695 239.628 397.735 236.938C400.61 227.095 403.246 217.185 405.64 207.215L403.585 206.743C401.213 216.703 398.525 226.493 395.68 236.305C392.518 235.358 389.358 234.555 386.195 233.618C380.028 231.868 373.863 230.14 367.855 228.558C370.7 217.968 373.073 208.165 375.128 199.628L373.073 199.153C371.018 207.69 368.645 217.493 365.8 227.928C357.263 225.555 348.885 223.343 340.505 221.128C343.35 212.276 345.879 203.423 348.093 194.568L346.038 194.095C343.825 203.095 341.138 211.958 338.45 220.655C329.123 218.283 319.95 216.07 311.1 214.173C314.42 204.528 317.74 194.885 320.9 185.398L318.845 184.765C315.683 194.41 312.363 204.055 309.043 213.855C300.348 212.118 291.813 210.535 283.59 209.43C286.753 200.103 289.755 190.775 292.285 181.288L290.23 180.655C287.7 190.3 284.698 199.785 281.378 209.113C274.298 208.163 267.175 207.579 260.035 207.363V209.575C266.515 209.733 273.473 210.365 280.588 211.155C277.588 219.535 274.42 227.755 271.088 235.978C264.282 234.833 257.422 234.041 250.535 233.605L250.378 235.818C257.052 236.2 263.702 236.939 270.298 238.033C266.978 245.938 263.343 253.683 259.548 261.283C253.065 260.018 246.583 258.91 240.26 258.12L239.943 260.333C245.943 260.965 252.118 262.083 258.443 263.333C254.333 271.553 249.906 279.615 245.163 287.52L247.06 288.628C251.81 280.408 256.388 272.185 260.658 263.808C269.353 265.703 278.363 267.918 287.375 270.448C283.898 278.668 280.103 286.73 276.15 294.635L278.048 295.583C282 287.52 285.798 279.3 289.43 271.083C298.125 273.61 306.82 276.298 315.515 278.985C311.689 287.139 307.577 295.154 303.185 303.018L305.083 304.123C309.508 296.06 313.618 287.998 317.583 279.623C321.378 280.888 325.015 281.995 328.65 283.26L346.198 288.95C343.198 296.7 339.875 304.45 336.398 312.2L338.295 313.15C341.773 305.4 345.093 297.498 348.095 289.753C357.095 292.598 365.96 295.285 374.973 297.658C371.973 305.088 368.973 312.518 365.803 319.948L367.858 320.738C371.063 313.242 374.173 305.706 377.185 298.13C386.67 300.66 395.998 302.88 405.168 304.613C401.69 313.15 398.055 321.53 394.418 329.908L396.473 330.858C400.257 322.309 403.946 313.718 407.54 305.088C416.115 306.606 424.773 307.608 433.468 308.088L433.625 305.875C425.137 305.525 416.684 304.574 408.33 303.03C411.666 294.625 414.933 286.193 418.133 277.735C427.058 279.735 436.082 281.265 445.168 282.318L445.325 280.105C436.399 279.037 427.533 277.506 418.765 275.52C422.085 266.193 425.405 256.865 428.408 247.538C437.26 249.58 446.27 251.793 454.65 253.375ZM385.245 235.668C388.408 236.618 391.57 237.418 394.745 238.355C391.907 247.945 388.903 257.485 385.733 266.97C376.733 264.443 367.553 261.595 358.54 258.908C361.703 249.105 364.39 239.62 366.92 230.61C373.073 232.19 379.245 233.93 385.245 235.668ZM364.853 229.978C362.323 238.978 359.635 248.478 356.473 258.275C355.525 257.96 354.723 257.803 353.785 257.485C345.723 255.113 337.818 252.585 329.755 250.213C333.233 241.36 336.553 232.348 339.398 223.178C347.778 225.393 356.315 227.605 364.853 229.978ZM337.353 222.705C334.376 231.799 331.16 240.813 327.71 249.738C318.54 247.05 309.528 244.523 300.518 242.308C303.838 233.613 306.84 224.918 309.845 216.38C318.845 218.12 328.015 220.333 337.343 222.705H337.353ZM282.335 211.32C290.558 212.428 298.935 213.85 307.79 215.748C304.79 224.443 301.623 232.98 298.463 241.675C289.765 239.463 281.07 237.723 272.85 236.3C276.169 228.035 279.328 219.707 282.325 211.32H282.335ZM260.993 261.595C264.788 254.008 268.423 246.095 271.743 238.345C280.123 239.768 288.66 241.665 297.513 243.72C294.35 251.943 291.19 260.163 287.71 268.22C278.873 265.748 269.964 263.539 260.995 261.595H260.993ZM289.765 268.868C293.245 260.648 296.565 252.425 299.568 244.205C308.423 246.418 317.59 248.955 326.76 251.635C323.421 260.192 319.783 268.629 315.853 276.93C307.305 274.085 298.453 271.398 289.745 268.868H289.765ZM328.815 281.043C325.18 279.935 321.543 278.67 317.908 277.563C321.86 269.185 325.495 260.813 328.815 252.268C336.878 254.64 344.943 257.018 353.005 259.54C353.953 259.858 354.755 260.015 355.693 260.33C352.845 269.025 349.843 277.88 346.365 286.733C340.663 284.835 334.655 282.938 328.805 281.043H328.815ZM348.578 287.365C351.873 278.631 354.983 269.828 357.905 260.963C366.905 263.65 376.085 266.498 385.098 269.025C382.098 277.88 378.933 286.575 375.455 295.428C366.456 292.864 357.492 290.177 348.568 287.365H348.578ZM405.65 302.225C396.48 300.475 386.995 298.275 377.668 295.745C380.988 287.05 384.308 278.353 387.31 269.495C396.955 272.183 406.44 274.713 415.61 276.768C412.28 285.31 408.96 293.848 405.64 302.225H405.65ZM416.085 274.725C406.915 272.67 397.43 270.14 387.785 267.453C390.955 257.967 393.96 248.427 396.798 238.838C406.403 241.561 416.047 244.145 425.728 246.588C422.715 256.063 419.553 265.548 416.075 274.718L416.085 274.725Z" fill="white"/>
<path d="M308.571 187.762L301.298 192.979L299.083 185.864L295.291 186.972L297.821 195.349L288.808 201.674L291.021 204.994L299.083 199.462L301.456 207.049L305.251 205.942L302.563 196.932L310.941 191.082L308.571 187.762ZM338.451 198.669L331.496 202.149C330.706 199.302 329.916 196.614 329.126 193.769L325.331 194.717C326.099 197.847 326.943 200.958 327.861 204.047L318.533 208.797L320.283 212.274L329.138 207.847C330.086 210.534 331.036 213.382 331.983 216.069L335.778 214.644C334.671 211.799 333.723 208.954 332.778 206.109L340.208 202.314L338.451 198.669ZM370.543 204.204C366.72 205.989 362.926 207.833 359.161 209.737L355.526 200.409L351.888 201.832L355.683 211.477C352.996 212.899 350.308 214.164 347.778 215.744L349.676 219.222C352.119 217.843 354.597 216.525 357.106 215.269L360.426 223.492L364.061 222.069L360.583 213.374C364.378 211.477 368.333 209.579 372.126 207.682L370.543 204.204ZM399.633 209.737C395.056 211.803 390.522 213.964 386.036 216.219C384.64 212.468 383.217 208.726 381.768 204.994L378.133 206.417C379.556 210.212 381.133 214.167 382.558 218.117C380.188 219.382 377.658 220.647 375.286 221.909L377.183 225.389C379.396 224.124 381.611 223.017 383.823 221.909C384.773 224.439 385.573 226.969 386.511 229.499L390.306 228.234C389.356 225.547 388.408 222.702 387.461 220.014C392.035 217.672 396.675 215.458 401.373 213.374L399.633 209.737ZM430.621 222.542L429.356 218.749C425.561 220.014 421.766 221.437 417.973 222.702C417.181 219.539 416.391 216.377 415.286 213.202L411.491 214.467C412.459 217.661 413.355 220.877 414.178 224.112C410.858 225.377 407.381 226.642 404.061 227.907L405.483 231.542C408.646 230.277 411.806 229.169 414.968 227.907C415.918 231.857 416.548 235.809 417.181 239.922L421.133 239.289C420.5 235.019 419.71 230.75 418.763 226.482C422.716 225.229 426.668 223.807 430.621 222.542ZM458.918 229.024L456.863 225.547L448.326 230.764C447.221 227.444 446.113 224.282 445.166 220.962L441.371 222.227C442.478 225.704 443.741 229.342 444.848 232.819L429.671 242.002L431.726 245.479L446.113 236.784C447.061 239.472 447.863 242.002 448.801 244.689L452.596 243.424C451.646 240.579 450.541 237.732 449.596 234.729L458.918 229.024ZM271.418 213.214C268.578 214.489 265.783 215.86 263.038 217.327C262.078 215.48 261.023 213.685 259.876 211.949L256.398 214.007C257.459 215.71 258.459 217.449 259.398 219.222C256.236 220.972 253.073 222.859 249.898 224.757L252.113 228.077C255.113 226.179 258.278 224.282 261.283 222.702C262.388 224.757 263.338 226.812 264.443 228.867L268.081 227.117C267.131 224.904 266.026 222.849 264.918 220.794C267.606 219.372 270.293 218.107 272.981 216.842L271.418 213.214ZM302.721 217.799L292.761 223.174L289.283 214.954L285.646 216.534L289.283 225.072L278.533 230.764L280.431 234.242L290.708 228.709C291.635 231.166 292.855 233.501 294.343 235.664L297.496 233.294C296.193 231.32 295.131 229.196 294.333 226.969L294.176 226.654L304.453 221.119L302.721 217.799ZM375.603 268.549C372.537 268.537 369.515 267.818 366.773 266.447C364.031 265.076 361.642 263.09 359.793 260.644C357.839 258.018 356.631 254.912 356.297 251.656C355.963 248.399 356.515 245.113 357.896 242.144C359.654 238.859 362.244 236.093 365.407 234.124C368.57 232.154 372.194 231.049 375.918 230.919C379.643 230.68 383.36 231.504 386.635 233.295C389.91 235.087 392.609 237.771 394.418 241.037C395.954 243.948 396.622 247.239 396.342 250.519C396.062 253.798 394.846 256.928 392.838 259.537C390.941 262.119 388.498 264.25 385.683 265.78C382.869 267.31 379.751 268.201 376.553 268.389C376.254 268.52 375.928 268.575 375.603 268.549ZM376.076 235.032C373.06 235.072 370.109 235.913 367.526 237.469C364.942 239.025 362.819 241.24 361.373 243.887C360.339 246.21 359.94 248.766 360.218 251.293C360.496 253.821 361.441 256.229 362.956 258.272C364.538 260.3 366.585 261.919 368.923 262.993C371.261 264.066 373.823 264.562 376.393 264.439C378.998 264.246 381.531 263.497 383.821 262.243C386.112 260.988 388.108 259.257 389.673 257.167C391.262 255.187 392.242 252.789 392.495 250.263C392.748 247.737 392.261 245.192 391.096 242.937C389.536 240.389 387.317 238.309 384.673 236.917C382.03 235.526 379.059 234.875 376.076 235.032Z" fill="black"/>
<path d="M280.269 170.216C277.722 170.087 275.309 169.038 273.477 167.264C271.645 165.49 270.519 163.112 270.309 160.571C270.186 158.131 270.621 155.696 271.579 153.45C272.538 151.204 273.995 149.205 275.841 147.606C277.245 146.119 278.936 144.932 280.811 144.116C282.686 143.299 284.706 142.871 286.751 142.856C288.997 142.85 291.18 143.594 292.955 144.968C294.731 146.343 295.997 148.27 296.554 150.446L292.284 151.236C291.917 150.022 291.161 148.962 290.133 148.22C289.105 147.477 287.861 147.093 286.594 147.126C283.661 147.253 280.889 148.498 278.844 150.603C277.497 151.745 276.428 153.178 275.716 154.794C275.004 156.41 274.668 158.166 274.734 159.931C274.876 161.445 275.562 162.856 276.665 163.903C277.769 164.95 279.214 165.561 280.734 165.623L281.209 169.891C280.939 170.099 280.609 170.213 280.269 170.216ZM309.834 174.003C307.287 173.876 304.873 172.828 303.041 171.054C301.209 169.28 300.084 166.902 299.874 164.361C299.751 161.921 300.186 159.486 301.144 157.24C302.103 154.994 303.56 152.995 305.406 151.396C306.81 149.909 308.5 148.722 310.374 147.905C312.249 147.089 314.269 146.661 316.314 146.646C318.559 146.639 320.743 147.382 322.519 148.757C324.295 150.132 325.561 152.06 326.116 154.236L321.849 155.026C321.481 153.811 320.725 152.751 319.697 152.008C318.668 151.266 317.424 150.881 316.156 150.913C313.223 151.042 310.451 152.287 308.406 154.393C307.06 155.536 305.99 156.969 305.278 158.584C304.565 160.2 304.229 161.956 304.294 163.721C304.436 165.234 305.123 166.645 306.226 167.691C307.329 168.738 308.775 169.349 310.294 169.411L310.769 173.681C310.5 173.886 310.172 174 309.834 174.003ZM337.659 179.858C335.112 179.731 332.698 178.683 330.866 176.909C329.034 175.135 327.909 172.757 327.699 170.216C327.576 167.776 328.011 165.341 328.969 163.095C329.928 160.849 331.385 158.85 333.231 157.251C334.635 155.764 336.325 154.577 338.199 153.76C340.074 152.944 342.094 152.516 344.139 152.501L343.981 156.768C341.012 156.936 338.205 158.172 336.076 160.248C334.73 161.391 333.661 162.824 332.95 164.44C332.238 166.055 331.901 167.811 331.966 169.576C332.108 171.09 332.795 172.501 333.898 173.547C335.001 174.593 336.447 175.204 337.966 175.266L338.441 179.536C338.291 179.858 337.974 179.858 337.659 179.858ZM395.836 196.616C393.29 196.488 390.876 195.439 389.044 193.666C387.213 191.892 386.087 189.514 385.876 186.973C385.755 184.534 386.19 182.099 387.149 179.853C388.108 177.606 389.565 175.608 391.411 174.008C392.815 172.522 394.505 171.335 396.379 170.518C398.254 169.702 400.274 169.273 402.319 169.258C404.564 169.252 406.748 169.995 408.524 171.37C410.299 172.744 411.565 174.673 412.121 176.848L407.851 177.638C407.484 176.424 406.728 175.365 405.7 174.622C404.672 173.88 403.429 173.495 402.161 173.528C399.229 173.656 396.456 174.9 394.411 177.006C393.065 178.148 391.996 179.581 391.284 181.197C390.572 182.813 390.236 184.569 390.301 186.333C390.443 187.847 391.129 189.259 392.233 190.305C393.336 191.352 394.782 191.962 396.301 192.023L396.776 196.293C396.516 196.517 396.179 196.632 395.836 196.616ZM421.449 203.416C418.902 203.287 416.489 202.238 414.657 200.464C412.825 198.69 411.699 196.312 411.489 193.771C411.366 191.332 411.801 188.897 412.759 186.651C413.718 184.405 415.175 182.407 417.021 180.808C419.901 177.865 423.815 176.161 427.931 176.058C430.176 176.052 432.359 176.796 434.135 178.17C435.91 179.545 437.175 181.473 437.731 183.648L433.464 184.438C433.096 183.224 432.34 182.164 431.311 181.422C430.283 180.679 429.039 180.295 427.771 180.328C424.839 180.456 422.066 181.7 420.021 183.806C418.675 184.948 417.605 186.381 416.893 187.997C416.181 189.612 415.846 191.369 415.911 193.133C416.053 194.647 416.74 196.059 417.843 197.105C418.946 198.152 420.392 198.763 421.911 198.826L422.384 203.093C422.261 203.213 422.114 203.304 421.952 203.359C421.791 203.415 421.619 203.434 421.449 203.416ZM450.539 211.951C447.992 211.823 445.578 210.775 443.746 209.001C441.914 207.228 440.789 204.849 440.579 202.308C440.456 199.869 440.891 197.434 441.849 195.188C442.808 192.941 444.265 190.943 446.111 189.343C448.991 186.401 452.903 184.697 457.019 184.593C459.264 184.586 461.448 185.329 463.224 186.704C465 188.079 466.266 190.007 466.821 192.183L462.554 192.973C462.186 191.759 461.43 190.699 460.401 189.957C459.373 189.214 458.129 188.83 456.861 188.863H456.704C453.826 189.022 451.115 190.265 449.116 192.341C447.767 193.483 446.695 194.917 445.981 196.534C445.266 198.151 444.929 199.909 444.994 201.676C445.136 203.19 445.823 204.601 446.926 205.647C448.029 206.694 449.474 207.305 450.994 207.368L451.469 211.636C451.201 211.838 450.874 211.948 450.539 211.951Z" fill="white"/>
<path d="M344.773 193.138C344.458 194.088 344.141 195.193 343.036 195.193C335.763 195.351 336.396 155.986 342.718 151.876C348.253 148.238 351.888 155.038 351.888 160.413C351.413 171.638 347.461 182.863 344.773 193.138Z" fill="#F7846C"/>
<path d="M121.544 378.754C121.069 368.794 120.597 358.676 120.437 348.716C120.148 343.643 120.413 338.554 121.227 333.539C123.284 323.419 129.292 314.724 135.139 306.186C129.442 310.196 124.288 314.926 119.804 320.259C118.857 311.879 117.592 302.551 115.852 288.009C112.744 316.733 112.321 345.684 114.587 374.486" fill="#17447D"/>
<path d="M44.7059 388.229C36.1684 392.181 26.8409 396.134 21.9409 404.039C21.2985 404.916 20.8412 405.915 20.5966 406.975C20.3521 408.035 20.3255 409.133 20.5184 410.204C21.6234 413.841 26.5184 414.631 30.3184 414.474C52.0179 413.795 73.1855 407.591 91.8184 396.449C102.568 389.969 113.318 380.481 114.111 367.834C114.364 365.784 114.034 363.705 113.161 361.834C111.975 359.982 110.242 358.545 108.202 357.723C106.162 356.901 103.917 356.736 101.778 357.249C92.6084 359.146 83.2784 368.159 75.2184 372.749C65.1009 378.269 54.9934 383.486 44.7059 388.229Z" fill="black"/>
<path d="M316.002 294.001L333.077 310.918L271.734 384.431L245.964 364.986L316.002 294.001Z" fill="#D70A32"/>
<path d="M265.565 379.849L271.565 384.434L332.905 310.934L330.218 308.246C309.673 332.896 287.54 356.294 265.565 379.849Z" fill="#FF465A"/>
<path d="M333.075 310.921L344.772 281.042L315.995 294.004C316.15 296.17 316.765 298.277 317.8 300.186C318.834 302.094 320.265 303.76 321.995 305.072C325.242 307.769 329.016 309.761 333.075 310.921Z" fill="white"/>
<path d="M275.526 379.848C275.526 379.848 260.191 382.063 250.863 360.098C250.863 360.098 233.631 375.275 234.578 380.175C236.001 388.87 246.436 399.938 256.553 400.57C262.721 400.875 275.526 379.848 275.526 379.848Z" fill="#008C6E"/>
<path d="M267.622 391.233C271.889 385.698 275.527 379.848 275.527 379.848C275.527 379.848 260.192 382.063 250.864 360.098C250.864 360.098 246.114 364.365 241.694 369.098C243.274 382.063 254.817 388.545 267.622 391.233Z" fill="white"/>
<path d="M342.876 285.624C342.207 285.572 341.576 285.293 341.088 284.834C340.599 284.374 340.282 283.761 340.189 283.097C340.189 283.097 347.461 276.772 348.411 277.097C349.359 277.562 342.876 285.624 342.876 285.624Z" fill="black"/>
<path d="M291.654 372.253C291.182 371.305 290.549 370.503 290.232 369.88C287.387 365.298 284.857 360.395 281.854 355.968C289.604 356.76 293.869 363.718 301.774 364.348C304.302 364.665 308.097 363.24 307.149 360.87C306.955 360.493 306.686 360.159 306.361 359.887C306.035 359.616 305.658 359.412 305.252 359.288C303.197 358.34 300.982 357.233 298.927 356.288C301.514 356.923 304.168 357.242 306.832 357.235C308.254 357.235 310.309 356.603 310.152 355.18C310.152 354.39 309.519 353.915 308.887 353.43C300.349 346.315 293.237 333.035 284.699 325.93C289.599 323.085 298.769 326.248 303.199 331.78C306.677 336.208 304.622 344.585 307.949 349.17C308.361 349.782 308.933 350.268 309.602 350.577C310.271 350.885 311.012 351.004 311.744 350.92C313.799 350.763 314.272 350.13 314.589 348.233C315.833 341.222 315.399 334.016 313.324 327.205C311.427 320.883 307.632 314.705 301.624 312.028C296.092 309.658 289.609 310.763 283.759 312.188C267.159 316.298 210.404 334.635 232.379 360.248C234.102 362.625 236.358 364.565 238.967 365.911C241.576 367.257 244.464 367.972 247.399 367.998C256.047 368.29 264.583 365.977 271.899 361.358C272.692 360.883 277.749 365.94 278.224 366.415C280.122 368.165 282.019 370.368 283.757 372.265C285.022 373.53 290.239 378.115 292.294 375.903C292.919 375.253 292.13 373.208 291.654 372.253Z" fill="#F7846C"/>
<path d="M236.798 334.162C180.673 375.412 142.731 377.322 108.898 391.707C110.889 383.911 111.319 375.798 110.163 367.835C109.531 364.835 107.001 360.405 103.206 361.67C87.0809 367.52 76.9558 383.012 60.9958 389.17C62.1018 401.164 63.8435 413.09 66.2133 424.9C68.1083 433.9 69.8484 445.295 78.0684 451.777C81.5484 454.465 90.5684 451.145 97.0409 449.722C104.313 447.972 113.008 447.035 119.966 444.505C134.167 439.194 147.869 432.633 160.911 424.9C192.056 406.562 216.086 376.682 248.181 360.082C241.383 352.975 235.691 343.805 236.798 334.162Z" fill="#F7846C"/>
<path d="M84.8638 440.085C83.6757 439.26 82.2955 438.754 80.8557 438.616C79.4159 438.477 77.9647 438.711 76.6413 439.295C74.594 439.962 72.6309 440.864 70.7913 441.982C72.3514 445.81 74.8529 449.182 78.0638 451.785C79.9613 453.207 83.5988 452.892 87.5638 452.1C87.8663 447.832 88.0238 442.772 84.8638 440.085Z" fill="#DD4040"/>
</g>
<defs>
<clipPath id="clip0_635_278">
<rect width="500" height="500" fill="white"/>
</clipPath>
</defs>
</svg>
