<svg width="208" height="182" viewBox="0 0 208 182" fill="none" xmlns="http://www.w3.org/2000/svg">
<path fill-rule="evenodd" clip-rule="evenodd" d="M112.994 0.247636C137.999 2.56874 160.672 10.5917 180.233 30.2201C233.115 83.2018 207.572 139.766 128.129 150.413C81.8268 156.619 95.0473 172.716 110.242 176.5C116.404 178.014 116.523 179.982 110.661 181.394C84.2196 187.601 -7.78581 145.67 0.529375 75.4311C3.99902 45.9128 19.1339 25.7293 46.4723 14.0733C57.8384 9.22929 59.1544 11.5504 48.0874 17.0504C39.5928 21.2385 31.3374 27.4449 26.0133 33.6008C16.9803 44.0963 10.7588 58.5779 9.2633 72.7568C4.95615 114.082 32.7133 150.463 72.016 167.064C76.1437 168.78 90.6205 173.876 91.458 173.876C92.2357 173.876 76.1437 153.238 119.275 147.89C140.631 145.216 149.664 143.298 160.313 139.06C197.761 124.174 207.99 89.7109 185.976 52.7752C158.398 6.50452 117.062 1.96323 76.3232 8.62378C63.8803 10.6421 62.5643 7.8669 75.1268 4.688C89.4241 0.954059 103.303 -0.660621 112.994 0.247636Z" fill="black"/>
</svg>
