<svg width="190" height="190" viewBox="0 0 190 190" fill="none" xmlns="http://www.w3.org/2000/svg">
<path d="M58.3582 133.877C56.6853 134.511 54.7245 133.243 54.0329 131.397C53.6805 130.554 53.5089 129.646 53.529 128.732C53.5491 127.818 53.7606 126.918 54.1497 126.091C50.5972 127.498 46.8742 128.429 43.0775 128.86C41.8922 131.194 41.6048 133.883 42.27 136.415C42.5872 137.682 43.2441 138.838 44.17 139.76C44.6199 140.196 45.1741 140.51 45.7798 140.672C46.3854 140.833 47.0224 140.837 47.6299 140.682C52.13 139.298 54.3207 136.299 58.3582 133.877V133.877ZM98.7285 117.441C97.0565 118.133 95.1527 116.864 94.4031 115.076C94.0233 114.234 93.822 113.323 93.8121 112.4C93.8021 111.477 93.9836 110.562 94.3452 109.712C90.8868 111.229 87.241 112.277 83.5047 112.826C82.4133 115.258 82.2293 117.999 82.986 120.555C83.3328 121.82 84.0331 122.961 85.0048 123.843C85.4707 124.25 86.0327 124.533 86.6379 124.664C87.2431 124.795 87.8717 124.771 88.4647 124.592C92.7881 123.092 94.8648 119.978 98.7285 117.441V117.441Z" fill="black"/>
<path d="M103.053 104.235C77.6779 116.923 52.2493 129.841 25.7158 141.087C19.7754 142.76 13.8351 136.069 13.3734 131.687C10.6072 106.515 6.21508 81.5483 0.22442 56.9436C-0.237118 54.8497 0.0317989 52.6609 0.986477 50.741C1.94116 48.8211 3.5241 47.2857 5.47222 46.39C32.7515 36.701 60.6093 27.1848 89.5007 19.3416C93.7101 17.9575 102.073 22.8015 102.592 28.6849C104.552 50.3696 106.513 71.9963 108.878 93.5699C109.629 98.1213 106.975 102.85 103.053 104.235V104.235Z" fill="#17447D"/>
<path d="M107.321 107.695C80.5043 119.226 53.6867 131.051 25.7729 141.086C21.6784 142.239 18.0456 139.587 17.5839 135.204C14.8499 109.888 10.6131 84.758 4.89568 59.9457C4.43872 57.8449 4.71621 55.6509 5.68184 53.73C6.64746 51.8092 8.24277 50.2776 10.2014 49.3912C37.4227 39.8722 65.2207 30.5289 94.057 22.8007C98.2664 21.4707 102.132 24.1307 102.708 28.6261C106.111 51.5211 109.398 74.3021 113.204 96.9672C113.896 101.523 111.244 106.31 107.321 107.695V107.695Z" fill="#466DA3"/>
<path d="M109.225 115.308C81.8308 125.342 54.2637 135.376 25.7732 143.797C20.0637 146.047 20.8142 153.202 23.4087 154.525C38.1726 162.253 53.1674 170.038 68.6819 177.363C71.3922 178.631 76.9288 178.227 80.9074 176.44C108.014 164.04 133.562 150.256 158.765 137.049C162.513 135.149 166.435 127.188 160.841 125.4C147.404 121.94 134.082 118.134 120.817 114.154C118.164 113.001 112.974 113.52 109.225 115.308V115.308Z" fill="#17447D"/>
<path d="M110.031 108.848C82.8677 120.671 55.5884 132.782 27.2138 143.105C23.2343 144.662 22.0838 146.969 24.6764 148.295C39.3824 155.965 54.3164 163.637 69.7178 170.96C72.4291 172.229 77.8498 171.768 81.8293 169.98C108.647 157.523 134.079 143.855 159.283 130.879C163.032 129.033 163.896 126.668 161.244 125.63C147.864 120.036 134.657 114.04 121.623 107.752C118.97 106.599 113.837 107.06 110.031 108.848V108.848Z" fill="#466DA3"/>
<path d="M124.219 118.942L132.177 115.655C130.678 114.963 129.178 114.212 127.678 113.521L126.987 113.175C126.088 112.725 125.103 112.472 124.099 112.432C123.095 112.393 122.093 112.567 121.162 112.944C119.719 113.521 118.278 114.097 116.836 114.732C116.663 114.79 116.432 114.905 116.259 114.963C116.894 115.309 117.529 115.597 118.159 115.885C120.181 116.923 122.2 117.96 124.219 118.942V118.942ZM133.792 116.403C131.138 117.499 128.428 118.595 125.776 119.691C127.967 120.786 130.216 121.883 132.408 122.978C135.176 121.883 137.944 120.844 140.712 119.806C139.328 119.114 137.944 118.422 136.964 117.96C135.925 117.441 134.83 116.923 133.792 116.403V116.403ZM140.943 121.132C138.636 121.998 136.329 122.92 134.023 123.786C135.58 124.535 137.079 125.285 138.636 126.034C142.558 124.073 145.269 122.804 146.018 122.401C145.038 121.94 143.712 121.248 142.328 120.614C141.808 120.786 141.404 120.959 140.943 121.132V121.132ZM101.554 137.223C103.802 138.553 106.052 139.818 108.358 141.029C113.376 138.55 118.333 136.127 122.893 133.878L117.357 130.59C112.049 132.724 106.801 134.974 101.554 137.223V137.223ZM93.3065 132.147C98.5543 129.898 103.86 127.591 109.108 125.342C107.362 124.242 105.651 123.088 103.978 121.881C103.465 121.535 102.965 121.169 102.479 120.785C97.231 123.035 91.9822 125.345 86.7344 127.591C87.5999 128.168 88.4644 128.802 89.3298 129.378C90.5944 130.386 91.9227 131.31 93.3065 132.147V132.147ZM110.377 126.208C105.104 128.462 99.8362 130.731 94.5748 133.013C96.4206 134.166 98.2656 135.32 100.111 136.416C105.357 134.116 110.624 131.867 115.914 129.671L112.28 127.421C111.703 127.073 111.069 126.611 110.377 126.208V126.208ZM78.1388 138.607C82.752 136.646 87.3082 134.685 91.8644 132.723C90.4223 131.801 89.0382 130.823 87.654 129.898C86.8465 129.321 86.039 128.802 85.2325 128.283C80.3295 130.359 75.4275 132.435 70.4676 134.458C70.1218 134.631 69.718 134.743 69.3722 134.919C70.5767 135.497 71.8084 136.016 73.063 136.476C74.736 137.165 76.4079 137.915 78.1388 138.607V138.607ZM93.1935 133.648C92.271 134.051 91.3476 134.455 90.3672 134.859C86.8522 136.358 83.2736 137.857 79.7557 139.357C82.0053 140.337 84.2549 141.376 86.5615 142.356C88.6373 141.433 90.771 140.51 92.8477 139.588L98.7301 136.992C97.8142 136.475 96.9105 135.937 96.0197 135.377C95.0935 134.859 94.171 134.224 93.1935 133.648V133.648ZM89.8457 142.356C89.327 142.586 88.7503 142.817 88.2307 143.106C90.999 144.317 93.7093 145.585 96.4776 146.854C99.9385 145.181 103.514 143.452 107.032 141.724C104.732 140.459 102.444 139.171 100.169 137.86C96.723 139.347 93.2818 140.846 89.8457 142.356V142.356ZM62.5085 145.124C63.8385 144.605 65.1609 144.028 66.488 143.509C69.833 142.125 73.12 140.741 76.463 139.357C74.6751 138.607 72.8293 137.857 71.0423 137.107C69.9166 136.632 68.8014 136.132 67.6974 135.608C63.1982 137.453 58.7579 139.472 54.2596 141.376C55.9316 142.182 57.6616 142.991 59.3896 143.74L62.5085 145.124ZM78.1388 140.049C73.4966 141.996 68.8441 143.918 64.1814 145.816C65.9123 146.566 67.5843 147.258 69.3114 148.066C70.1189 148.411 70.9264 148.815 71.7339 149.161C76.1063 147.036 80.5292 145.017 84.9988 143.106C83.7875 142.586 82.6342 142.009 81.423 141.491C80.2735 140.972 79.1762 140.507 78.1388 140.049V140.049ZM77.0435 148.066C75.7752 148.642 74.4481 149.276 73.1798 149.854C75.0798 150.718 76.9285 151.641 78.8314 152.564C79.7538 153.025 80.6773 153.428 81.5997 153.894C85.6942 151.994 90.1924 149.857 94.8645 147.608C92.0962 146.339 89.3279 145.128 86.5596 143.859C83.3761 145.235 80.2039 146.637 77.0435 148.066V148.066ZM110.435 124.824C113.38 123.555 116.317 122.286 119.259 121.075C120.403 120.619 121.538 120.138 122.662 119.633L114.702 115.654C111.069 117.153 107.436 118.71 103.802 120.325L105.702 121.709C107.263 122.689 108.82 123.787 110.435 124.824ZM111.761 125.63C113.606 126.785 115.51 127.938 117.355 129.091L118.22 128.746C122.431 127.015 126.58 125.343 130.793 123.67C128.601 122.574 126.409 121.479 124.161 120.383C120.066 122.113 115.914 123.844 111.761 125.63V125.63ZM118.739 129.957C120.181 130.821 121.565 131.629 123.007 132.436C123.411 132.667 123.815 132.898 124.276 133.128C129.178 130.706 133.619 128.515 137.196 126.727C135.581 125.977 134.024 125.17 132.409 124.42C127.852 126.208 123.295 128.054 118.739 129.957V129.957ZM40.8827 151.353H40.9397C41.978 151.814 43.0164 152.333 44.0547 152.795C49.6483 150.372 55.2429 148.066 60.8365 145.758C58.0682 144.547 55.3578 143.337 52.6475 142.009C50.9175 142.76 49.1325 143.509 47.3997 144.201C45.3084 145.069 43.1928 145.876 41.0556 146.624C40.6014 146.82 40.2121 147.142 39.9329 147.551C39.6537 147.959 39.496 148.439 39.4779 148.934C39.4598 149.428 39.5821 149.918 39.8307 150.346C40.0793 150.774 40.4441 151.123 40.8827 151.353ZM62.4515 146.509C56.8178 148.824 51.2044 151.188 45.6118 153.601C48.495 154.985 51.3783 156.37 54.2045 157.754C59.1065 155.736 63.7777 153.141 68.3918 150.776L70.1218 149.911C69.1993 149.507 68.2769 149.046 67.2965 148.642C65.7385 147.892 64.0665 147.2 62.4515 146.509ZM65.3927 153.775C62.2206 155.39 59.0486 157.062 55.7616 158.446C58.299 159.715 60.8916 160.926 63.4898 162.195C65.1618 161.388 71.6218 158.561 80.0996 154.582C77.2734 153.252 74.5051 151.871 71.7396 150.603C69.6031 151.641 67.4694 152.737 65.3927 153.775Z" fill="#17447D"/>
<path d="M97.9784 100.255C76.6984 109.714 55.4184 119.288 33.6168 128.053C29.5793 129.323 25.9456 126.669 25.3689 122.286C22.7745 103.543 19.6642 85.027 15.7378 66.692C14.8733 62.3666 17.2949 57.6375 21.2165 56.1375C42.9012 48.756 64.8747 41.4315 87.3669 34.9145C91.4614 33.5303 95.325 36.1837 95.9596 40.6819C98.613 57.0029 101.207 73.3239 103.919 89.6449C104.552 94.0852 101.9 98.8713 97.9784 100.255V100.255ZM49.9948 38.7202C49.685 39.1804 49.5195 39.7225 49.5195 40.2772C49.5195 40.832 49.685 41.3741 49.9948 41.8343C50.1766 42.0736 50.3901 42.2871 50.6294 42.4689C50.8279 42.6399 51.0659 42.7588 51.322 42.8147C51.7486 42.8779 52.1833 42.7753 52.5367 42.5279C52.8901 42.2805 53.1353 41.9072 53.222 41.4847C53.6865 39.7006 51.4949 36.8164 49.9948 38.7202Z" fill="white"/>
<path d="M23.1802 75.3976L22.6605 74.1294C30.1 71.0723 37.5974 68.5928 45.4985 65.9394C50.7725 64.2085 56.0212 62.4014 61.2429 60.5187L61.7046 61.7879C56.4604 63.662 51.1926 65.4691 45.9023 67.2086C38.0002 69.862 30.5607 72.3415 23.1802 75.3976Z" fill="#FF465A"/>
<path d="M31.2233 75.3624L36.1091 73.7892L36.5157 75.0518L31.6299 76.625L31.2233 75.3624Z" fill="#FDB849"/>
<path d="M38.28 73.3757L45.4905 70.937L45.9341 72.248L38.7236 74.6867L38.28 73.3757Z" fill="#17447D"/>
<path d="M48.3809 71.3618L47.9771 70.0318C52.0716 68.8206 56.1661 67.3785 60.2036 65.8214L60.7223 67.0906C56.68 68.713 52.5613 70.1384 48.3809 71.3618V71.3618ZM39.6143 78.0517L39.1526 76.7825C53.7207 71.5078 68.4139 66.5851 83.2193 62.0186L83.623 63.2878C68.8543 67.844 54.0904 72.8609 39.6143 78.0517Z" fill="#FFD340"/>
<path d="M32.4628 88.3744L32.117 87.0444C33.418 86.7103 34.6759 86.2267 35.8657 85.6033L36.4424 86.8136C35.181 87.4867 33.8455 88.0105 32.4628 88.3744V88.3744Z" fill="#FDB849"/>
<path d="M38.2391 84.6971L46.0576 81.8946L46.524 83.198L38.7055 86.0005L38.2391 84.6971Z" fill="#17447D"/>
<path d="M48.3806 82.7226L47.9769 81.3926C51.9555 80.2393 55.993 78.9131 59.9146 77.5859L60.3763 78.8551C56.3967 80.2431 52.4172 81.5693 48.3806 82.7226V82.7226Z" fill="#FDB849"/>
<path d="M41.9214 89.0071L41.4606 87.7389C55.3577 82.7036 69.3767 78.0114 83.5048 73.6665L83.9085 74.9357C69.7962 79.2709 55.796 83.9629 41.9214 89.0071V89.0071ZM42.0354 91.5237L59.6332 85.0722L60.0892 86.3167L42.4914 92.7691L42.0354 91.5237Z" fill="#FFD340"/>
<path d="M26.8824 102.815L51.6983 92.8075L52.216 94.09L27.3992 104.098L26.8824 102.815Z" fill="#FF465A"/>
<path d="M34.3754 105.126L38.1327 103.651L38.6381 104.939L34.8808 106.414L34.3754 105.126Z" fill="#FDB849"/>
<path d="M41.1727 104.122L40.769 102.792C43.7317 101.907 46.6396 100.848 49.4776 99.6212L49.9963 100.889C47.1343 102.172 44.1858 103.252 41.1727 104.122V104.122Z" fill="#17447D"/>
<path d="M41.9793 108.559L41.4606 107.291C54.2794 102.069 67.1801 97.0512 80.1579 92.2385L80.6196 93.5077C67.6568 98.31 54.775 103.328 41.9793 108.559V108.559ZM42.7868 112.366L42.2681 111.097C45.2131 109.829 48.2655 108.559 51.3226 107.464L51.7833 108.732C48.7275 109.886 45.7287 111.097 42.7868 112.366Z" fill="#FFD340"/>
<path d="M116.375 100.606L124.565 27.997C124.792 24.9043 126.176 22.0109 128.443 19.8942C130.709 17.7776 133.69 16.5934 136.791 16.578L179.18 12.6564C188.35 15.4827 190.656 22.9801 189.849 30.2466L180.968 109.083C180.619 112.166 179.117 115.003 176.764 117.025C174.411 119.046 171.38 120.103 168.28 119.984L130.793 118.427C123.931 118.134 116.09 108.445 116.375 100.606V100.606Z" fill="#008C6E"/>
<path d="M116.374 100.606L121.854 23.3255C122.08 20.2327 123.465 17.3392 125.731 15.2225C127.998 13.1058 130.979 11.9217 134.08 11.9065H174.97C176.698 11.9061 178.407 12.2716 179.985 12.9789C181.562 13.6862 182.971 14.7192 184.121 16.0102C185.27 17.3012 186.133 18.8208 186.653 20.4692C187.173 22.1175 187.339 23.8573 187.138 25.5742L178.257 104.406C177.908 107.489 176.407 110.326 174.053 112.347C171.7 114.369 168.67 115.426 165.57 115.306L128.083 113.749C126.445 113.673 124.839 113.27 123.359 112.565C121.878 111.859 120.554 110.865 119.463 109.641C118.373 108.416 117.538 106.987 117.007 105.435C116.477 103.884 116.261 102.242 116.374 100.606Z" fill="#45A353"/>
<path d="M141.693 102.445C141.405 103.227 141.405 104.086 141.693 104.868C143.654 109.828 152.363 107.694 150.402 101.523C150.262 100.951 149.991 100.418 149.611 99.9682C149.23 99.5179 148.751 99.1617 148.21 98.9275C145.615 97.9452 142.559 99.9658 141.693 102.445ZM123.872 83.4102L128.083 26.1993C128.429 21.4702 132.697 17.7794 137.83 17.7794L170.53 17.8944C176.412 17.8944 180.968 22.6235 180.334 28.0451L173.413 86.4093C172.836 91.1384 168.395 94.6563 163.262 94.4254L133.274 93.1562C127.794 92.9292 123.527 88.5469 123.872 83.4102V83.4102Z" fill="white"/>
<path d="M125.314 84.3364L129.524 27.1264C129.87 22.3973 134.138 18.7056 139.27 18.7056L171.97 18.8215C173.661 18.818 175.326 19.2342 176.815 20.0328C175.017 18.6406 172.804 17.8892 170.529 17.8981L137.829 17.7832C132.699 17.7832 128.424 21.416 128.082 26.203L123.872 83.4101C123.773 85.162 124.19 86.9044 125.072 88.4215C125.953 89.9385 127.261 91.1636 128.832 91.9449C127.668 91.0607 126.74 89.9048 126.126 88.5784C125.513 87.252 125.234 85.7955 125.314 84.3364V84.3364Z" fill="black"/>
<path d="M135.119 30.0112L174.105 29.6654L170.645 60.6924L132.523 60.0578L135.119 30.0112V30.0112Z" fill="#FDB849"/>
<path d="M141.348 55.8487C148.211 53.0224 155.883 53.8879 163.033 52.2729C166.263 51.5528 169.333 50.2427 172.087 48.4083L173.298 37.622C170.205 40.2584 166.671 42.328 162.859 43.7352C156.977 45.8689 150.806 46.3306 144.577 46.3886C142.496 46.3597 140.415 46.4753 138.349 46.7344C136.736 47.0073 135.153 47.4322 133.62 48.0036L132.582 60.0011L135.292 60.0581C136.985 58.2369 139.051 56.8013 141.348 55.8487V55.8487Z" fill="#FFD340"/>
<path d="M133.447 81.2822L164.821 82.3196L164.532 85.4347L132.986 84.2234L133.447 81.2822V81.2822Z" fill="#FDB849"/>
<path d="M142.848 64.0375L157.668 63.9795C158.215 63.9801 158.757 64.0902 159.261 64.3035C159.765 64.5167 160.221 64.8288 160.603 65.2212C160.985 65.6136 161.284 66.0784 161.483 66.5883C161.682 67.0982 161.777 67.6427 161.762 68.1899L161.704 68.8825C161.685 69.4136 161.56 69.9357 161.338 70.4183C161.115 70.9009 160.799 71.3345 160.407 71.694C160.015 72.0534 159.556 72.3315 159.056 72.5121C158.557 72.6927 158.026 72.7722 157.495 72.7461L142.675 72.1115C142.062 72.0791 141.463 71.9096 140.924 71.6157C140.385 71.3218 139.918 70.9107 139.559 70.4129C139.199 69.915 138.956 69.3429 138.846 68.7386C138.737 68.1342 138.764 67.5131 138.926 66.9207C139.201 66.0934 139.726 65.3717 140.428 64.8553C141.131 64.3389 141.976 64.0531 142.848 64.0375V64.0375Z" fill="#466DA3"/>
<path d="M93.9415 92.0659C102.362 84.6264 107.725 82.6656 115.05 80.3011C116.412 82.949 117.495 85.7321 118.28 88.605C118.352 88.9007 118.515 89.1667 118.745 89.3666C118.974 89.5665 119.26 89.6905 119.563 89.7217C119.866 89.7529 120.172 89.6897 120.437 89.5409C120.703 89.392 120.916 89.1647 121.048 88.89C123.962 83.5659 127.258 78.4597 130.91 73.6112C131.127 73.3122 131.279 72.9702 131.353 72.608C131.428 72.2458 131.424 71.8718 131.342 71.5113C131.26 71.1507 131.102 70.8118 130.878 70.5175C130.654 70.2231 130.37 69.98 130.044 69.8045C123.758 66.4596 117.01 63.2875 111.243 60.0575C110.968 59.9094 110.655 59.8494 110.345 59.8857C110.035 59.922 109.744 60.0527 109.511 60.2602C109.278 60.4677 109.114 60.7419 109.042 61.0456C108.97 61.3492 108.994 61.6676 109.109 61.9575C110.158 64.758 111.006 67.6295 111.647 70.5503C101.672 73.3186 94.5181 77.0673 86.9058 85.7759C86.3515 86.4008 86.0551 87.2127 86.0764 88.0477C86.0977 88.8827 86.4352 89.6785 87.0207 90.2742C87.7133 90.9658 88.4049 91.6583 89.0974 92.2929C90.4816 93.6229 92.5003 93.3341 93.9415 92.0659V92.0659Z" fill="#D70A32"/>
</svg>
