<svg width="190" height="190" viewBox="0 0 190 190" fill="none" xmlns="http://www.w3.org/2000/svg">
<g clip-path="url(#clip0_1102_3)">
<path d="M20.9264 95.0002C20.9264 115.157 28.9335 134.488 43.1863 148.74C57.439 162.993 76.7699 171 96.9264 171C117.083 171 136.414 162.993 150.667 148.74C164.919 134.488 172.926 115.157 172.926 95.0002C172.926 74.8438 164.919 55.5129 150.667 41.2601C136.414 27.0074 117.083 19.0002 96.9264 19.0002C76.7699 19.0002 57.439 27.0074 43.1863 41.2601C28.9335 55.5129 20.9264 74.8438 20.9264 95.0002V95.0002Z" fill="#466DA3" stroke="#DAEDF7" stroke-width="1.50648"/>
<path d="M17.0677 127.707C17.0677 135.874 20.312 143.706 26.0869 149.481C31.8618 155.256 39.6942 158.5 47.8611 158.5C56.0279 158.5 63.8603 155.256 69.6352 149.481C75.4101 143.706 78.6543 135.874 78.6543 127.707C78.6543 119.54 75.4101 111.708 69.6352 105.933C63.8603 100.158 56.0279 96.9139 47.8611 96.9139C39.6942 96.9139 31.8618 100.158 26.0869 105.933C20.312 111.708 17.0677 119.54 17.0677 127.707V127.707Z" fill="#FF6242"/>
<path d="M47.8632 105.957C55.2467 105.958 62.3842 108.611 67.9753 113.433C73.5664 118.256 77.239 124.926 78.324 132.23C78.9716 127.853 78.6682 123.387 77.4346 119.138C76.201 114.889 74.0661 110.955 71.1753 107.605C68.2846 104.256 64.7058 101.568 60.6828 99.7258C56.6598 97.8836 52.287 96.93 47.8623 96.93C43.4375 96.93 39.0647 97.8836 35.0417 99.7258C31.0187 101.568 27.44 104.256 24.5492 107.605C21.6584 110.955 19.5235 114.889 18.2899 119.138C17.0563 123.387 16.753 127.853 17.4005 132.23C18.4852 124.926 22.1579 118.255 27.7495 113.432C33.3411 108.61 40.4793 105.957 47.8632 105.957Z" fill="#FF866E"/>
<path d="M17.0677 127.707C17.0677 135.874 20.312 143.706 26.0869 149.481C31.8618 155.256 39.6942 158.5 47.8611 158.5C56.0279 158.5 63.8603 155.256 69.6352 149.481C75.4101 143.706 78.6543 135.874 78.6543 127.707C78.6543 119.54 75.4101 111.708 69.6352 105.933C63.8603 100.158 56.0279 96.9139 47.8611 96.9139C39.6942 96.9139 31.8618 100.158 26.0869 105.933C20.312 111.708 17.0677 119.54 17.0677 127.707V127.707Z" stroke="#45413C" stroke-width="1.50648" stroke-linecap="round" stroke-linejoin="round"/>
<path d="M37.292 121.937C37.292 122.856 37.6569 123.737 38.3065 124.386C38.9561 125.036 39.8371 125.401 40.7557 125.401C41.6743 125.401 42.5553 125.036 43.2049 124.386C43.8545 123.737 44.2194 122.856 44.2194 121.937C44.2194 121.018 43.8545 120.137 43.2049 119.488C42.5553 118.838 41.6743 118.473 40.7557 118.473C39.8371 118.473 38.9561 118.838 38.3065 119.488C37.6569 120.137 37.292 121.018 37.292 121.937V121.937Z" fill="#45413C"/>
<path d="M60.7429 121.937C60.7429 122.856 61.1078 123.737 61.7574 124.386C62.407 125.036 63.288 125.401 64.2066 125.401C65.1252 125.401 66.0063 125.036 66.6558 124.386C67.3054 123.737 67.6703 122.856 67.6703 121.937C67.6703 121.018 67.3054 120.137 66.6558 119.488C66.0063 118.838 65.1252 118.473 64.2066 118.473C63.288 118.473 62.407 118.838 61.7574 119.488C61.1078 120.137 60.7429 121.018 60.7429 121.937V121.937Z" fill="#45413C"/>
<path d="M41.6404 145.985C41.6781 143.135 42.8368 140.415 44.8657 138.412C46.8946 136.41 49.6304 135.288 52.4808 135.288C55.3313 135.288 58.0671 136.41 60.0959 138.412C62.1248 140.415 63.2835 143.135 63.3213 145.985H41.6404Z" fill="#FFA694" stroke="#45413C" stroke-width="1.50648" stroke-linecap="round" stroke-linejoin="round"/>
<path d="M108.112 121.728C108.112 129.895 111.356 137.727 117.131 143.502C122.906 149.277 130.738 152.521 138.905 152.521C147.072 152.521 154.904 149.277 160.679 143.502C166.454 137.727 169.698 129.895 169.698 121.728C169.698 113.561 166.454 105.728 160.679 99.9535C154.904 94.1786 147.072 90.9344 138.905 90.9344C130.738 90.9344 122.906 94.1786 117.131 99.9535C111.356 105.728 108.112 113.561 108.112 121.728V121.728Z" fill="#FFE500"/>
<path d="M138.905 99.9766C146.288 99.9774 153.425 102.631 159.016 107.453C164.607 112.275 168.28 118.945 169.366 126.248C170.013 121.871 169.71 117.405 168.476 113.156C167.243 108.907 165.108 104.973 162.217 101.623C159.326 98.2736 155.747 95.586 151.724 93.7438C147.701 91.9016 143.329 90.948 138.904 90.948C134.479 90.948 130.106 91.9016 126.083 93.7438C122.06 95.586 118.482 98.2736 115.591 101.623C112.7 104.973 110.565 108.907 109.332 113.156C108.098 117.405 107.795 121.871 108.442 126.248C109.527 118.944 113.2 112.274 118.792 107.452C124.383 102.629 131.521 99.9766 138.905 99.9766Z" fill="#FFF48C"/>
<path d="M108.112 121.728C108.112 129.895 111.356 137.727 117.131 143.502C122.906 149.277 130.738 152.521 138.905 152.521C147.072 152.521 154.904 149.277 160.679 143.502C166.454 137.727 169.698 129.895 169.698 121.728C169.698 113.561 166.454 105.728 160.679 99.9535C154.904 94.1786 147.072 90.9344 138.905 90.9344C130.738 90.9344 122.906 94.1786 117.131 99.9535C111.356 105.728 108.112 113.561 108.112 121.728V121.728Z" stroke="#45413C" stroke-width="1.50648" stroke-linecap="round" stroke-linejoin="round"/>
<path d="M142.547 115.956C142.547 116.875 142.912 117.756 143.562 118.405C144.212 119.055 145.093 119.42 146.011 119.42C146.93 119.42 147.811 119.055 148.46 118.405C149.11 117.756 149.475 116.875 149.475 115.956C149.475 115.037 149.11 114.156 148.46 113.507C147.811 112.857 146.93 112.492 146.011 112.492C145.093 112.492 144.212 112.857 143.562 113.507C142.912 114.156 142.547 115.037 142.547 115.956V115.956Z" fill="#45413C"/>
<path d="M119.097 115.956C119.097 116.411 119.186 116.861 119.36 117.282C119.534 117.702 119.789 118.084 120.111 118.405C120.433 118.727 120.815 118.982 121.235 119.156C121.655 119.33 122.105 119.42 122.56 119.42C123.015 119.42 123.466 119.33 123.886 119.156C124.306 118.982 124.688 118.727 125.009 118.405C125.331 118.084 125.586 117.702 125.76 117.282C125.934 116.861 126.024 116.411 126.024 115.956C126.024 115.501 125.934 115.051 125.76 114.631C125.586 114.21 125.331 113.829 125.009 113.507C124.688 113.185 124.306 112.93 123.886 112.756C123.466 112.582 123.015 112.492 122.56 112.492C122.105 112.492 121.655 112.582 121.235 112.756C120.815 112.93 120.433 113.185 120.111 113.507C119.789 113.829 119.534 114.21 119.36 114.631C119.186 115.051 119.097 115.501 119.097 115.956V115.956Z" fill="#45413C"/>
<path d="M145.125 129.164C145.144 130.6 144.878 132.025 144.342 133.357C143.806 134.689 143.01 135.901 142.002 136.923C140.993 137.945 139.792 138.756 138.467 139.31C137.142 139.864 135.721 140.149 134.285 140.149C132.849 140.149 131.428 139.864 130.103 139.31C128.778 138.756 127.577 137.945 126.568 136.923C125.56 135.901 124.764 134.689 124.228 133.357C123.692 132.025 123.426 130.6 123.445 129.164H145.125Z" fill="#FFA694" stroke="#45413C" stroke-width="1.50648" stroke-linecap="round" stroke-linejoin="round"/>
<path d="M75.2088 80.0986L62.7923 92.5151C62.3892 92.9176 61.8759 93.1917 61.3171 93.3027C60.7583 93.4137 60.1792 93.3567 59.6529 93.1387C59.1265 92.9208 58.6765 92.5518 58.3598 92.0782C58.0431 91.6047 57.8737 91.048 57.8732 90.4783V80.0986H44.9874C43.1486 80.0986 41.3852 79.3681 40.085 78.0679C38.7848 76.7677 38.0543 75.0042 38.0543 73.1655V37.3353C38.0541 36.4246 38.2332 35.5229 38.5815 34.6815C38.9298 33.8401 39.4405 33.0756 40.0843 32.4316C40.7281 31.7876 41.4925 31.2767 42.3338 30.9282C43.1751 30.5797 44.0768 30.4003 44.9874 30.4003H97.1158C98.9548 30.4008 100.718 31.1316 102.018 32.4322C103.319 33.7327 104.049 35.4963 104.049 37.3353V73.1655C104.049 75.0042 103.318 76.7677 102.018 78.0679C100.718 79.3681 98.9546 80.0986 97.1158 80.0986H75.2088Z" fill="white" stroke="#45413C" stroke-width="1.50648" stroke-linecap="round" stroke-linejoin="round"/>
<path d="M85.7409 65.7931C86.1732 65.36 86.416 64.773 86.416 64.161C86.416 63.5491 86.1732 62.9621 85.7409 62.5289L79.2125 56.0005C79.105 55.8935 79.0197 55.7664 78.9615 55.6263C78.9033 55.4863 78.8734 55.3361 78.8734 55.1845C78.8734 55.0328 78.9033 54.8827 78.9615 54.7426C79.0197 54.6026 79.105 54.4754 79.2125 54.3684L85.7409 47.84C86.1732 47.4069 86.416 46.8199 86.416 46.2079C86.416 45.5959 86.1732 45.009 85.7409 44.5758L81.6597 40.4946C81.2265 40.0623 80.6396 39.8195 80.0276 39.8195C79.4156 39.8195 78.8286 40.0623 78.3955 40.4946L71.8671 47.023C71.7601 47.1305 71.6329 47.2158 71.4929 47.274C71.3529 47.3322 71.2027 47.3621 71.051 47.3621C70.8994 47.3621 70.7492 47.3322 70.6092 47.274C70.4691 47.2158 70.342 47.1305 70.235 47.023L63.7066 40.4946C63.2734 40.0623 62.6865 39.8195 62.0745 39.8195C61.4625 39.8195 60.8755 40.0623 60.4424 40.4946L56.3631 44.5758C55.9308 45.009 55.688 45.5959 55.688 46.2079C55.688 46.8199 55.9308 47.4069 56.3631 47.84L62.8877 54.3684C63.1038 54.585 63.2252 54.8785 63.2252 55.1845C63.2252 55.4905 63.1038 55.7839 62.8877 56.0005L56.3631 62.5289C55.9308 62.9621 55.688 63.5491 55.688 64.161C55.688 64.773 55.9308 65.36 56.3631 65.7931L60.4424 69.8724C60.8755 70.3047 61.4625 70.5475 62.0745 70.5475C62.6865 70.5475 63.2734 70.3047 63.7066 69.8724L70.235 63.344C70.4516 63.1279 70.7451 63.0065 71.051 63.0065C71.357 63.0065 71.6505 63.1279 71.8671 63.344L78.3955 69.8724C78.8286 70.3047 79.4156 70.5475 80.0276 70.5475C80.6396 70.5475 81.2265 70.3047 81.6597 69.8724L85.7409 65.7931Z" fill="#FF6242" stroke="#E04122" stroke-width="1.50648" stroke-linecap="round" stroke-linejoin="round"/>
<path d="M109.792 74.1951L122.098 86.5014C122.496 86.9031 123.005 87.1771 123.56 87.2885C124.115 87.4 124.69 87.3439 125.212 87.1273C125.735 86.9107 126.182 86.5434 126.495 86.0723C126.808 85.6011 126.974 85.0474 126.971 84.4817V74.1951H148.821C149.724 74.1951 150.617 74.0173 151.451 73.6719C152.285 73.3265 153.042 72.8203 153.68 72.1821C154.318 71.5439 154.824 70.7863 155.169 69.9525C155.514 69.1187 155.692 68.2251 155.692 67.3227V31.8136C155.692 30.9113 155.514 30.0176 155.169 29.1839C154.824 28.3501 154.318 27.5925 153.68 26.9543C153.042 26.3161 152.285 25.8099 151.451 25.4645C150.617 25.1191 149.724 24.9413 148.821 24.9413H97.1546C95.332 24.9413 93.584 25.6654 92.2952 26.9542C91.0064 28.243 90.2823 29.991 90.2823 31.8136V67.3227C90.2823 69.1454 91.0064 70.8934 92.2952 72.1822C93.584 73.471 95.332 74.1951 97.1546 74.1951H109.792Z" fill="white" stroke="#45413C" stroke-width="1.50648" stroke-linecap="round" stroke-linejoin="round"/>
<path d="M141.216 43.3072C141.788 42.8348 142.15 42.1544 142.221 41.4155C142.293 40.6766 142.068 39.9397 141.596 39.3666L138.484 35.5837C138.011 35.011 137.331 34.6493 136.592 34.5781C135.853 34.5068 135.116 34.7318 134.543 35.2037L116.711 49.8755L112.712 45.0115C112.24 44.4389 111.56 44.0773 110.821 44.006C110.083 43.9348 109.346 44.1597 108.773 44.6315L104.99 47.7437C104.418 48.216 104.056 48.8964 103.985 49.6353C103.913 50.3742 104.139 51.1112 104.61 51.6843L108.614 56.5483L113.504 62.4915C113.976 63.064 114.656 63.4257 115.395 63.4969C116.134 63.5682 116.87 63.3432 117.443 62.8715L123.388 57.9809L141.216 43.3072Z" fill="#6DD627" stroke="#46B000" stroke-width="1.50648" stroke-linecap="round" stroke-linejoin="round"/>
<path d="M50.2142 172.357C101.786 207.1 191.9 172.357 186.512 102.4" stroke="#466DA3" stroke-width="5"/>
<path d="M179.131 68.0526C179.119 68.8585 180.643 69.3039 185.622 69.9758C190.893 70.6828 192.028 70.5965 191.77 69.599C191.401 68.2287 179.176 66.7584 179.131 68.0526Z" fill="#466DA3"/>
<path d="M175.026 36.4954C173.088 36.0204 172.86 36.3901 171.863 41.5975C170.829 46.9731 170.799 48.0539 171.621 48.6576C173.115 49.7451 173.769 48.5572 175.324 42.0794C176.47 37.2986 176.457 36.8461 175.026 36.4954Z" fill="#466DA3"/>
<path d="M186.033 48.668C184.602 48.3018 184.096 48.5255 182.497 50.201C177.774 55.1993 173.979 58.1887 176.762 58.8332C177.898 59.1058 178.878 58.317 184.609 52.7553C187.761 49.6578 187.947 49.1733 186.033 48.668Z" fill="#466DA3"/>
</g>
<defs>
<clipPath id="clip0_1102_3">
<rect width="190" height="190" fill="white"/>
</clipPath>
</defs>
</svg>
