<svg width="56" height="56" viewBox="0 0 56 56" fill="none" xmlns="http://www.w3.org/2000/svg">
<path d="M52.9257 38.9078C52.2568 28.7465 51.397 21.283 50.4975 10.5992C47.6063 13.82 43.2597 15.1422 39.9429 15.3884C33.099 15.8958 28.6593 12.4498 21.9001 11.922C15.0448 11.3864 9.16709 13.9125 3.13623 16.8421C4.09214 26.2222 4.99521 35.8101 5.14352 45.2437C9.38626 43.1674 13.7473 41.3408 18.5346 41.2375C23.044 41.1403 27.3365 43.0521 31.7888 43.4958C38.545 44.1695 47.2563 42.6017 52.9257 38.9078Z" stroke="#628AFE" stroke-width="4.5" stroke-miterlimit="1.5" stroke-linecap="round" stroke-linejoin="round"/>
<path d="M29.9213 22.6081C28.3331 22.449 26.5841 22.4346 25.2565 23.4409C24.1793 24.2575 23.6329 25.7448 24.8524 26.7373C26.6189 28.1742 29.51 27.2597 31.1138 29.034C32.2204 30.2584 31.336 31.9282 30.1201 32.6487C29.1774 33.2065 28.0353 33.2672 26.9737 33.1147C25.8425 32.9525 24.6963 32.8253 23.5698 32.6301" stroke="#628AFE" stroke-width="4.5" stroke-miterlimit="1.5" stroke-linecap="round" stroke-linejoin="round"/>
<path d="M27.7089 22.6261C27.7257 21.9656 27.7683 21.3093 27.7461 20.6476" stroke="#628AFE" stroke-width="4.5" stroke-miterlimit="1.5" stroke-linecap="round" stroke-linejoin="round"/>
<path d="M27.4999 33.1406C27.5203 33.7656 27.5407 34.3895 27.5749 35.014" stroke="#628AFE" stroke-width="4.5" stroke-miterlimit="1.5" stroke-linecap="round" stroke-linejoin="round"/>
<path d="M18.8881 35.1898C17.04 34.9557 15.0591 35.0944 13.3202 35.7957C12.6261 34.6224 11.2775 33.9943 9.93671 34.0712C9.63168 30.4763 9.40231 26.8563 9.14893 23.259C10.6813 22.3571 11.5483 20.8704 11.6642 19.1195C14.9378 17.2041 18.3513 16.5118 22.0651 17.29" stroke="#628AFE" stroke-width="4.5" stroke-miterlimit="1.5" stroke-linecap="round" stroke-linejoin="round"/>
<path d="M34.8287 20.5768C37.3254 20.8927 39.8815 20.9533 42.3853 20.6873C43.2404 21.4979 44.3938 22.1344 45.5863 22.2275C45.7598 25.5071 46.4449 28.7525 46.7325 32.0273C45.0561 32.7382 43.292 33.9686 43.1767 35.9578C40.5383 36.5725 37.7936 36.5707 35.156 35.9524" stroke="#628AFE" stroke-width="4.5" stroke-miterlimit="1.5" stroke-linecap="round" stroke-linejoin="round"/>
</svg>
