<svg width="30" height="30" viewBox="0 0 30 30" fill="none" xmlns="http://www.w3.org/2000/svg">
<g opacity="0.7">
<rect width="30" height="30" rx="7" fill="#72B686"/>
<path d="M22.9258 6.79494C19.5499 3.49753 14.1941 3.26625 10.4097 5.05311C3.88793 8.13243 2.09206 17.3762 6.01254 22.0452C10.3364 27.1944 17.0361 26.7843 20.6333 24.1739C25.2955 20.7907 27.791 14.6639 24.6383 9.56191" stroke="white" stroke-width="2" stroke-miterlimit="1.5" stroke-linecap="round" stroke-linejoin="round"/>
<path d="M11.3888 11.066C11.3766 11.279 11.3585 11.491 11.3473 11.7039" stroke="white" stroke-width="2" stroke-miterlimit="1.5" stroke-linecap="round" stroke-linejoin="round"/>
<path d="M17.8476 11.0368C17.8463 11.2844 17.847 11.5321 17.8489 11.7798" stroke="white" stroke-width="2" stroke-miterlimit="1.5" stroke-linecap="round" stroke-linejoin="round"/>
<path d="M16.3647 15.6292C16.0695 15.1737 15.5217 14.6967 14.9632 14.6031C11.9991 14.1067 11.3561 19.2968 13.4482 20.6041C14.5354 21.2834 15.7706 20.7916 16.4188 19.7642C17.1081 18.6725 17.1313 16.8094 16.3647 15.6292Z" stroke="white" stroke-width="2" stroke-miterlimit="1.5" stroke-linecap="round" stroke-linejoin="round"/>
</g>
</svg>
