<svg width="52" height="50" viewBox="0 0 52 50" fill="none" xmlns="http://www.w3.org/2000/svg">
<path d="M37.5743 6.81185C23.4859 -2.04364 8.66946 7.31043 6.1889 18.0793C4.5324 25.2702 6.66394 32.4803 12.9409 38.1014C12.0527 41.821 11.7868 43.8679 11.0759 46.839C14.2902 45.5105 18.0888 43.2754 20.3709 42.2316C20.5092 42.1689 30.5652 46.5296 39.717 38.6209C49.598 30.0818 48.4672 13.6591 37.5743 6.81185Z" stroke="#628AFE" stroke-width="4.5" stroke-miterlimit="1.5" stroke-linecap="round" stroke-linejoin="round"/>
<path d="M38.9085 28.9865C37.7878 30.4007 35.8475 32.1157 34.0042 32.7055C31.0949 33.6362 28.4989 32.9006 25.022 30.6082C19.4403 26.9278 13.5436 22.0369 16.7807 15.8743C17.1822 15.1098 17.6321 14.3662 18.2282 13.7255C19.646 14.786 22.1478 16.8693 23.4937 18.015C23.1793 18.818 22.702 19.5096 23.1648 20.9378C23.487 21.9318 24.4577 22.611 25.2377 23.2897C27.2884 25.0745 30.6494 27.7813 32.9075 24.8348C34.9058 26.2502 36.8271 27.6869 38.9085 28.9865Z" stroke="#628AFE" stroke-width="4.5" stroke-miterlimit="1.5" stroke-linecap="round" stroke-linejoin="round"/>
</svg>
