<svg width="30" height="30" viewBox="0 0 30 30" fill="none" xmlns="http://www.w3.org/2000/svg">
<g opacity="0.7">
<rect width="30" height="30" rx="7" fill="#45A353"/>
<path d="M12.2574 18.2984C11.0171 18.5374 9.82112 18.7542 8.60394 19.1251C7.85671 14.2206 7.31084 9.28852 7.05994 4.33324C8.8291 3.79767 10.6218 3.67157 12.4607 3.77483C12.2024 8.60948 12.4543 13.4573 12.2697 18.2961L12.2574 18.2984Z" stroke="white" stroke-width="2" stroke-miterlimit="1.5" stroke-linecap="round" stroke-linejoin="round"/>
<path d="M11.2687 21.8075C8.86036 21.1828 7.39098 24.4779 9.47056 25.8724C11.3098 27.1056 13.6931 24.6487 12.4984 22.8316" stroke="white" stroke-width="2" stroke-miterlimit="1.5" stroke-linecap="round" stroke-linejoin="round"/>
<path d="M22.929 7.22728C22.334 11.1497 21.8621 15.1158 21.0499 19.0019L17.0901 18.3701C17.0901 14.79 17.0795 10.5009 17.3546 6.5907C19.2074 6.57687 21.137 6.72806 22.929 7.2276V7.22728Z" stroke="white" stroke-width="2" stroke-miterlimit="1.5" stroke-linecap="round" stroke-linejoin="round"/>
<path d="M19.4148 22.1549C17.4031 21.5855 16.0197 24.5925 17.8043 25.7633C19.686 26.9979 21.6041 24.2013 20.2554 22.6393" stroke="white" stroke-width="2" stroke-miterlimit="1.5" stroke-linecap="round" stroke-linejoin="round"/>
</g>
</svg>
