<svg width="75" height="74" viewBox="0 0 75 74" fill="none" xmlns="http://www.w3.org/2000/svg">
<g clip-path="url(#clip0_1055_373)">
<rect y="17.8428" width="60" height="58.2857" rx="29.1429" transform="rotate(-17.3003 0 17.8428)" fill="#466DA3"/>
<g clip-path="url(#clip1_1055_373)">
<path d="M43.5884 31.7039C38.3471 26.2472 27.9126 31.0576 28.5698 38.6403C28.9665 43.216 33.8532 44.9824 35.6135 48.8352L44.6755 46.0127C44.6079 44.8571 44.7524 43.4125 44.8838 42.5112C45.1568 40.6394 45.9288 39.2306 45.7817 37.2829C45.642 35.4297 44.835 33.0022 43.5884 31.7039Z" stroke="white" stroke-width="2.5" stroke-miterlimit="1.5" stroke-linecap="round" stroke-linejoin="round"/>
<path d="M37.1496 54.3538C36.7614 53.1167 36.3153 51.8981 35.9513 50.654C35.8071 50.1612 35.5366 49.5879 35.8541 49.1131C36.3178 48.4202 37.2162 48.0607 37.9787 47.8027C39.4087 47.3196 40.8638 46.8796 42.3068 46.4336C42.9639 46.2299 43.9082 45.8106 44.6018 45.9529C45.2615 46.0872 45.6674 46.8881 45.9089 47.4391C46.3707 48.4949 47.455 50.8365 46.79 51.9724C46.3711 52.6881 45.4936 53.0836 44.7737 53.409C42.8629 54.2726 37.6193 55.8525 37.1496 54.3538Z" stroke="white" stroke-width="2.5" stroke-miterlimit="1.5" stroke-linecap="round" stroke-linejoin="round"/>
<path d="M23.9683 48.7227C24.5594 48.1294 25.2017 47.5925 25.805 47.0136" stroke="white" stroke-width="2.5" stroke-miterlimit="1.5" stroke-linecap="round" stroke-linejoin="round"/>
<path d="M19.4521 34.2246C20.3975 34.4801 21.3247 34.7985 22.2705 35.049" stroke="white" stroke-width="2.5" stroke-miterlimit="1.5" stroke-linecap="round" stroke-linejoin="round"/>
<path d="M33.176 23.4355C32.8393 22.4517 32.5382 21.4647 32.2613 20.4627" stroke="white" stroke-width="2.5" stroke-miterlimit="1.5" stroke-linecap="round" stroke-linejoin="round"/>
<path d="M47.4964 26.3903C48.2828 25.4262 49.1109 24.4922 49.9225 23.5492" stroke="white" stroke-width="2.5" stroke-miterlimit="1.5" stroke-linecap="round" stroke-linejoin="round"/>
<path d="M49.9795 40.4498C50.9565 40.8964 51.9342 41.3344 52.8949 41.8149" stroke="white" stroke-width="2.5" stroke-miterlimit="1.5" stroke-linecap="round" stroke-linejoin="round"/>
</g>
</g>
<defs>
<clipPath id="clip0_1055_373">
<rect y="17.8428" width="60" height="58.2857" rx="29.1429" transform="rotate(-17.3003 0 17.8428)" fill="white"/>
</clipPath>
<clipPath id="clip1_1055_373">
<rect width="43.5294" height="43.5294" fill="white" transform="translate(10.3145 24.0565) rotate(-17.3003)"/>
</clipPath>
</defs>
</svg>
