<svg width="190" height="190" viewBox="0 0 190 190" fill="none" xmlns="http://www.w3.org/2000/svg">
<g clip-path="url(#clip0_1118_144)">
<path d="M81.6035 0.0131778C79.876 4.61327 77.8121 9.07991 75.4285 13.3768C73.5198 15.6361 71.4336 17.7391 69.1898 19.6658C63.733 24.3427 57.6074 28.1854 51.9283 32.5288C47.4738 35.9811 43.1883 39.878 40.9083 45.0014C40.3693 46.2458 39.9947 47.5552 39.794 48.8964C38.9915 49.7744 38.2476 50.7043 37.5672 51.6799C36.1448 53.7442 35.2117 56.1055 34.8388 58.5845C33.5904 58.4512 32.3995 57.9904 31.3865 57.2488C31.7354 57.856 32.2171 58.3764 32.7955 58.7713C33.3739 59.1661 34.0341 59.425 34.7267 59.5288C34.5155 61.785 34.9808 64.0531 36.0633 66.0439C35.6535 63.913 35.8662 61.7092 36.6761 59.696H36.9535C37.6486 59.6432 38.3379 59.5314 39.014 59.3616C38.5226 61.1394 38.4462 63.0064 38.7908 64.8184C38.2584 64.648 37.7377 64.4433 37.2318 64.2056C37.7448 64.5636 38.2847 64.8812 38.8468 65.1556C39.2521 67.1427 40.1093 69.0098 41.352 70.6124C40.633 69.0728 40.2173 67.4092 40.1274 65.7123C43.0781 66.8257 45.9737 66.7146 49.426 65.8795C54.8239 64.6008 58.8329 59.7045 62.062 54.8595C67.4333 46.8121 71.9151 38.2054 75.4285 29.1905C75.7619 28.2994 76.1524 27.3532 76.4858 26.4061C80.4471 19.9704 83.6421 13.0935 86.0058 5.91553C87.5079 6.44756 88.7584 7.5193 89.5141 8.92228L94.191 7.25123C92.9536 5.01053 91.1263 3.15139 88.9074 1.87545C86.6884 0.599504 84.1625 -0.0445363 81.6035 0.0131778V0.0131778ZM45.6935 50.0715C43.7645 51.5529 42.0906 53.3396 40.7383 55.3611C40.6822 54.5261 40.6262 53.7461 40.5711 52.9111C40.7383 52.6878 40.9606 52.4655 41.1278 52.2461C44.3017 48.5154 48.4219 45.7861 52.5981 43.336C54.3803 42.2787 56.1615 41.3315 57.9437 40.2742C56.7192 41.5548 55.4937 42.8392 54.3803 44.2271C51.5388 46.1708 48.476 47.8998 45.6935 50.0715ZM48.7002 50.8505C46.9396 52.7782 44.98 54.514 42.8539 56.029C42.7428 56.085 42.6867 56.1401 42.5756 56.1962C43.3103 55.164 44.1721 54.2285 45.1406 53.4117C46.2483 52.5216 47.4738 51.6856 48.6983 50.8505H48.7002ZM44.411 41.9975C47.8633 38.0436 52.3739 35.204 56.6052 32.0301C62.9519 27.2974 68.7593 21.8816 73.9227 15.8801C73.5883 16.3817 73.31 16.9384 72.9727 17.439C66.8509 27.0758 57.9418 34.5913 48.8104 41.3847C46.1822 43.2312 43.6715 45.2396 41.2931 47.3982C41.4636 46.8114 41.6682 46.2351 41.9058 45.6721C42.5511 44.3281 43.3957 43.0892 44.411 41.9975V41.9975ZM37.1169 58.479C37.8534 56.8896 38.7487 55.3787 39.7892 53.9694C39.9004 54.7484 40.0125 55.5283 40.1797 56.3073C39.8972 56.8154 39.637 57.3356 39.3997 57.8663C38.6999 58.1478 37.9718 58.3533 37.228 58.479H37.1169ZM69.1338 38.3808C67.0076 43.2263 64.4733 47.8822 61.5585 52.2983C58.8301 56.5857 55.4889 61.4307 51.0904 63.4903C47.6412 65.121 43.7779 65.665 40.0125 65.0502C39.9598 63.0542 40.3003 61.0674 41.0147 59.2029C41.3482 60.1529 41.6797 61.0963 42.0721 61.9874C41.729 60.8909 41.4502 59.7752 41.237 58.6462C41.3029 58.521 41.3588 58.3908 41.4042 58.2567C41.9058 57.9784 42.4625 57.644 42.9632 57.3656C45.7595 55.4422 48.3695 53.261 50.7589 50.8505C52.0395 49.6811 53.265 48.5126 54.5456 47.3431C60.8003 43.7324 66.3931 39.081 71.0832 33.589C70.4144 35.204 69.8026 36.819 69.1338 38.3808V38.3808ZM99.4806 12.8752C100.775 11.5596 102.235 10.4179 103.824 9.47898C105.272 14.2679 106.219 19.4464 104.882 24.2904C103.657 28.8561 100.595 32.5868 98.1449 36.6518C97.2459 38.029 96.5518 39.5296 96.0843 41.1064C95.6307 42.7078 95.8099 44.4223 96.585 45.8953C96.2256 44.1249 96.5227 42.2843 97.421 40.7169C98.2876 39.1797 99.2941 37.7258 100.428 36.3735C104.993 30.2479 107.889 22.6194 106.998 15.0469C106.872 12.5539 105.866 10.1864 104.158 8.36558C101.933 8.86623 100.372 10.7035 99.4806 12.8752V12.8752Z" fill="black"/>
<path d="M170.921 107.59C173.26 104.249 172.925 99.0707 169.752 96.5646C168.323 95.5423 166.654 94.9091 164.907 94.7273C163.092 94.4649 161.241 94.5977 159.483 95.1166C157.724 95.6356 156.098 96.5284 154.716 97.734C153.358 98.9724 152.395 100.584 151.95 102.367C151.504 104.151 151.595 106.026 152.211 107.757C155.162 115.108 167.078 113.05 170.921 107.59V107.59Z" fill="#FFD340"/>
<path d="M67.9652 190C55.4366 187.05 43.1873 184.042 30.4915 181.759C50.0919 172.126 69.5802 162.379 89.1246 152.582C91.7418 154.253 94.4702 155.032 97.4219 156.09C108.168 152.081 117.857 147.626 128.214 142.726C133.671 148.127 137.904 153.746 143.414 159.152C146.923 157.371 149.706 155.812 153.214 154.085C162.012 161.21 170.921 169.342 179.274 176.971C170.365 179.978 161.622 183.263 152.713 186.27C145.551 183.464 138.178 181.229 130.663 179.587C109.338 184.205 91.7418 186.77 67.9652 190Z" fill="#14D29B"/>
<path d="M108.447 161.714C104.994 162.994 98.8136 168.34 98.2569 168.34C93.8574 168.34 75.093 168.395 73.3108 168.061C69.9193 169.787 56.1054 174.576 52.8193 175.75C54.6006 176.251 64.1785 177.922 66.9069 179.313C67.6859 179.704 64.6791 183.768 64.6791 183.824C66.5164 183.601 90.4042 178.478 96.3626 177.364C97.0865 177.253 101.039 179.814 102.823 180.259C105.885 178.533 123.202 170.403 125.541 169.624C126.042 169.457 132.445 172.408 135.508 173.132C140.241 171.294 144.64 168.566 149.317 166.45C145.698 165.002 142.192 163.444 138.682 161.717L108.447 161.714Z" fill="#008C6E"/>
<path d="M100.707 137.771C92.5767 136.435 90.5171 135.491 86.8976 132.261C83.2781 129.031 79.2131 125.302 74.369 125.691C72.8101 125.802 71.3062 126.356 69.7473 126.356C66.4061 126.356 63.6777 123.906 61.1165 121.847C55.5486 117.336 48.7551 113.829 41.6273 114.162C34.4994 114.495 27.3174 119.842 26.8158 126.969C26.4824 131.535 19.9673 133.762 15.8471 135.823C11.679 137.799 7.28456 139.258 2.76184 140.165C9.16484 140.11 74.0346 138.161 100.707 137.771V137.771Z" fill="#466DA3"/>
<path d="M83.0554 135.487C80.1598 134.15 77.6537 132.257 74.7581 130.865C73.0606 130.014 71.1993 129.539 69.3013 129.474C67.4196 129.463 65.5397 129.593 63.6773 129.863C62.1314 130.113 60.5603 130.169 59.0005 130.03C57.7324 129.848 56.4956 129.492 55.3249 128.972C53.2208 127.864 51.2261 126.56 49.3675 125.077C47.4562 123.528 45.2344 122.408 42.8524 121.792C39.8163 121.249 36.6858 121.781 33.9993 123.296C31.3821 124.744 27.7065 128.362 26.1476 128.975C24.4214 132.26 19.243 134.098 15.7926 135.824C11.6246 137.801 7.23007 139.259 2.70728 140.167C8.38733 140.112 59.8374 138.552 90.1282 137.887C87.6827 137.374 85.308 136.568 83.0554 135.487V135.487Z" fill="#17447D"/>
<path d="M187.292 116.668C182.797 115.76 178.591 113.771 175.037 110.873C171.752 108.308 167.52 105.862 163.732 107.477C162.173 108.142 160.781 109.425 159.055 109.369C155.992 109.203 155.213 105.138 153.821 102.465C151.204 97.5094 144.41 96.1727 139.121 98.01C133.831 99.8473 129.821 104.024 125.924 108.033C125.868 105.583 123.418 103.746 120.968 103.634C118.518 103.522 116.235 104.748 114.286 106.14C110.722 108.645 107.605 111.764 104.041 114.325C100.478 116.887 98.0266 117.555 91.902 118.334C126.097 118.394 154.328 118.394 187.292 116.668Z" fill="#466DA3"/>
<path d="M173.26 111.489C171.204 110.25 168.797 109.721 166.411 109.986C164.184 110.264 162.068 111.211 159.841 111.545C158.356 111.881 156.805 111.765 155.386 111.211C153.992 110.438 152.851 109.278 152.101 107.87C151.107 106.025 149.87 104.321 148.426 102.803C146.908 101.312 145.136 100.105 143.192 99.2392C141.88 98.6461 140.494 98.2338 139.071 98.0137C133.782 99.852 129.773 104.028 125.875 108.037C125.819 105.587 123.369 103.75 120.919 103.638C118.468 103.526 116.186 104.752 114.237 106.144C110.674 108.649 107.555 111.768 103.991 114.329C100.428 116.89 97.978 117.559 91.8524 118.338C124.761 118.394 152.156 118.394 183.562 116.89C179.942 115.666 176.712 113.383 173.26 111.489V111.489Z" fill="#17447D"/>
<path d="M138.626 22.7316L136.678 38.4341H142.635L144.529 25.7934L138.626 22.7316V22.7316Z" fill="black"/>
<path d="M157.056 20.2823C151.934 22.6202 145.864 20.2823 140.351 21.4517C139.796 21.5064 139.28 21.7642 138.903 22.1756C138.18 23.1256 139.127 24.5136 140.129 25.1263C141.131 25.7391 142.409 26.2397 142.801 27.4063C143.247 28.743 142.077 30.1347 140.742 30.5252C139.37 30.7834 137.956 30.7068 136.621 30.3019C130.161 28.9102 122.979 28.4086 117.355 31.9169C121.642 32.3625 123.535 36.3154 125.929 39.8798C128.323 43.4442 131.053 47.3962 135.229 48.2873C135.731 48.4573 136.273 48.4683 136.781 48.3188C137.289 48.1694 137.739 47.8668 138.068 47.4523C138.347 46.9507 139.405 42.1627 139.516 42.1627H139.572C144.138 42.7745 148.425 46.1156 152.991 45.3366C155.666 37.2535 157.038 28.7964 157.056 20.2823V20.2823Z" fill="#14D29B"/>
<path d="M139.517 42.108H139.573C139.851 42.1641 141.689 42.6096 141.911 42.6647C142.413 39.658 142.969 35.9834 143.637 33.0317C144.528 28.9667 144.863 25.1809 146.032 21.1719C144.116 21.0361 142.191 21.1295 140.297 21.4503C139.742 21.5048 139.226 21.7626 138.849 22.1742C138.125 23.1242 139.071 24.5121 140.074 25.1249C141.076 25.7376 142.354 26.2383 142.747 27.4049C142.876 27.8032 142.876 28.232 142.747 28.6304C142.413 29.9661 141.633 32.0827 141.299 33.4184C140.798 35.3706 139.459 42.052 139.517 42.108V42.108Z" fill="#008C6E"/>
<path d="M147.98 69.7314C148.398 69.8415 148.828 69.8977 149.26 69.8986C149.481 69.8897 149.696 69.8297 149.89 69.7234C150.083 69.6171 150.249 69.4673 150.375 69.2858C150.653 68.8963 151.655 69.3419 151.878 68.8963C152.045 68.5068 151.321 67.7829 151.543 67.7269C151.878 67.6157 152.208 67.4485 152.493 67.3374C152.548 67.2813 152.66 67.2813 152.715 67.2253C152.828 67.1141 152.771 66.9469 152.715 66.8358C152.659 66.7246 152.548 66.6135 152.493 66.5014C152.326 66.0568 152.828 65.2208 152.828 64.7752C152.771 64.2185 152.048 64.1634 151.546 63.8851C151.19 63.6486 150.794 63.4786 150.377 63.3835C150.076 63.3379 149.768 63.3764 149.486 63.4946C147.927 63.829 146.424 64.3857 144.865 64.7201C143.85 64.8583 142.868 65.1802 141.969 65.6701C141.722 65.8631 141.538 66.1245 141.439 66.4217C141.34 66.7189 141.331 67.0388 141.412 67.3412C142.746 69.1709 145.918 69.282 147.98 69.7314V69.7314Z" fill="#E28A42"/>
<path d="M132.607 163.676L157.32 14.0313L159.243 14.3486L134.53 163.994L132.607 163.676Z" fill="black"/>
<path d="M145.419 67.2769C146.282 66.8283 147.055 66.2241 147.699 65.4947C148.233 64.776 148.969 64.2331 149.814 63.9358C150.479 63.7135 152.042 63.2119 151.818 62.2096C150.538 62.4329 148.645 62.9896 147.531 63.0447C146.486 63.0354 145.443 62.9423 144.413 62.7663C143.371 62.5998 142.302 62.7552 141.35 63.2119C140.237 63.8769 139.847 64.3262 140.181 65.6068C140.575 67.1658 143.693 68.0569 145.419 67.2769Z" fill="#F2BF8C"/>
<path d="M116.856 90.6649C112.213 94.1737 106.818 96.5562 101.097 97.6246C94.5269 98.8501 87.4551 98.2373 81.7171 94.785C78.9887 93.17 76.7058 90.9432 74.0886 89.105C71.4713 87.2667 68.4085 85.875 65.2346 86.0982C72.1461 83.8071 79.2201 82.039 86.3968 80.8086C95.5842 79.3608 105.329 78.9153 113.737 82.8692C115.408 83.6482 117.078 84.7065 117.802 86.3215C118.582 88.0476 118.359 89.5505 116.856 90.6649V90.6649Z" fill="black"/>
<path d="M97.5865 38.3811C102.543 37.9356 107.276 40.2184 111.73 42.5013C114.125 43.7268 116.519 44.8962 118.746 46.288C122.926 48.853 126.653 52.083 130.663 54.8627C134.673 57.6424 139.126 60.0972 143.97 60.765C143.832 62.9673 143.218 65.1134 142.17 67.0553C141.122 68.9972 139.666 70.6887 137.901 72.013C135.005 71.063 132.054 69.8974 129.161 68.9502C126.989 68.2263 124.762 67.5585 122.646 66.6702C110.673 61.7644 101.151 50.7957 97.5865 38.3811V38.3811Z" fill="#FDB849"/>
<path d="M96.0282 36.4805C105.773 41.715 111.676 52.5175 112.956 63.4862C114.237 74.4549 111.397 85.5927 106.887 95.6712C105.828 90.8823 106.552 85.7599 106.831 80.8598C107.226 73.3858 106.05 65.9119 103.378 58.9205C101.931 55.1338 100.037 51.5105 98.5903 47.7285C97.1435 43.9466 95.7498 40.5494 96.0282 36.4805V36.4805Z" fill="#FFD340"/>
<path d="M148.594 65.3275C148.241 65.5416 147.906 65.7837 147.591 66.0514C147.48 66.1625 147.202 66.4409 147.257 66.6081C147.368 66.8864 147.981 66.8304 148.207 66.8304C149.297 66.803 150.372 66.5777 151.381 66.1654C151.916 65.9683 152.394 65.642 152.773 65.2154C152.843 65.1312 152.89 65.0295 152.908 64.9211C152.925 64.8128 152.914 64.7016 152.874 64.5992C152.834 64.4968 152.768 64.4069 152.681 64.339C152.595 64.2711 152.492 64.2277 152.383 64.2131C152.145 64.158 151.897 64.158 151.659 64.2131C150.575 64.3814 149.533 64.76 148.594 65.3275V65.3275Z" fill="#F2BF8C"/>
<path d="M150.209 66.5015C149.322 66.4863 148.444 66.6772 147.643 67.0592C147.42 67.1703 147.198 67.3926 147.309 67.6159C147.335 67.6671 147.375 67.7099 147.424 67.7395C147.473 67.769 147.53 67.7842 147.587 67.7831C148.416 68.0433 149.287 68.1378 150.152 68.0614C150.771 68.0453 151.386 67.9706 151.99 67.8382C152.324 67.727 153.27 67.2815 152.77 66.8359C152.405 66.6593 152.006 66.5643 151.6 66.5576C151.138 66.512 150.673 66.4933 150.209 66.5015V66.5015Z" fill="#F2BF8C"/>
<path d="M147.703 68.0559C147.481 68.111 147.257 68.2782 147.257 68.5014C147.269 68.5838 147.301 68.6622 147.349 68.7299C147.398 68.7977 147.462 68.8529 147.536 68.8909C148.214 69.2762 148.984 69.4687 149.763 69.4476C150.32 69.5037 152.937 69.3365 151.545 68.2782C150.329 67.761 148.97 67.6824 147.703 68.0559V68.0559Z" fill="#F2BF8C"/>
<path d="M150.041 69.1145C149.418 68.9848 148.777 68.9661 148.148 69.0594C147.98 69.0594 147.758 69.1706 147.758 69.3378C147.758 69.3929 147.813 69.4489 147.869 69.505C148.193 69.727 148.55 69.8961 148.928 70.0056C149.438 70.1683 149.959 70.2984 150.486 70.3951C150.876 70.5072 151.489 70.4512 151.322 69.8945C151.21 69.505 150.43 69.2266 150.041 69.1145V69.1145Z" fill="#F2BF8C"/>
<path d="M116.688 73.2907C113.847 65.5511 113.736 64.4928 108.948 58.7557C109.835 56.5556 110.344 54.221 110.451 51.8511C110.456 50.7761 110.229 49.7127 109.786 48.7332C109.35 47.9726 108.762 47.3095 108.06 46.7848C105.721 44.8354 102.882 43.5548 100.431 41.7726C97.9814 39.9904 95.8658 37.0957 95.9209 34.089C94.2508 33.424 92.3014 31.1373 90.5752 31.524C90.0746 34.4186 88.2952 39.4308 85.7872 40.9898C83.3923 42.4927 80.1632 43.2698 78.9938 45.8348C77.8804 48.3409 79.2161 51.1804 80.7199 53.4633C82.6678 56.4323 84.8459 59.2438 87.2341 61.8717C90.5752 65.4903 94.5291 69.333 94.4731 74.2331C99.4292 77.7966 102.714 78.0749 104.496 83.9231C109.422 81.5099 113.627 77.843 116.688 73.2907V73.2907Z" fill="white"/>
<path d="M106.33 142.281C107.611 147.905 109.337 153.586 108.835 159.264C109.37 159.75 110.038 160.063 110.754 160.162C111.469 160.262 112.198 160.143 112.844 159.821L113.346 148.74C113.457 146.568 113.513 144.397 113.624 142.28L106.33 142.281Z" fill="#E28A42"/>
<path d="M108.502 152.081C108.918 154.451 109.03 156.865 108.835 159.263C109.37 159.749 110.038 160.062 110.754 160.162C111.469 160.261 112.198 160.142 112.844 159.82L113.235 150.354C111.764 151.189 110.165 151.773 108.502 152.081V152.081Z" fill="black"/>
<path d="M79.9888 142.281H71.2488C70.9705 149.91 71.9727 157.761 72.975 165.333C74.3468 165.754 75.821 165.695 77.155 165.167C76.6703 159.633 77.0268 154.057 78.2123 148.629C78.634 146.469 79.2281 144.346 79.9888 142.281V142.281Z" fill="#F2BF8C"/>
<path d="M77.319 153.751C75.6514 154.818 73.6497 155.234 71.695 154.92C72.033 158.401 72.4603 161.873 72.9766 165.332C74.3483 165.753 75.8226 165.695 77.1566 165.166C76.8203 161.365 76.8747 157.54 77.319 153.751V153.751Z" fill="black"/>
<path d="M105.439 144.954C108.445 144.975 111.441 144.601 114.349 143.84C114.939 135.89 116.037 127.985 117.634 120.175C118.299 116.779 119.138 113.437 119.638 110.041C121.755 96.8998 120.251 83.3139 116.131 70.6162C112.419 74.3347 107.984 77.253 103.101 79.1909C102.978 88.2978 103.724 97.3957 105.328 106.361C106.086 109.614 106.515 112.934 106.609 116.272C106.498 121.34 104.66 126.185 104.103 131.196C103.602 135.933 103.657 140.499 105.439 144.954Z" fill="#D70A32"/>
<path d="M79.4914 145.957C76.5958 146.907 73.7012 145.789 70.8056 144.843C69.0806 139.837 69.022 134.406 70.6384 129.364C72.3645 124.073 75.928 119.508 77.543 114.164C78.3428 110.978 78.9196 107.74 79.2691 104.474C81.2176 91.722 86.7865 79.8622 92.2984 68.1687C93.3986 68.6464 94.5609 68.9662 95.7507 69.1187C102.083 69.1041 108.355 67.8938 114.238 65.5514C115.737 68.042 116.792 70.7744 117.356 73.6264C113.872 77.5564 109.927 81.0523 105.607 84.0384C103.285 97.9674 97.417 111.064 88.5677 122.069C85.3377 126.023 84.1692 131.094 82.6654 135.878C81.6042 139.219 80.2153 142.56 79.4914 145.957V145.957Z" fill="#FF465A"/>
<path d="M94.7484 6.80484C94.0911 5.0098 93.0028 3.40377 91.5792 2.12799C90.3596 2.1664 89.1941 2.64061 88.2941 3.46464C87.4024 4.28637 86.814 5.3849 86.624 6.58254C87.9073 7.26438 89.0134 8.23677 89.854 9.42209C90.3165 8.5481 91.0294 7.8321 91.9014 7.36581C92.7734 6.89953 93.7647 6.7042 94.7484 6.80484V6.80484Z" fill="#D70A32"/>
<path d="M94.3024 39.1583C95.3507 39.1834 96.3872 38.9339 97.3092 38.4344C96.4107 37.122 95.9259 35.5704 95.9174 33.9799C94.2473 33.3149 92.2979 31.0282 90.5718 31.4149C90.208 33.1729 89.6669 34.8894 88.9568 36.5382C89.6054 37.3355 90.4192 37.9826 91.3421 38.4349C92.265 38.8872 93.275 39.134 94.3024 39.1583Z" fill="#F2BF8C"/>
<path d="M94.4691 36.5954C95.1147 36.8146 95.7917 36.9276 96.4736 36.9298C96.0972 36.0308 95.9078 35.0647 95.9169 34.0902C94.2468 33.4252 92.2974 31.1386 90.5712 31.5252C90.4601 32.0819 90.2929 32.7498 90.1257 33.4737C91.2985 34.8515 92.7892 35.9229 94.4691 36.5954Z" fill="black"/>
<path d="M81.33 39.9955C77.7105 41.1089 75.1484 44.2268 72.8104 47.1784C69.247 51.6881 65.6854 56.1987 63.0653 61.3211C67.8413 64.5043 73.082 66.9277 78.6007 68.505C79.276 68.1103 79.8622 67.5799 80.3224 66.9473C80.7825 66.3146 81.1065 65.5935 81.274 64.8294C79.3806 63.9944 78.3223 62.2644 76.9866 60.7093C75.6509 59.1541 73.8146 57.6436 71.6961 57.8108C74.3694 55.2458 76.7634 52.8547 79.2134 50.0712C80.4931 48.8271 81.4653 47.3019 82.053 45.6166C82.5546 44.0016 81.6046 41.6627 81.33 39.9955V39.9955ZM103.881 28.9669C101.097 35.9836 93.6354 35.9836 89.4592 31.3619C86.6747 28.2991 85.5642 26.1834 85.7846 22.3967C85.8397 21.3945 85.4502 20.3922 85.5053 19.3339C85.7285 14.8243 85.6174 9.97927 90.4054 7.86362C94.5265 6.08142 101.765 5.46962 104.275 10.2025C106.058 13.5437 106.225 18.2775 105.667 21.8961C105.342 24.3133 104.743 26.6855 103.881 28.9669Z" fill="#F2BF8C"/>
<path d="M85.7829 22.3981L85.9491 22.2309C86.475 21.6605 86.9243 21.024 87.2858 20.3375C87.746 19.4342 88.1023 18.4816 88.3479 17.498C89.1829 14.8256 90.5747 10.9829 94.1942 11.3733C95.4954 11.5784 96.7552 11.9918 97.9248 12.5979C99.1478 13.2663 100.567 13.4833 101.934 13.2106C102.386 13.0638 102.816 12.8578 103.214 12.5979C103.698 12.3529 104.163 12.0738 104.607 11.7628C104.696 11.7206 104.775 11.6597 104.839 11.5842C104.902 11.5087 104.949 11.4204 104.975 11.3253C105.002 11.2303 105.007 11.1306 104.992 11.0332C104.976 10.9357 104.94 10.8428 104.885 10.7606C104.439 9.83156 103.815 8.99915 103.048 8.31054C102.358 7.71069 101.566 7.23933 100.709 6.91879C98.8923 6.26216 96.9528 6.01497 95.0292 6.19489C93.3848 6.31354 91.7692 6.68923 90.2412 7.30829C85.3962 9.42394 84.9507 14.5473 84.7312 19.0569C84.8329 20.0592 85.838 21.3958 85.7829 22.3981V22.3981Z" fill="black"/>
<path d="M90.5174 19.4475C91.0341 19.1426 91.6134 18.959 92.2114 18.9106C92.8095 18.8622 93.4107 18.9503 93.9697 19.1682C94.5218 19.3967 95.0116 19.7532 95.3988 20.2083C95.7859 20.6634 96.0594 21.204 96.1965 21.7855C95.2034 22.009 94.164 21.8915 93.2458 21.452C92.1606 21.0637 91.2124 20.367 90.5174 19.4475V19.4475ZM99.7049 21.9527C99.9285 21.4012 100.276 20.9086 100.721 20.5132C101.166 20.1178 101.696 19.8302 102.27 19.6727C102.849 19.531 103.453 19.5277 104.034 19.6632C104.614 19.7987 105.155 20.0692 105.611 20.4526C104.949 21.2274 104.045 21.7568 103.046 21.9555C101.958 22.293 100.793 22.292 99.7049 21.9527V21.9527Z" fill="white"/>
<path d="M94.8598 19.6671C94.5958 19.4476 94.2942 19.2777 93.9697 19.1655C93.4105 18.9486 92.8094 18.861 92.2115 18.9094C91.6137 18.9578 91.0345 19.1408 90.5174 19.4448C91.2124 20.3642 92.1606 21.0609 93.2458 21.4493C93.4814 21.5408 93.7233 21.6151 93.9697 21.6716C94.1957 20.9742 94.4941 20.3024 94.8598 19.6671ZM103.603 19.6139C103.175 19.5757 102.745 19.5946 102.322 19.6699C101.74 19.8107 101.202 20.0922 100.755 20.4898C100.308 20.8874 99.9651 21.3888 99.7571 21.9499C100.864 22.2902 102.047 22.2902 103.154 21.9499C103.369 21.9099 103.576 21.8348 103.767 21.7276C103.572 21.041 103.516 20.3224 103.603 19.6139V19.6139Z" fill="black"/>
<path d="M99.4807 28.3547C99.4026 28.7404 99.2292 29.1004 98.9763 29.4019C98.7234 29.7034 98.3991 29.9368 98.0329 30.0808C97.2266 30.265 96.3815 30.1668 95.6389 29.8025C94.4831 29.1888 93.5051 28.2873 92.7994 27.1852C94.9185 28.0439 97.1959 28.4425 99.4807 28.3547Z" fill="#E28A42"/>
<path d="M92.5204 27.0762C93.8257 27.2994 95.154 27.3553 96.4734 27.2424C97.0095 27.178 97.5485 27.1409 98.0884 27.1313C98.6267 27.1231 99.1598 27.2374 99.6473 27.4657C99.854 27.5466 100.027 27.6953 100.138 27.8873C100.25 28.0794 100.293 28.3035 100.26 28.523C98.9412 28.8445 97.569 28.8817 96.2346 28.6322C94.9002 28.3828 93.6342 27.8524 92.5204 27.0762V27.0762Z" fill="black"/>
<path d="M85.5045 18.9447C85.2991 18.6018 85.0036 18.3219 84.6502 18.1353C84.2968 17.9487 83.8989 17.8626 83.5 17.8864C83.2881 17.9401 83.0897 18.0371 82.9172 18.1714C82.7446 18.3056 82.6018 18.4741 82.4977 18.6663C82.3471 19.0401 82.2533 19.4343 82.2194 19.8358C82.1594 20.9695 82.3882 22.0998 82.8844 23.1209C83.0818 23.6088 83.386 24.0464 83.7745 24.4015C84.187 24.8193 84.7473 25.0582 85.3344 25.0665C85.5618 25.0836 85.79 25.0455 85.9994 24.9553C88.0106 24.012 86.3405 20.0581 85.5045 18.9447V18.9447Z" fill="#F2BF8C"/>
<path d="M83.6677 19.0018C84.2619 19.4297 84.7569 19.9805 85.1193 20.6168C85.7075 21.5867 85.9801 22.7153 85.8993 23.8468C85.6279 23.5404 85.293 23.2967 84.918 23.1327C84.543 22.9686 84.1368 22.8881 83.7276 22.8968C83.9552 22.7351 84.1451 22.5261 84.2843 22.2841C84.4962 21.8929 84.5743 21.4431 84.5066 21.0035C84.3649 20.2865 84.0796 19.6056 83.6677 19.0018V19.0018ZM99.0919 25.9615C98.5105 24.1863 98.3393 22.3024 98.5913 20.4515C97.8969 22.0149 97.2833 23.613 96.753 25.2395C97.0641 25.5271 97.4357 25.7412 97.8405 25.8662C98.2452 25.9911 98.6729 26.0237 99.0919 25.9615V25.9615Z" fill="#E28A42"/>
<path d="M90.5174 17.5537C91.0135 17.212 91.588 17.0012 92.1875 16.941C92.5284 16.9423 92.8669 16.9987 93.1897 17.1082C93.9697 17.2754 94.7487 17.4977 95.5286 17.7209C95.7778 17.8116 96.0431 17.8494 96.3076 17.8321C96.9204 17.776 97.3099 17.2193 97.6443 16.7738C97.7554 16.6066 97.8675 16.3843 97.9787 16.2171C96.204 15.7087 94.3679 15.4463 92.5219 15.4371C92.3291 15.414 92.134 15.4533 91.9652 15.5492C91.8088 15.6498 91.6756 15.7826 91.5747 15.9387C91.1653 16.4375 90.8108 16.979 90.5174 17.5537V17.5537ZM106.164 17.5537C105.826 17.2314 105.399 17.0179 104.938 16.941C104.688 16.9434 104.441 17.0004 104.214 17.1082C103.658 17.2754 103.101 17.4977 102.544 17.7209C102.377 17.776 102.155 17.8872 101.988 17.8321C101.542 17.776 101.264 17.2193 100.985 16.7738C100.874 16.6066 100.818 16.3843 100.707 16.2171C101.984 15.7124 103.343 15.448 104.716 15.4371C104.873 15.4204 105.031 15.4601 105.162 15.5492C105.285 15.6547 105.38 15.7883 105.44 15.9387C105.712 16.4626 105.954 17.0018 106.164 17.5537V17.5537Z" fill="black"/>
<path d="M87.2865 34.3696C93.3561 37.9891 96.9195 44.7246 98.8689 51.4639C100.706 57.8118 101.434 64.7164 99.5928 71.0643C97.2539 79.0263 91.1283 85.4302 84.2237 89.9959C80.1596 92.6692 75.649 94.9521 72.419 98.5716C72.5311 96.8454 70.9161 95.3976 69.4123 94.6177C66.9622 93.3371 64.1227 92.6692 61.951 90.943C60.9005 90.1071 60.0358 89.0613 59.4121 87.8725C58.7884 86.6837 58.4194 85.3779 58.3286 84.0384C58.1063 80.1434 60.278 76.4651 62.8953 73.5695C65.5125 70.6739 68.6903 68.2799 71.1916 65.2731C78.7118 56.2529 79.2685 42.9414 87.2865 34.3696V34.3696Z" fill="#FFD340"/>
<path d="M98.8693 51.5175C97.0871 45.3368 93.9692 39.1561 88.7907 35.4245C91.1471 39.0689 92.4745 43.2826 92.6325 47.6196C92.7051 49.2951 92.6119 50.9737 92.3542 52.6309C93.4078 53.7978 94.2891 55.1094 94.9714 56.5259C97.0596 60.9859 98.1249 65.8561 98.0893 70.7806C98.0908 72.5558 97.9228 74.327 97.5877 76.0702C98.4271 74.4926 99.0992 72.8315 99.5932 71.1141C101.43 64.7139 100.707 57.8644 98.8693 51.5175V51.5175Z" fill="#FDB849"/>
<path d="M77.5422 94.7273L77.1527 94.2267C78.8228 92.9461 80.605 91.7767 82.3312 90.6072C86.2485 88.1462 89.8902 85.2714 93.1935 82.0325C95.36 79.9004 96.9173 77.228 97.7041 74.2919C98.0893 72.2524 98.106 70.1604 97.7535 68.115C97.0878 63.1759 95.5213 58.401 93.1317 54.0274L93.6894 53.694C96.1301 58.1292 97.7166 62.9832 98.3662 68.0039C98.7172 70.1257 98.6982 72.2924 98.3102 74.4078C97.5249 77.4625 95.9057 80.2386 93.6333 82.4258C90.3092 85.7155 86.6305 88.6264 82.6646 91.105C80.9945 92.2773 79.2123 93.4467 77.5422 94.7273V94.7273Z" fill="black"/>
<path d="M85.2269 79.8615C80.1418 81.551 74.6407 81.5116 69.5804 79.7494C70.082 78.7472 70.7498 77.857 71.2514 76.8538C75.9609 77.7001 80.7942 77.5675 85.4501 76.4643C85.5444 77.6015 85.4692 78.7464 85.2269 79.8615Z" fill="#FDB849"/>
<path d="M85.171 65.2167L89.351 67.055C89.7965 67.2212 90.301 67.5556 90.2421 68.0572C90.186 68.3907 89.8516 68.669 89.8516 69.0072C89.8516 69.3454 90.0749 69.62 90.0188 69.8983C89.9637 70.399 89.2949 70.6222 89.0688 71.1229C88.9016 71.5133 89.1239 72.0729 88.7905 72.3484C88.6175 72.4796 88.4308 72.5917 88.2338 72.6828C87.8994 72.849 87.7322 73.1834 87.4538 73.4067C87.0871 73.6447 86.6763 73.8066 86.2458 73.883C85.8153 73.9594 85.3739 73.9486 84.9477 73.8513C84.2114 73.7435 83.4852 73.576 82.776 73.3506C83.7981 72.6923 85.0348 72.4541 86.2283 72.6856C85.5054 72.5184 84.7815 72.2952 84.0576 72.184C83.8072 72.1434 83.5637 72.0686 83.3337 71.9617C83.1227 71.8247 82.9345 71.6555 82.776 71.4601C82.4094 70.9237 82.1996 70.2956 82.1702 69.6465C82.1408 68.9974 82.2931 68.3529 82.6098 67.7855C83.1116 66.6387 84.0256 65.722 85.171 65.2167V65.2167Z" fill="#F2BF8C"/>
<path d="M88.6784 37.3192C87.6761 35.593 85.3382 34.9812 83.3888 35.4819C81.4896 36.1061 79.757 37.1533 78.3215 38.5447C71.91 44.3914 66.5104 51.259 62.3415 58.869C61.6439 59.8349 61.3266 61.0241 61.4504 62.2092C61.7287 63.1088 62.2721 63.9034 63.0094 64.4892C68.1091 69.2036 74.5906 72.1518 81.4954 72.8976C82.8952 72.1755 84.0271 71.0243 84.7254 69.6125C85.5605 68.1273 86.1259 66.506 86.3955 64.8236C83.4714 62.4205 80.0763 60.6565 76.4291 59.6451C78.9941 57.3651 81.5515 54.9122 83.9455 52.5201C86.0621 50.4035 88.1777 48.1207 89.2911 45.3372C89.8522 44.0524 90.0898 42.6497 89.9829 41.2519C89.8761 39.854 89.4282 38.5037 88.6784 37.3192V37.3192Z" fill="#FDB849"/>
<path d="M105.606 162.494L105.774 162.828C106.107 163.385 106.998 163.663 107.5 163.942C108.321 164.357 109.18 164.693 110.065 164.944C111.978 165.575 113.931 166.078 115.911 166.448C117.914 166.799 119.949 166.929 121.981 166.837C123.607 166.808 125.228 166.64 126.826 166.336C126.938 166.002 127.104 165.671 127.216 165.333C127.443 165.276 127.665 165.202 127.881 165.111C127.268 161.492 123.482 161.492 121.644 160.991C119.406 159.859 117.247 158.575 115.184 157.148C115.351 156.258 115.519 155.311 115.63 154.42C115.686 154.03 115.686 153.53 115.463 153.363C115.41 153.316 115.348 153.281 115.281 153.262C115.213 153.243 115.142 153.239 115.073 153.25C114.712 153.224 114.35 153.281 114.015 153.418C113.514 153.641 113.013 153.808 112.512 154.03C111.99 154.199 111.514 154.484 111.119 154.865C110.897 155.089 110.73 155.362 110.633 155.662C110.537 155.962 110.512 156.28 110.562 156.592C109.672 155.642 108.781 154.643 107.89 153.696C107.665 154.253 107.497 154.831 107.389 155.422C107.333 156.035 107.612 156.759 108.054 156.815C107.292 158.133 106.198 159.228 104.88 159.989C104.768 160.044 104.656 160.1 104.656 160.267C104.648 160.363 104.667 160.46 104.712 160.545C104.86 161.254 105.165 161.92 105.606 162.494V162.494Z" fill="#17447D"/>
<path d="M116.799 166.112C118.162 166.343 119.538 166.491 120.919 166.558C122.368 166.604 123.818 166.567 125.263 166.446C125.819 166.39 126.321 166.334 126.878 166.279C126.983 165.953 127.113 165.636 127.267 165.329H127.323C123.481 165.553 119.695 165.553 115.853 165.664C115.462 165.673 115.071 165.654 114.683 165.609C115.364 165.868 116.075 166.037 116.799 166.112V166.112Z" fill="white"/>
<path d="M117.077 165.892C115.639 165.727 114.209 165.505 112.789 165.227C111.527 164.989 110.281 164.672 109.059 164.277C107.814 163.82 106.634 163.203 105.55 162.439V162.494C105.002 163.085 104.339 163.559 103.602 163.887C103.675 165.24 103.957 166.573 104.437 167.84C105.77 168.301 107.153 168.601 108.557 168.731C109.911 168.748 111.235 168.339 112.344 167.562C112.658 167.384 113.013 167.29 113.374 167.29C113.735 167.29 114.09 167.384 114.404 167.562C115.052 167.885 115.651 168.298 116.186 168.786C119.025 171.066 122.979 169.009 126.153 167.673C126.441 167.263 126.665 166.813 126.818 166.336C126.355 166.364 125.89 166.364 125.426 166.336C122.701 166.281 119.861 166.225 117.077 165.892V165.892ZM114.516 161.047L114.181 160.49C115.405 159.824 116.411 158.818 117.077 157.594L117.633 157.929C116.891 159.228 115.815 160.304 114.516 161.047V161.047ZM117.466 161.938L116.966 161.492C117.746 160.577 118.436 159.589 119.025 158.541L119.583 158.875C118.994 159.972 118.284 160.999 117.466 161.938V161.938ZM112.009 159.766L111.731 159.153C113.048 158.626 114.228 157.808 115.183 156.759L115.685 157.149C114.703 158.32 113.438 159.221 112.009 159.766V159.766Z" fill="black"/>
<path d="M68.7453 167.06C68.6892 167.06 68.6892 167.116 68.7453 167.06C68.7453 167.227 68.8564 167.283 68.9125 167.45C69.3449 168.06 69.9177 168.556 70.5826 168.898C71.3549 169.436 72.1751 169.902 73.0326 170.29C74.8443 171.167 76.7254 171.894 78.6566 172.461C80.558 173.021 82.5221 173.34 84.5029 173.411C86.0641 173.495 87.6295 173.439 89.1807 173.245C89.3354 172.883 89.4655 172.51 89.5702 172.131C89.7374 172.076 90.0158 172.02 90.2352 171.963C89.7336 167.783 86.0552 167.454 84.3329 166.73C83.4418 166.34 79.8783 163.278 78.1522 161.83C78.3774 160.801 78.5446 159.76 78.6528 158.712C78.7476 158.278 78.6885 157.825 78.4856 157.43C78.4441 157.382 78.3932 157.342 78.3359 157.313C78.2786 157.285 78.2161 157.268 78.1522 157.264C77.8152 157.187 77.4618 157.226 77.1499 157.375C76.6483 157.542 76.1467 157.765 75.6461 157.932C75.1311 158.08 74.668 158.369 74.3094 158.767C74.0771 159.03 73.9064 159.341 73.8101 159.679C73.7138 160.016 73.6942 160.371 73.7527 160.716C72.9177 159.547 72.0826 158.321 71.2476 157.152C70.9636 157.766 70.7937 158.427 70.746 159.101C70.6899 159.825 70.9132 160.66 71.3587 160.772C70.6342 162.175 69.5358 163.351 68.1848 164.169C68.0736 164.224 67.9615 164.28 67.9615 164.447V164.725C68.062 165.549 68.3286 166.343 68.7453 167.06Z" fill="#466DA3"/>
<path d="M79.3807 172.683C80.7076 173.122 82.0668 173.457 83.4458 173.685C84.7995 173.769 86.1571 173.769 87.5108 173.685C88.083 173.618 88.6339 173.428 89.1258 173.128C89.2379 172.795 89.4042 172.405 89.5163 172.071C89.5163 172.071 86.7879 173.241 76.8205 171.347C77.6384 171.858 78.4943 172.304 79.3807 172.683V172.683Z" fill="white"/>
<path d="M80.2158 172.572C78.8801 172.127 76.9307 171.18 75.594 170.735C74.3756 170.353 73.185 169.888 72.0306 169.343C70.8222 168.736 69.7143 167.947 68.7455 167.004V167.059C68.2385 167.686 67.5894 168.182 66.8521 168.507C66.9014 170.068 67.1244 171.618 67.5171 173.129C68.7662 173.756 70.0967 174.206 71.4701 174.466C72.7774 174.605 74.0892 174.247 75.1447 173.463C75.4569 173.286 75.8154 173.207 76.1732 173.237C76.531 173.267 76.8715 173.404 77.1501 173.631C77.7908 174.073 78.3711 174.597 78.8763 175.189C81.5486 178.029 85.4465 175.969 88.5093 174.688C88.797 174.238 89.0208 173.751 89.1743 173.24C88.8255 173.319 88.472 173.375 88.116 173.407C86.7705 173.602 85.4087 173.658 84.0519 173.574C82.7451 173.359 81.461 173.023 80.2158 172.572V172.572ZM77.3762 166.061L76.9867 165.504C78.1499 164.76 79.1378 163.772 79.8823 162.609L80.439 162.999C79.6534 164.231 78.6081 165.276 77.3762 166.061V166.061ZM80.2158 167.339L79.6591 166.893C80.454 165.889 81.1444 164.807 81.7196 163.663L82.3324 163.998C81.7664 165.194 81.0555 166.316 80.2158 167.339V167.339ZM75.0373 164.446L74.759 163.833C76.1014 163.328 77.2774 162.461 78.1562 161.327L78.7129 161.718C77.7446 162.93 76.4781 163.87 75.0373 164.446V164.446ZM99.1483 12.0963C98.4626 10.8459 97.4889 9.77674 96.3078 8.97749C95.8072 8.64404 93.6915 7.97524 93.0778 8.53194C89.4023 11.9842 88.2889 17.5569 85.6165 21.8405C82.9993 26.1278 79.603 29.9696 77.8769 34.7025C77.2764 36.1884 76.9736 37.7778 76.9858 39.3803C77.2186 41.0532 78.0022 42.6008 79.2126 43.7788C76.373 39.102 80.1037 33.1436 83.1076 28.7451C84.3331 26.9629 85.6726 25.46 86.9494 23.7338C90.2905 19.3344 92.1839 14.6575 95.4139 9.64629C96.7479 10.3182 98.0008 11.1402 99.1483 12.0963V12.0963Z" fill="black"/>
</g>
<defs>
<clipPath id="clip0_1118_144">
<rect width="190" height="190" fill="white"/>
</clipPath>
</defs>
</svg>
