<svg width="190" height="190" viewBox="0 0 190 190" fill="none" xmlns="http://www.w3.org/2000/svg">
<g clip-path="url(#clip0_1118_239)">
<path d="M50.0958 0.00183105C51.116 5.47618 50.7899 11.1165 49.1458 16.4368C51.7784 15.3255 53.9969 13.4176 55.4899 10.981C55.1099 16.7541 53.1434 22.8446 49.4004 27.2849C52.1012 27.2212 54.7674 26.6622 57.2664 25.6357C55.9936 28.1447 54.2323 30.374 52.0858 32.1927C49.9394 34.0114 47.4511 35.3828 44.7672 36.2263C47.6667 37.0304 50.6444 37.5196 53.6488 37.6855C52.3873 39.1053 50.8311 40.2326 49.0889 40.9887C47.3466 41.7448 45.4603 42.1115 43.5617 42.0631C45.4127 42.7468 47.431 42.8354 49.3348 42.3167C47.1206 45.0959 44.4103 47.4405 41.3415 49.2318C38.6097 48.6368 36.1152 47.2461 34.1728 45.2351C33.5905 41.5009 33.4201 37.714 33.6646 33.9425C33.7316 32.6279 33.9663 31.3273 34.3628 30.0722C35.0685 28.3648 36.0078 26.7636 37.1539 25.3146C42.4198 17.8922 46.8601 8.43973 50.0958 0.00183105Z" fill="black"/>
<path d="M81.1168 112.735L80.4822 111.276C84.2975 109.519 87.7158 107.004 90.5295 103.885C93.3431 100.766 95.4934 97.107 96.8497 93.1313C97.738 90.4713 97.738 88.5 96.9134 87.1045C95.7078 85.0743 92.9167 84.5034 90.6966 84.6345C89.6099 84.7155 88.5293 84.8637 87.4609 85.0781C85.9151 85.3858 84.342 85.5345 82.766 85.5218C79.9749 85.4591 76.5492 83.9362 75.7882 80.9542C75.5199 79.4961 75.6069 77.9948 76.0419 76.5775C76.2514 75.7691 76.3787 74.9415 76.4219 74.1075C76.3839 72.9441 76.0849 71.8041 75.5468 70.7719C75.0088 69.7397 74.2455 68.8417 73.3135 68.1444C71.3256 66.6589 69.1499 65.4431 66.843 64.5287L67.4776 63.0695C69.9623 64.008 72.293 65.3122 74.3927 66.9388C75.5051 67.7949 76.4127 68.8883 77.0492 70.1394C77.6857 71.3906 78.0351 72.7679 78.072 74.1712C78.0216 75.111 77.8725 76.043 77.6274 76.9518C77.2641 78.1215 77.1772 79.3595 77.3738 80.5685C77.9438 82.7886 80.6095 83.8669 82.8296 83.9305C84.3003 83.9339 85.7673 83.7849 87.2072 83.4859C88.3402 83.276 89.4838 83.1279 90.6329 83.0423C94.1859 82.8523 97.0407 84.0578 98.3726 86.3416C99.4508 88.1808 99.4508 90.5919 98.4362 93.7003C96.961 97.8659 94.6693 101.695 91.6953 104.964C88.7213 108.232 85.1249 110.875 81.1168 112.735V112.735Z" fill="#17447D"/>
<path d="M59.2304 182.836C61.4515 182.266 63.6717 181.506 65.8918 180.806C58.9768 165.77 39.8818 125.549 39.0572 119.396C40.7672 118.636 42.5456 117.049 43.9421 111.529C45.2103 106.581 45.4621 100.681 46.4795 95.669C46.8893 93.4215 47.4201 91.1978 48.0698 89.0076C45.2787 88.8813 43.8195 91.0976 42.9313 92.9416C41.9341 94.7502 41.2075 96.6953 40.7748 98.7147C40.3948 92.2433 37.4754 86.2802 34.6207 80.4434C33.4664 78.0597 32.3245 75.6701 31.195 73.2747C29.9258 73.5283 29.485 74.4147 29.1648 75.6221C28.922 76.9416 28.9005 78.2922 29.1012 79.6188C29.362 80.8443 29.7006 82.0519 30.1148 83.2345C28.1474 80.317 27.1328 78.6669 25.2926 77.0813C23.5171 75.4948 21.106 74.5439 18.9485 73.402C18.7338 74.2499 18.7137 75.1353 18.8895 75.9921C19.0654 76.8489 19.4327 77.6548 19.9641 78.3496C18.8858 77.6523 17.6166 77.3996 16.5384 76.7004C16.2241 77.6829 16.1523 78.727 16.3289 79.7434C16.5056 80.7597 16.9256 81.7183 17.553 82.5372C18.1876 83.3618 19.073 83.9964 19.7741 84.7573C21.3892 86.7318 22.304 89.1861 22.3752 91.736C19.5135 89.1405 16.4594 86.7653 13.239 84.631C11.4635 89.8959 17.6166 92.8779 19.3295 97.3182C21.2295 102.203 18.8858 107.469 19.4568 112.481C20.0268 116.921 24.2144 120.538 26.0545 124.535C34.7461 143.883 38.2345 164.375 43.1194 184.739C48.5543 184.905 53.9837 184.264 59.2304 182.836Z" fill="#E57B23"/>
<path d="M32.6494 120.855C33.7894 121.934 35.7578 122.124 37.217 122.185C38.0391 122.248 38.8649 122.248 39.687 122.185C39.3857 121.257 39.1735 120.303 39.0534 119.335C39.3735 119.333 36.4561 120.729 32.6494 120.855ZM27.0663 89.2618C26.6696 87.5858 26.1175 85.9504 25.4171 84.3769C24.6964 82.9176 23.6576 81.6385 22.3771 80.6339C21.9325 80.2539 21.4888 79.9366 21.0471 79.5556C22.5063 81.5221 23.9018 83.4259 25.171 85.5188C25.8607 86.788 26.4317 88.0572 27.0663 89.2618V89.2618ZM28.8428 84.2505C30.0499 86.8395 31.1297 89.4858 32.0785 92.1802C32.0148 91.1019 31.8885 89.96 31.7612 88.8818C31.6241 87.5191 31.326 86.1776 30.8729 84.8851C30.6614 84.3466 30.3845 83.8361 30.0483 83.3651C28.877 81.4178 27.517 79.5904 25.988 77.9093C26.178 78.353 26.368 78.7339 26.558 79.1785C27.3324 80.8634 28.094 82.5541 28.8428 84.2505V84.2505ZM35.8851 102.648C33.9116 104.145 32.2917 106.057 31.1405 108.25C29.9892 110.443 29.3348 112.862 29.2237 115.336C28.2737 111.53 27.1936 107.787 26.4317 103.98C29.3548 104.107 33.0294 102.141 35.8851 102.648Z" fill="#B2490F"/>
<path d="M110.996 158.35C104.652 158.286 94.3116 158.096 89.4903 153.084C87.1429 150.614 87.2103 145.218 87.2702 141.918C87.3881 137.863 88.0921 133.846 89.3602 129.992C91.4502 123.521 94.8797 117.621 98.6227 111.974C102.112 106.709 106.236 101.825 107.949 95.6068C109.725 89.0091 108.709 82.094 107.949 75.3063C106.933 65.9174 106.553 56.274 108.899 47.0751C111.244 37.8763 116.576 29.1201 124.823 24.4908C133.07 19.7959 145.187 19.9859 152.166 26.3908C158.065 26.8981 163.267 30.7684 166.376 35.7796C169.484 40.7909 170.627 46.8186 170.627 52.7191C170.627 58.6195 169.548 64.4554 168.47 70.2285C167.14 77.2699 164.283 83.3604 164.409 90.7827C164.518 97.9445 166.464 104.958 170.06 111.153C172.09 114.706 174.691 117.878 176.975 121.24C179.119 124.304 180.907 127.603 182.303 131.073C185.906 140.21 185.997 150.358 182.557 159.558C182.621 157.468 180.718 155.815 179.005 154.609C177.225 153.468 175.206 152.753 173.105 152.519C164.794 151.251 156.42 153.408 148.236 155.058C135.959 157.36 123.487 158.462 110.996 158.35V158.35Z" fill="black"/>
<path d="M178.18 180.173C182.051 164.884 183.129 148.452 178.37 133.418C177.517 130.379 176.119 127.52 174.246 124.98C171.392 121.554 166.951 119.588 162.637 118.318C153.946 115.848 154.072 114.258 149.505 112.609C140.367 116.965 130.093 118.34 120.132 116.542C119.426 116.56 118.733 116.733 118.102 117.05C117.532 117.24 116.897 117.367 116.326 117.62C115.247 118 114.236 118.445 113.217 118.888C110.354 120.164 107.408 121.246 104.399 122.124C101.315 122.82 98.4368 124.226 95.9921 126.23C93.5473 128.234 91.6038 130.781 90.3159 133.668C86.7002 141.026 85.241 149.147 82.8936 157.014C80.5025 164.899 77.1126 172.446 72.8065 179.472C83.4258 177.653 94.2735 177.61 104.907 179.344C110.109 180.169 115.185 181.434 120.386 182.263C127.592 183.353 134.861 183.968 142.147 184.102C154.518 184.423 166.571 184.487 178.18 180.173Z" fill="#14D29B"/>
<path d="M105.415 137.032C106.494 139.379 107.636 141.663 108.904 143.883C109.983 145.85 111.251 147.69 112.33 149.593C114.487 153.209 116.581 156.889 119.499 159.871C120.799 161.293 122.374 162.437 124.129 163.233C125.89 163.977 127.812 164.261 129.713 164.057C133.709 163.74 137.389 161.777 140.688 159.553C143.874 157.286 146.885 154.784 149.697 152.067C157.119 145.025 163.4 136.842 169.236 128.34C170.376 126.691 171.516 125.042 172.725 123.392C171.657 122.443 170.487 121.614 169.236 120.922C168.543 121.625 167.866 122.345 167.206 123.08C161.042 129.51 154.541 135.608 147.731 141.35C144.906 143.781 141.894 145.987 138.723 147.948C135.619 149.923 132.103 151.16 128.445 151.565C124.776 151.795 121.154 150.64 118.296 148.329C115.377 146.049 113.411 142.873 111.38 139.827L107.955 134.88C106.686 132.98 105.544 131.073 104.402 129.107C103.26 127.14 102.182 125.173 101.04 123.206C100.585 123.392 100.141 123.604 99.7097 123.841C101.672 128.277 103.448 132.716 105.415 137.032V137.032ZM92.4099 154.161C93.9586 160.815 95.9942 167.345 98.5003 173.701C99.1976 175.411 99.8959 177.126 100.657 178.776C102.052 178.966 103.448 179.156 104.907 179.346C107.953 179.853 110.998 180.486 114.106 181.056C113.128 179.97 112.217 178.826 111.379 177.63C107.975 172.745 105.144 167.486 102.941 161.955C100.281 155.548 98.0557 148.95 96.0256 142.353C94.82 138.229 93.6154 134.105 92.5362 129.918C91.7203 131.085 90.9992 132.315 90.3797 133.597C90.0033 134.319 89.6643 135.061 89.3642 135.818C89.9664 141.993 90.9839 148.122 92.4099 154.161V154.161ZM158.641 184.041C160.608 181.249 162.448 178.331 164.224 175.476C168.157 169.259 171.774 162.852 175.263 156.318C177.23 152.702 179.069 149.085 180.909 145.406C180.412 141.406 179.562 137.457 178.372 133.606C176.092 137.603 173.74 141.536 171.203 145.406C167.714 150.862 163.907 156.19 159.91 161.33C156.357 165.845 152.61 170.205 148.681 174.398C145.464 177.998 141.822 181.194 137.833 183.914C139.229 183.978 140.624 184.041 142.02 184.041C147.729 184.231 153.185 184.359 158.641 184.041V184.041Z" fill="#008C6E"/>
<path d="M106.621 68.7707C105.92 70.3437 105.742 72.1003 106.114 73.7819C106.32 74.6184 106.766 75.3764 107.397 75.9626C108.029 76.5488 108.818 76.9377 109.667 77.0813C110.469 77.1297 111.269 76.9611 111.984 76.5934C112.698 76.2256 113.301 75.6722 113.727 74.9913C114.566 73.6159 115.005 72.0344 114.996 70.4237C115.181 68.7535 114.778 67.0709 113.856 65.6661C110.935 62.0456 107.763 65.9786 106.621 68.7707V68.7707ZM103.006 86.9774C102.066 88.7248 101.796 90.7547 102.246 92.6869C103.006 95.3517 105.48 97.1918 108.145 98.0164C109.981 98.6865 112.005 98.6184 113.791 97.8264C116.329 96.4964 117.344 93.1952 116.837 90.3404C116.329 87.4857 114.679 85.0109 113.094 82.6635C111.574 80.3835 110.365 77.9059 107.828 80.5735C105.953 82.4933 104.333 84.6455 103.006 86.9774V86.9774Z" fill="#FDB849"/>
<path d="M114.932 65.8537C114.704 66.2498 114.382 66.5841 113.995 66.8274C113.608 67.0706 113.167 67.2155 112.711 67.2492C112.255 67.2274 111.814 67.0733 111.443 66.8056C109.626 65.5478 108.286 63.7155 107.637 61.6034C106.668 58.7925 106.385 55.7906 106.812 52.8482C106.948 51.6879 107.315 50.5665 107.89 49.5498C108.187 49.0525 108.592 48.6287 109.075 48.31C109.558 47.9914 110.107 47.7861 110.681 47.7096C114.044 47.3923 116.708 52.0872 116.962 55.0056C117.343 58.494 117.089 62.8716 114.932 65.8537V65.8537Z" fill="#E57B23"/>
<path d="M112.267 62.1096C112.964 59.8296 113.726 57.4783 113.345 55.0672C113.028 53.2917 111.315 49.866 109.095 49.866H108.841C110.427 51.8325 109.601 55.0045 109.538 57.2883C109.444 58.8841 109.571 60.4854 109.918 62.0459C110.232 63.3859 110.7 64.6847 111.314 65.9162C111.541 64.6264 111.86 63.3543 112.267 62.1096V62.1096Z" fill="#B2490F"/>
<path d="M101.165 159.427C94.8848 139.698 86.3842 115.4 80.0401 95.6672C72.2368 94.208 53.5218 90.465 52.1899 90.4014L50.0324 92.6814C56.2502 112.916 65.639 135.124 72.6177 155.17C75.1552 155.684 94.8211 158.476 101.165 159.427Z" fill="#FF465A"/>
<path d="M99.0087 161.71C92.7283 141.981 84.2267 117.683 77.8826 97.9529C70.0803 96.4937 51.3653 92.7507 50.0324 92.687C56.6938 114.32 63.0379 136.017 70.4574 157.396C72.9977 157.967 92.6646 160.759 99.0087 161.71V161.71Z" fill="#D70A32"/>
<path d="M62.72 107.405C62.53 106.708 62.34 105.946 62.15 105.249C61.58 103.282 60.8818 100.173 59.2953 98.7775C58.9217 98.4516 58.4488 98.2617 57.9536 98.2388C57.4583 98.2159 56.9699 98.3612 56.5678 98.6512C55.1713 99.9812 56.2505 102.584 56.6942 104.107C57.8342 107.659 58.5343 110.197 59.6126 113.94C59.9926 115.209 60.7526 116.98 62.341 117.17C63.5456 117.298 63.9265 116.346 64.051 115.27C64.0603 114.314 63.975 113.36 63.7964 112.42C63.4819 110.705 63.1646 109.056 62.72 107.405V107.405Z" fill="black"/>
<path d="M111.76 119.524C120.071 115.971 126.098 113.307 127.683 86.5985C132.997 84.2397 138.886 83.4897 144.622 84.4411C144.558 89.3896 144.685 94.4018 145.952 99.1594C147.218 103.917 149.504 113.307 157.117 116.415C146.839 123.965 135.42 124.916 126.602 137.731C123.69 126.692 116.961 126.058 111.76 119.524V119.524Z" fill="#E57B23"/>
<path d="M115.694 122.061C116.824 123.361 118.054 124.57 119.373 125.678C120.805 126.945 122.356 128.07 124.004 129.04C124.384 127.581 124.764 126.121 125.21 124.662C124.205 124.213 123.25 123.66 122.36 123.013C120.08 121.303 117.728 119.651 115.508 117.811C114.748 118.191 113.988 118.571 113.161 118.889C113.981 119.968 114.805 121.047 115.694 122.061ZM136.565 127.581C138.342 126.692 140.054 125.804 141.704 124.79C146.145 121.744 150.331 118.382 154.583 115.083C153.893 114.602 153.256 114.049 152.683 113.433C152.175 113.813 151.668 114.131 151.224 114.512C149.514 115.781 147.861 116.982 146.085 118.128C144.375 119.206 142.659 120.158 140.819 121.11C139.044 121.997 137.203 122.759 135.427 123.58C133.994 124.35 132.485 124.967 130.923 125.42C130.923 126.94 130.987 128.465 131.049 129.988C132.886 129.297 134.726 128.469 136.565 127.581V127.581Z" fill="#B2490F"/>
<path d="M134.662 97.6368C132.519 98.6323 130.172 99.1103 127.81 99.0324C127.118 99.0051 126.443 98.8094 125.844 98.4624C126.351 94.8467 127.364 91.421 127.619 86.5997C132.933 84.241 138.822 83.4909 144.558 84.4423C144.558 86.3423 144.558 88.2489 144.685 90.1518C141.896 93.3117 138.484 95.8602 134.662 97.6368V97.6368Z" fill="black"/>
<path d="M108.965 71.1192C109.043 73.1124 109.341 75.0908 109.853 77.0187C111.249 82.2209 114.421 87.2958 119.116 90.0879C128.378 95.6064 141.129 93.1963 149.313 86.7249C156.228 81.3327 159.718 73.403 162.699 65.3499C164.92 59.3858 166.886 52.6617 166.315 46.2549C165.681 38.9589 159.718 33.503 153.881 29.76C148.171 26.0179 141.193 23.0996 134.278 23.5432C130.981 23.669 127.817 24.8723 125.27 26.9689C118.1 33.1866 113.342 44.0984 111.186 52.9163C110.11 58.8747 108.714 65.0924 108.965 71.1192V71.1192Z" fill="#E57B23"/>
<path d="M167.206 46.3123C166.572 39.0163 160.1 33.1168 154.327 29.3073C148.618 25.5643 141.385 22.5822 134.472 23.0268C130.996 23.2403 127.672 24.5257 124.956 26.7062C118.041 32.733 113.536 42.7612 111.506 52.2726C112.553 50.1858 113.74 48.1723 115.059 46.2458C116.836 43.5858 118.485 40.8536 120.389 38.3161C122.193 35.6665 124.397 33.3124 126.923 31.3374C128.009 30.5143 129.233 29.8912 130.538 29.4973C131.705 29.2427 132.905 29.1785 134.091 29.3073C136.181 29.4973 138.659 30.3219 139.357 32.4157C142.397 30.5765 146.652 32.0984 149.507 33.6849C152.558 35.2422 155.011 37.7618 156.486 40.8536C157.759 43.9874 158.26 47.3817 157.945 50.7497C157.755 54.6837 156.995 58.553 156.739 62.5497C156.514 66.0882 156.834 69.6403 157.689 73.0814C158.396 73.0159 159.095 72.8888 159.779 72.7014C160.859 70.3539 162.249 67.8801 163.205 65.469C165.366 59.3805 167.714 52.72 167.206 46.3123Z" fill="black"/>
<path d="M132.898 47.7211C133.182 46.7094 132.783 45.7125 132.007 45.4946C131.232 45.2767 130.372 45.9203 130.088 46.9321C129.804 47.9438 130.203 48.9407 130.978 49.1586C131.754 49.3765 132.614 48.7329 132.898 47.7211Z" fill="#D70A32"/>
<path d="M133.901 58.7489C135.741 56.8489 137.581 54.9423 140.372 54.6886C145.447 53.9904 149.19 58.7489 148.239 63.5065C144.579 62.7623 141.006 61.6355 137.581 60.1445L133.901 58.7489ZM112.586 51.8966C114.425 49.9966 116.265 48.0909 119.056 47.8372C124.131 47.139 127.874 51.8966 126.923 56.6551C123.263 55.9119 119.691 54.7866 116.265 53.2978" fill="#B2490F"/>
<path d="M148.238 63.5056C147.768 62.082 146.982 60.7831 145.939 59.7062C144.896 58.6293 143.622 57.8022 142.215 57.2869C140.81 56.7947 139.303 56.6703 137.837 56.9258C136.371 57.1812 134.995 57.8079 133.84 58.7461C133.84 58.7461 135.236 61.1563 139.867 62.8054C142.506 63.948 145.446 64.1939 148.238 63.5056ZM126.858 56.5906C126.387 55.1669 125.6 53.8682 124.557 52.7916C123.513 51.715 122.239 50.8884 120.831 50.3737C119.427 49.8815 117.92 49.7572 116.454 50.0126C114.988 50.2681 113.612 50.8948 112.457 51.8329C112.457 51.8329 113.852 54.2431 118.484 55.8932C123.368 57.7961 126.858 56.5906 126.858 56.5906V56.5906Z" fill="white"/>
<path d="M141.006 61.1574C141.336 59.8652 141.847 58.6265 142.525 57.478C142.41 57.4075 142.28 57.3639 142.145 57.3507C140.741 56.859 139.234 56.735 137.768 56.9904C136.303 57.2458 134.927 57.8722 133.771 58.8099C133.771 58.8099 135.167 61.221 139.798 62.8702C140.041 62.9835 140.296 63.0686 140.558 63.1239C140.67 62.4605 140.819 61.8039 141.006 61.1574V61.1574ZM119.436 53.0368C119.756 52.1648 120.182 51.3354 120.704 50.5668C120.768 50.5031 120.768 50.4404 120.831 50.4404C119.427 49.9483 117.92 49.824 116.454 50.0792C114.988 50.3345 113.612 50.9609 112.457 51.8987C112.457 51.8987 113.853 54.3098 118.484 55.959C118.611 56.0226 118.674 56.0226 118.801 56.0863C118.908 55.0508 119.121 54.029 119.436 53.0368V53.0368ZM15.4573 98.3974C13.3911 96.7566 11.6116 94.7842 10.1914 92.5606C8.69438 90.2471 8.00309 87.504 8.22495 84.7573L10.0014 84.9473C9.81643 87.316 10.4175 89.6797 11.7114 91.6723C13.0622 93.7408 14.7321 95.5822 16.659 97.1282L15.4573 98.3974ZM8.85955 97.1918C6.42413 94.6361 5.02252 91.2683 4.9256 87.7393L6.7021 87.6757C6.78802 90.7654 8.03372 93.7095 10.1914 95.9226L8.85955 97.1918ZM40.8964 87.1684C39.9397 80.9612 37.5267 75.0688 33.855 69.9734L35.3142 68.9578C39.1289 74.2898 41.6484 80.4374 42.6729 86.9128L40.8964 87.1684ZM42.7992 79.936C42.3563 77.3261 41.4082 74.8278 40.0081 72.5811L41.5281 71.6311C43.039 74.0788 44.0707 76.7914 44.5681 79.6244L42.7992 79.936ZM126.604 46.8836C124.764 45.8681 123.051 44.6635 121.149 43.8379C119.261 42.9144 117.131 42.6042 115.058 42.9506C115.713 42.1014 116.579 41.438 117.569 41.0263C118.559 40.6145 119.64 40.4687 120.704 40.6032C122.844 40.8505 124.914 41.5188 126.794 42.5697C127.687 42.9317 128.521 43.4234 129.269 44.0289C128.44 45.1071 127.49 45.7417 126.604 46.8836V46.8836ZM152.107 59.2545C151.347 55.5115 148.809 53.8623 146.144 52.7204C143.49 51.7099 140.673 51.1947 137.833 51.2004C138.087 49.8049 138.403 48.4093 138.722 47.0128C141.561 47.3529 144.314 48.2134 146.841 49.5512C148.428 50.3758 150.394 51.7077 151.219 53.4842C152.044 55.2607 152.107 56.3998 152.107 59.2545V59.2545Z" fill="black"/>
<path d="M133.646 76.1919C131.746 78.3484 130.602 79.554 127.811 80.2522C126.528 80.5996 125.186 80.6645 123.877 80.4422C123.221 80.318 122.597 80.0631 122.042 79.6926C121.487 79.3221 121.013 78.8436 120.647 78.2857C120.295 77.7273 120.103 77.083 120.092 76.4231C120.08 75.7632 120.25 75.1128 120.583 74.5427C121.241 75.0237 122.001 75.3486 122.803 75.4927C126.328 76.4849 130.023 76.7231 133.646 76.1919V76.1919Z" fill="#B2490F"/>
<path d="M135.74 75.4954C133.241 75.8345 130.698 75.4152 128.44 74.2917C126.92 73.4662 125.59 72.2616 124.127 71.3733C122.541 70.4851 118.925 69.4059 117.973 71.817C117.884 72.0865 117.849 72.3711 117.871 72.6543C117.893 72.9374 117.971 73.2133 118.1 73.4662C119.62 76.5119 125.332 77.1465 128.25 77.4628C130.892 77.6254 133.516 76.9361 135.736 75.4963" fill="black"/>
<path d="M124.386 66.677C122.418 65.917 120.452 65.2178 119.056 63.637C122.285 60.4709 125.355 57.1466 128.255 53.6763C127.049 58.1128 126.035 62.2994 124.386 66.677Z" fill="#B2490F"/>
<path d="M151.536 75.4962C151.359 75.9138 151.285 76.3674 151.318 76.8196C151.351 77.2718 151.491 77.7097 151.726 78.0973C152.014 78.4394 152.386 78.7012 152.805 78.8573C154.895 79.6183 157.186 79.6183 159.276 78.8573C162.12 77.9898 164.711 76.4437 166.825 74.3524C167.68 73.5654 168.37 72.6167 168.855 71.5613C169.086 71.0268 169.195 70.4475 169.173 69.8658C169.151 69.2841 168.999 68.7147 168.728 68.1992C167.018 65.2808 161.623 65.9192 159.149 67.3746C156.104 69.2157 152.678 72.0068 151.536 75.4962V75.4962Z" fill="#E57B23"/>
<path d="M154.837 74.2918C156.606 74.2158 158.368 74.5637 159.975 75.3064C159.711 74.5959 159.666 73.8223 159.848 73.0862C160.228 71.627 161.748 71.1197 163.084 70.8651C164.419 70.6105 165.811 70.5488 167.144 70.3578C162.894 68.0731 157.374 70.2932 154.837 74.2918Z" fill="#B2490F"/>
<path d="M153.059 80.9515C152.357 82.5246 152.179 84.2817 152.551 85.9637C152.757 86.8001 153.203 87.558 153.834 88.1441C154.465 88.7302 155.254 89.1188 156.103 89.2621C156.906 89.3114 157.706 89.1433 158.421 88.7754C159.136 88.4076 159.738 87.8536 160.164 87.1721C161.002 85.7967 161.442 84.2152 161.433 82.6045C161.617 80.934 161.214 79.2516 160.293 77.8459C157.309 74.2274 154.201 78.1604 153.059 80.9515V80.9515Z" fill="#FFD340"/>
<path d="M174.437 133.988C174.837 131.363 175.05 128.713 175.072 126.058C175.093 123.376 174.37 120.74 172.982 118.445C170.631 114.952 152.424 100.429 148.808 94.1472C148.428 100.809 145.636 107.026 142.526 112.926C139.355 118.763 135.739 124.472 133.519 130.691C129.776 141.223 130.156 152.832 131.869 163.871C130.539 155.624 134.85 147.883 139.545 140.968C144.24 134.117 149.886 127.71 152.804 119.906C151.409 126.441 147.475 131.643 144.557 137.606C140.687 145.537 139.164 155.053 142.526 163.172C141.766 157.019 144.046 150.865 146.84 145.346C149.634 139.826 153.248 134.815 156.294 129.423C159.021 124.6 161.179 119.272 161.622 113.752C164.22 115.351 166.275 117.694 167.522 120.477C169.038 124.078 169.875 127.928 169.992 131.833C170.246 135.703 170.118 139.636 170.562 143.506C171.194 149.459 173.028 155.222 175.954 160.445C173.232 152.002 173.359 142.87 174.437 133.988V133.988Z" fill="black"/>
<path d="M149.38 99.1584C148.441 100.906 148.171 102.936 148.62 104.868C149.38 107.533 151.856 109.372 154.521 110.197C156.356 110.868 158.38 110.799 160.166 110.007C162.704 108.677 163.719 105.376 163.211 102.521C162.703 99.6667 161.055 97.1929 159.469 94.8454C157.949 92.5654 156.741 90.0878 154.203 92.7554C152.348 94.6915 150.729 96.8408 149.38 99.1584V99.1584Z" fill="#FFD340"/>
<path d="M140.118 187.913L137.648 186.203C130.288 180.9 123.486 174.864 117.347 168.186C111.32 161.652 105.737 154.546 102.629 146.109C100.789 141.16 103.644 129.741 88.6085 121.621L90.6301 127.645C87.839 127.455 85.047 124.916 82.8905 123.203C77.371 118.763 74.3899 106.519 66.4555 109.628C70.1985 115.717 73.5605 122.189 77.3672 128.216C73.9415 125.678 71.5304 122.189 68.6129 119.143C65.6955 116.097 62.9661 111.784 58.0812 113.561C59.1604 115.4 60.1114 117.621 61.1896 119.46C60.0496 118.32 59.4141 117.494 57.1303 118.51C58.9129 124.519 62.1611 129.991 66.5828 134.433C63.6007 131.515 58.6522 128.47 55.1628 131.832C61.8879 136.146 66.3918 141.919 71.3404 147.629C74.9718 151.876 79.1043 155.668 83.6476 158.921C85.8636 160.251 88.1508 161.458 90.499 162.537C92.8465 163.743 95.3212 164.627 97.4141 166.154C98.9639 167.386 100.369 168.791 101.602 170.34C106.042 175.606 109.785 181.316 114.163 186.708C116.003 188.929 119.237 189.5 122.093 189.88C128.19 190.704 133.9 187.088 140.118 187.913V187.913Z" fill="#E57B23"/>
<path d="M69.0002 137.35L67.8602 136.02C67.1629 135.195 67.1629 135.131 66.4646 134.369C64.5646 132.34 61.9607 130.754 59.9305 130.5C61.2071 131.426 62.4154 132.441 63.5462 133.54C65.2562 135.19 67.2256 137.728 69.764 138.362C69.6367 138.172 69.5103 138.045 69.384 137.854C69.3203 137.791 69.3203 137.728 69.2567 137.728C69.1911 137.603 69.0648 137.477 69.0002 137.35V137.35ZM66.7848 127.77C64.6283 124.852 61.0116 119.206 61.1389 119.397C60.6753 118.803 60.0621 118.344 59.3624 118.067C60.2507 120.224 61.1389 122.317 62.2124 124.347C62.9668 125.965 63.9263 127.479 65.0672 128.852C66.3972 130.372 68.1756 131.132 69.8884 132.087C70.2057 132.277 70.5867 132.531 70.904 132.721C69.4445 131.145 68.0695 129.492 66.7848 127.77V127.77Z" fill="#B2490F"/>
<path d="M26.2407 41.5555C26.2295 44.4681 26.7011 47.3624 27.6363 50.1207C28.3629 52.6051 29.6924 54.8713 31.5066 56.7175C34.1714 59.1875 38.0407 60.1432 41.72 59.9523C45.433 59.6372 49.0729 58.7379 52.5054 57.2875C53.4395 58.4586 54.6422 59.3871 56.0115 59.9945C57.3808 60.602 58.8763 60.8703 60.3714 60.7769C59.5389 60.4671 58.7901 59.9675 58.1844 59.3177C57.5787 58.668 57.1328 57.886 56.882 57.0339C58.3222 58.0601 59.9036 58.872 61.5769 59.444C63.3496 59.9359 65.2396 59.7785 66.9064 59.0004C64.4119 58.9993 62.0014 58.0984 60.1177 56.4629C62.04 57.0652 64.0781 57.2011 66.0633 56.8593C68.0485 56.5175 69.9237 55.7078 71.5339 54.4974C61.8278 54.8774 51.8043 51.1353 45.1429 44.0303C46.3484 39.589 46.1584 33.8159 49.7741 30.9611C58.0509 24.3018 64.7837 15.9254 69.5075 6.41028C64.19 12.1211 58.2768 17.2467 51.8689 21.6996C48.5695 23.9796 45.1438 26.0762 42.2254 28.8046C39.307 31.533 36.8351 34.9625 36.0742 38.8917C35.4396 35.2114 31.6966 32.5476 28.0809 31.5957C26.5433 31.1014 24.9038 31.014 23.3223 31.3421C22.5289 31.5043 21.7885 31.862 21.1682 32.3827C20.5479 32.9034 20.0674 33.5707 19.7703 34.3241C19.5271 35.1824 19.5225 36.0906 19.7568 36.9513C19.9911 37.812 20.4556 38.5925 21.1003 39.209C22.5643 40.4507 24.3435 41.2628 26.2407 41.5555V41.5555Z" fill="#466DA3"/>
<path d="M69.3816 6.28259C69.1391 11.854 67.5266 17.2797 64.6867 22.0792C67.5064 21.602 70.1039 20.248 72.11 18.2098C70.4657 23.9272 67.0709 28.9855 62.4029 32.6736C65.0526 33.2439 67.7862 33.3083 70.4598 32.8636C68.6527 35.0194 66.4288 36.788 63.9216 38.0635C61.4143 39.3389 58.6753 40.0948 55.8688 40.2859C58.4871 41.7662 61.2785 42.9168 64.1794 43.7116C62.6312 44.8004 60.8652 45.5402 59.0032 45.8797C57.1412 46.2192 55.2278 46.1505 53.395 45.6781C55.0271 46.8084 56.9973 47.3449 58.9772 47.1981C56.1561 49.3762 52.9806 51.0515 49.5902 52.1505C47.0743 50.9305 44.9608 49.015 43.4998 46.631C43.8157 42.8685 44.516 39.1482 45.5898 35.5283C45.9604 34.2595 46.494 33.0442 47.1772 31.9126C48.2446 30.4021 49.527 29.0556 50.9839 27.916C57.8353 21.9528 64.3694 13.7686 69.3816 6.28259V6.28259ZM28.7159 34.0691C28.556 33.5147 28.224 33.0254 27.7679 32.672C27.3118 32.3185 26.7552 32.1191 26.1784 32.1026C25.0157 32.1007 23.8991 32.5567 23.07 33.3718C25.0365 32.4199 26.813 32.8009 28.7159 34.0691V34.0691Z" fill="#17447D"/>
<path d="M20.5324 37.4957C17.8724 37.0511 15.9648 35.0846 14.061 33.1818C16.126 33.6257 18.2545 33.6901 20.3424 33.3718C20.7868 33.9981 20.9893 34.7642 20.9124 35.5283C20.884 36.1993 20.7559 36.8624 20.5324 37.4957V37.4957Z" fill="#D70A32"/>
</g>
<defs>
<clipPath id="clip0_1118_239">
<rect width="190" height="190" fill="white"/>
</clipPath>
</defs>
</svg>
