<svg width="190" height="190" viewBox="0 0 190 190" fill="none" xmlns="http://www.w3.org/2000/svg">
<g clip-path="url(#clip0_1118_199)">
<path d="M98.033 44.6763C98.7038 44.5697 99.3901 44.72 99.9549 45.0971C100.454 45.6132 100.733 46.3022 100.736 47.0199C100.701 49.4014 100.015 51.728 98.7531 53.7478C97.0716 56.8116 94.7888 59.8155 91.5445 61.1379C91.0809 61.3734 90.5487 61.437 90.0426 61.3174C89.7402 61.1689 89.4785 60.9492 89.2799 60.6772C89.0813 60.4051 88.9518 60.0888 88.9026 59.7556C88.0618 56.271 90.1642 52.5461 91.6063 49.4823C92.1681 48.1923 93.0562 47.0707 94.183 46.228C95.3099 45.3853 96.6368 44.8505 98.033 44.6763V44.6763Z" fill="#F7846C"/>
<path d="M99.0545 46.9595C97.3284 48.7484 95.779 50.6999 94.428 52.7868C95.3894 52.4267 96.291 52.0667 97.2514 51.7057C95.9128 54.9491 93.4645 57.611 90.344 59.2154C90.5245 59.1556 91.1249 55.671 91.3054 55.1903C91.6394 54.2511 92.0618 53.3458 92.567 52.4866C94.413 50.3021 96.6046 48.435 99.0545 46.9595V46.9595Z" fill="#DD4040"/>
<path d="M56.6399 16.2604C63.0686 16.6204 68.3553 21.1861 74.1199 23.9497C76.8508 25.2105 79.6846 26.2355 82.5901 27.0134C86.4484 28.2663 90.4427 29.0527 94.4879 29.3561C98.5594 29.6295 102.624 28.7333 106.203 26.7731C108.186 25.5713 110.048 23.7093 110.409 21.4265C110.769 18.7836 108.967 16.1397 106.504 14.9988C103.982 13.9874 101.171 13.9657 98.6337 14.938C100.285 13.4971 101.686 11.7917 102.779 9.89159C103.233 9.20756 103.521 8.4268 103.62 7.61159C103.74 5.80659 102.359 4.24764 100.796 3.28624C96.5314 0.579693 91.124 0.940693 86.1982 1.72159C81.2715 2.56614 76.1653 3.76409 71.2994 2.68299C68.2347 1.96194 65.3514 0.339343 62.167 0.0391433C59.3231 -0.195236 56.4999 0.688465 54.2972 2.50249C52.1018 4.34505 50.7206 6.97819 50.4526 9.83174C47.9971 10.1917 45.673 11.1686 43.6978 12.6711C41.7225 14.1735 40.1605 16.1524 39.158 18.4226C38.4778 20.2619 38.0338 22.1801 37.8366 24.1311C37.5961 27.4518 37.5961 30.7855 37.8366 34.1061C38.1966 41.7964 38.5576 49.5465 40.6001 56.9356C41.1407 58.8575 41.8617 60.9009 43.6639 61.8015C45.4689 62.7629 47.8087 62.0418 49.3107 60.5997C50.6795 59.0553 51.6492 57.1991 52.135 55.1933C55.4391 43.9586 54.1167 31.8831 55.4391 20.2285C55.5424 18.8336 55.9524 17.4786 56.6399 16.2604V16.2604Z" fill="black"/>
<path d="M66.432 74.2343C66.1916 79.2208 65.292 86.6707 70.9977 90.9961C61.5062 109.616 45.1653 103.612 45.1653 89.1341C50.3903 86.5501 51.1731 72.3124 50.7522 67.4465C56.0988 72.3723 60.4242 75.9766 66.432 74.2343Z" fill="#F7846C"/>
<path d="M50.8117 72.0706C52.9749 75.7347 55.2577 79.5803 59.0425 81.6827C59.9351 82.2021 60.9327 82.5149 61.962 82.5981C62.9913 82.6812 64.0261 82.5327 64.9905 82.1634C65.422 81.9872 65.8432 81.7868 66.2521 81.563C66.1076 79.1201 66.1476 76.6697 66.3718 74.2328C60.364 75.9751 56.0386 72.4278 50.7519 67.5049C50.8686 69.024 50.8886 70.549 50.8117 72.0706V72.0706Z" fill="black"/>
<path d="M68.8947 85.8889C71.6582 88.4121 76.0434 87.5704 79.4682 86.1891C87.8187 82.7644 95.3883 76.8174 104.34 75.7391C105.726 85.9051 108.942 95.7359 113.832 104.756C110.768 110.103 105.481 113.708 102.898 119.291C101.156 122.956 100.975 127.161 100.975 131.247C101.035 148.788 103.619 165.85 105.121 183.753C94.2473 180.869 80.2491 181.89 69.135 183.933C58.021 185.975 47.0874 188.919 35.8527 189.823C31.7079 190.123 27.4424 190.183 23.4172 188.921C24.1981 178.588 24.3777 164.35 22.9964 154.137C16.6314 155.639 14.225 155.219 7.6767 155.339C7.9769 152.756 9.35915 145.426 9.53965 143.263C9.95955 138.818 10.3205 134.428 10.9808 130.047C11.6458 125.721 12.7858 121.516 13.7443 117.25C14.5252 113.646 15.4866 109.981 17.4693 106.857C18.8853 104.771 20.5609 102.873 22.4558 101.21C26.9009 97.3051 32.1876 94.4817 37.4145 91.7181C40.4184 90.0955 43.4223 88.5337 46.3664 86.9121C48.5286 89.8571 50.6319 93.1593 53.7555 95.0222C56.8791 96.8272 61.0249 97.3649 64.1485 95.5029C67.5732 93.4585 68.4738 89.8533 68.8947 85.8889V85.8889Z" fill="#466DA3"/>
<path d="M32.7897 149.989C36.9909 148.091 40.7852 145.398 43.9636 142.059C44.2812 140.636 44.4823 139.189 44.5649 137.733C44.6248 135.453 44.2638 133.048 42.2213 131.726C39.2174 129.744 35.1913 132.391 32.669 134.069C29.7858 135.991 27.2626 138.514 24.1988 140.137C19.2123 142.78 13.385 143.862 9.41968 148.126C9.18046 148.371 8.95828 148.633 8.75468 148.908C8.33383 151.371 7.91298 153.894 7.73248 155.216C13.0192 155.096 15.6032 155.336 19.7481 154.675C24.0782 153.113 28.584 151.972 32.7897 149.989V149.989ZM45.4655 94.8389C49.5505 99.1044 55.8585 103.97 62.1665 101.928C65.711 100.788 68.295 97.6025 69.9765 94.4181C71.099 92.2081 72.0045 89.8945 72.6802 87.5097C71.2769 87.4384 69.9406 86.887 68.8954 85.9479C68.4745 89.9132 67.6338 93.5175 64.209 95.5001C61.0854 97.3621 57.0004 96.8216 53.816 95.0194C50.6924 93.2144 48.591 89.8524 46.4269 86.9093C44.6846 87.8099 42.9423 88.7713 41.2019 89.6728C42.5058 91.4884 43.9302 93.2144 45.4655 94.8389V94.8389Z" fill="#17447D"/>
<path d="M95.2082 29.8366C95.7197 37.3228 95.3568 44.843 94.1271 52.2452C92.9871 58.8534 91.3636 67.3844 86.6174 72.3709C83.4129 75.5356 79.1599 77.4164 74.6626 77.6577C67.6773 78.2522 60.677 76.7012 54.5967 73.2117C47.0233 68.7666 44.9846 62.338 43.7828 53.9875C42.8939 48.5053 42.4526 42.9599 42.4633 37.4062C42.5839 29.8366 43.8455 19.7438 49.0116 13.7968C51.3892 11.093 54.3203 8.93198 57.6061 7.46008C60.892 5.98819 64.4559 5.23985 68.0563 5.26579C77.1278 5.38549 84.877 10.1317 90.2245 17.0458C93.123 20.7196 94.859 25.175 95.2101 29.8413" fill="#F7846C"/>
<path d="M90.6418 16.801C85.2952 9.89165 77.5451 4.90605 68.4736 4.7854C64.7407 4.83462 61.0583 5.65527 57.6578 7.1958C54.2573 8.73634 51.2121 10.9635 48.7136 13.7373C43.5465 19.6843 41.865 30.1381 41.7444 37.7077C41.6845 41.4925 42.6459 44.9761 43.0668 48.7609C43.4268 48.9414 43.7869 49.1818 44.1479 49.3623C44.4481 49.482 45.1691 49.9028 45.5292 49.6625C45.8303 49.482 45.8902 48.7609 45.8902 48.5225C45.9897 47.8464 46.0297 47.163 46.0099 46.48C46.0201 45.1132 46.1204 43.7485 46.3101 42.395C47.0605 36.637 48.678 31.0258 51.1076 25.7519C53.9319 19.8049 58.9175 16.0201 65.3462 19.3869C71.1735 22.4507 76.0394 27.7973 81.0858 32.0029C85.4719 35.6671 90.9382 35.6072 89.9778 32.0628C89.2871 29.9036 88.7647 27.6943 88.415 25.4546C90.9906 27.302 94.0255 28.4038 97.1864 28.639C101.332 28.7587 106.739 27.0762 109.081 23.414C109.602 22.651 109.9 21.7583 109.943 20.8356C109.985 19.9128 109.77 18.9964 109.322 18.189" fill="black"/>
<path d="M40.9598 39.4492C39.398 38.427 37.4153 37.6442 35.7937 38.4878C35.0391 38.9289 34.4486 39.6034 34.1112 40.4097C32.9712 42.873 33.4462 45.8171 34.5321 48.3403C36.4301 52.8179 39.9184 56.4345 44.3247 58.4929C45.4647 59.0335 46.8479 59.3945 47.8691 58.7333C48.4548 58.2892 48.8598 57.648 49.0091 56.9283C49.5407 54.8428 49.4362 52.6459 48.7089 50.6203C47.2079 45.8769 45.2253 42.2118 40.9598 39.4492V39.4492Z" fill="#F7846C"/>
<path d="M45.8255 54.532C45.1605 46.7828 41.3795 44.082 37.7144 41.2557C39.8177 44.0791 41.7994 46.722 42.8815 50.0907C41.8004 49.5502 39.5774 48.8291 38.2559 49.1892C41.1392 50.6911 41.9799 51.5319 45.8255 54.5358V54.532ZM76.2825 38.667C76.1476 41.6295 76.5969 44.5895 77.6049 47.3785C78.5055 49.6015 80.3675 51.7038 82.8907 51.9442C80.4134 53.4845 77.6585 54.525 74.7815 55.007C73.4002 50.0233 74.4215 43.4749 76.2825 38.667Z" fill="#DD4040"/>
<path d="M78.6879 43.7146C80.7304 41.3719 84.3945 38.4278 87.4592 38.7888C90.5239 39.1498 93.3492 40.8313 94.4275 45.4569C94.4275 45.4569 92.1475 47.1992 86.9177 46.7793C83.9375 46.5674 81.0808 45.5036 78.6879 43.7146V43.7146ZM55.1374 41.6113C57.1808 39.2686 60.845 36.3245 63.9087 36.6855C66.9725 37.0465 69.7987 38.728 70.8779 43.3536C70.8779 43.3536 68.5979 45.0959 63.3682 44.675C60.3914 44.4465 57.5391 43.3847 55.1374 41.6113V41.6113Z" fill="white"/>
<path d="M90.4631 45.759C90.5382 43.9448 90.9881 42.1658 91.7845 40.534C90.5585 39.5086 89.0503 38.8793 87.4592 38.729C84.3945 38.368 80.7303 41.3719 78.6878 43.6547C81.0649 45.4725 83.9306 46.5393 86.9177 46.7185C88.078 46.8238 89.2463 46.8038 90.4023 46.6586C90.4527 46.3615 90.4731 46.0601 90.4631 45.759V45.759ZM67.874 38.1286C66.728 37.3008 65.3774 36.8025 63.9685 36.6874C60.9048 36.3264 57.2406 39.3303 55.1981 41.6132C57.5752 43.4309 60.4409 44.4977 63.428 44.6769C64.6083 44.7809 65.7963 44.7609 66.9724 44.6171C66.7474 42.4132 67.0567 40.1876 67.874 38.1286V38.1286Z" fill="black"/>
<path d="M60.2443 58.5541C60.2443 63.2404 67.033 67.3254 76.4047 64.6825" stroke="black" stroke-width="1.90043" stroke-linejoin="round"/>
<path d="M74.0604 28.0943C73.6405 30.3173 73.46 31.9399 71.5372 32.4804C68.7138 33.2613 63.7282 31.159 60.844 30.798C58.1374 30.4959 55.4375 31.6359 52.9124 32.7806C54.4742 30.7381 55.5553 28.0306 58.0785 27.434C58.9652 27.235 59.8743 27.1542 60.7822 27.1937C64.8093 27.1937 70.096 27.7941 74.0604 28.0943V28.0943ZM96.0491 36.0847C95.731 35.4375 95.2805 34.8642 94.7267 34.4023C93.6456 33.5017 92.0838 33.5017 90.7623 33.5017C89.1397 33.5017 87.5181 33.5017 85.8955 33.5615C85.4946 33.6189 85.086 33.5837 84.7008 33.4587C84.3157 33.3337 83.9642 33.1223 83.6734 32.8405C83.5172 32.5347 83.3961 32.2121 83.3124 31.8791C83.1319 30.9785 82.9524 30.1377 82.7719 29.2362C86.1436 29.0348 89.5273 29.196 92.8647 29.7169C93.5075 29.7651 94.1181 30.0177 94.607 30.4379C95.0734 30.9014 95.4056 31.4824 95.5684 32.1194C95.7804 32.862 95.9013 33.6276 95.9284 34.3994C96.0356 34.9544 96.0761 35.5202 96.0491 36.0847V36.0847Z" fill="black"/>
<path d="M123.925 74.7136C122.183 73.7532 120.921 72.0109 119.599 70.509C118.038 68.7667 116.476 66.1836 116.476 63.7801C116.476 62.9394 116.957 62.338 117.797 62.699C119.54 63.4799 122.904 66.6634 124.767 66.8439C126.572 67.0244 127.59 64.1402 128.13 62.3988C128.505 60.994 129.008 59.6266 129.632 58.3138C129.985 57.9941 130.408 57.7622 130.868 57.6369C131.327 57.5116 131.809 57.4965 132.275 57.5928C133.297 58.1343 134.08 59.5156 135.4 58.6748C137.502 57.4132 139.425 60.9548 142.189 59.9963C143.029 59.6961 142.669 61.198 143.45 61.6179C144.231 62.0378 144.891 60.4171 145.132 61.3177C145.432 62.6392 146.937 63.06 148.077 63.1227C148.557 63.1227 148.017 65.7067 148.137 66.1874C148.431 67.6767 148.422 69.2099 148.112 70.696C147.802 72.1821 147.197 73.5907 146.332 74.8381C145.449 76.0744 144.332 77.1245 143.043 77.9285C141.755 78.7324 140.32 79.2745 138.822 79.5235C136.169 79.8598 133.474 79.4868 131.012 78.4424C128.53 77.4421 126.155 76.1942 123.923 74.7175" fill="#DD4040"/>
<path d="M165.077 138.512C173.067 119.347 178.054 99.6425 182.319 79.2764C157.628 71.7714 127.29 64.4383 101.697 60.7134C96.9526 80.6247 89.4508 99.7758 79.4088 117.612C85.1762 117.371 90.463 119.174 95.9891 120.917C116.896 127.461 143.389 135.032 165.077 138.512Z" fill="#14D29B"/>
<path d="M163.696 135.757C171.565 116.833 176.552 97.4279 180.758 77.4266C156.667 70.1572 127.109 63.0683 102.177 59.464C97.4324 79.08 90.0351 97.9574 80.1897 115.575C85.8365 115.334 90.9427 117.077 96.3501 118.759C116.776 125.059 142.549 132.388 163.696 135.757Z" fill="#FDB849"/>
<path d="M162.434 132.928C169.918 114.674 175.631 95.7429 179.496 76.3963C153.561 68.5606 127.127 62.4793 100.375 58.1934C95.9182 77.1534 88.7772 95.38 79.1683 112.322C84.7552 112.142 89.9213 113.884 95.2689 115.566C115.634 121.994 141.347 129.384 162.434 132.928Z" fill="#FFD340"/>
<path d="M137.203 74.536C137.143 74.8961 137.022 75.3169 136.601 75.3768C133.839 75.677 132.757 60.7781 134.98 58.976C136.962 57.4142 138.584 59.8775 138.705 61.921C139.065 66.1855 137.924 70.5707 137.203 74.536Z" fill="#F7846C"/>
<path d="M139.063 74.7144C138.883 75.0156 138.582 75.3794 138.162 75.3158C135.158 74.8949 139.243 61.138 142.247 60.0559C144.89 59.0945 145.732 61.7384 145.13 63.6659C143.869 67.5657 141.167 71.2906 139.063 74.7144V74.7144ZM144.049 73.5136C143.869 73.6932 143.689 73.9335 143.384 73.8138C141.579 73.0928 146.028 63.4807 148.011 63.1197C149.753 62.8195 149.933 64.862 149.332 66.1844C148.014 68.947 145.851 71.2906 144.049 73.5136Z" fill="#F7846C"/>
<path d="M172.767 96.2825L172.948 95.5016C169.823 94.9003 166.459 94.1194 162.915 93.2216C164.127 89.4845 165.248 85.7185 166.279 81.9271L165.498 81.6867C164.417 85.4715 163.334 89.2563 162.134 92.9813C158.589 92.0797 154.924 91.0585 151.139 90.0363C152.232 86.2963 153.233 82.5303 154.143 78.7417L153.362 78.5622C152.461 82.347 151.44 86.0672 150.358 89.7959C149.157 89.4359 147.956 89.1309 146.754 88.7747C144.41 88.1097 142.068 87.4532 139.785 86.8519C140.866 82.8277 141.768 79.1027 142.548 75.8585L141.768 75.678C140.987 78.9222 140.085 82.6472 139.004 86.6125C135.76 85.7109 132.576 84.8702 129.392 84.0285C130.473 80.6648 131.434 77.3006 132.275 73.9357L131.494 73.7561C130.654 77.1761 129.632 80.5439 128.611 83.8489C125.067 82.9474 121.581 82.1066 118.218 81.3856C119.48 77.7205 120.741 74.0563 121.942 70.4511L121.161 70.2107C119.959 73.8758 118.698 77.5409 117.436 81.2649C114.132 80.6047 110.889 80.0033 107.764 79.5834C108.966 76.039 110.107 72.4945 111.068 68.8893L110.287 68.6489C109.326 72.314 108.185 75.9183 106.923 79.4628C104.233 79.1018 101.526 78.8798 98.8133 78.7978V79.6385C101.276 79.6984 103.92 79.9387 106.623 80.2389C105.483 83.4233 104.28 86.5469 103.013 89.6715C100.427 89.2366 97.8204 88.9357 95.2033 88.7699L95.1435 89.6107C97.6799 89.7558 100.207 90.0368 102.713 90.4524C101.451 93.4563 100.07 96.3994 98.6281 99.2874C96.1647 98.8067 93.7014 98.3858 91.2988 98.0856L91.1782 98.9264C93.4582 99.1667 95.8047 99.5914 98.2082 100.066C96.6464 103.19 94.9642 106.254 93.1618 109.258L93.8828 109.678C95.6878 106.555 97.4273 103.43 99.0499 100.247C102.354 100.967 105.778 101.809 109.203 102.77C107.881 105.894 106.439 108.957 104.937 111.961L105.658 112.321C107.16 109.258 108.603 106.134 109.983 103.011C113.288 103.972 116.592 104.993 119.896 106.014C118.442 109.113 116.879 112.159 115.21 115.147L115.931 115.567C117.613 112.503 119.175 109.439 120.681 106.257C122.123 106.737 123.506 107.158 124.887 107.639L131.555 109.801C130.415 112.746 129.153 115.691 127.831 118.636L128.552 118.997C129.874 116.052 131.135 113.049 132.276 110.106C135.696 111.187 139.065 112.208 142.49 113.11C141.35 115.933 140.21 118.757 139.005 121.58L139.786 121.88C141.004 119.032 142.186 116.168 143.33 113.289C146.935 114.251 150.479 115.094 153.964 115.753C152.642 118.997 151.261 122.181 149.879 125.365L150.66 125.726C152.098 122.477 153.499 119.213 154.865 115.933C158.124 116.51 161.414 116.891 164.718 117.073L164.778 116.233C161.552 116.1 158.34 115.738 155.165 115.151C156.433 111.957 157.675 108.753 158.89 105.539C162.282 106.299 165.711 106.881 169.164 107.281L169.224 106.44C165.831 106.034 162.463 105.452 159.131 104.698C160.392 101.153 161.654 97.6087 162.795 94.0643C166.159 94.8404 169.583 95.6812 172.767 96.2825V96.2825ZM146.393 89.5537C147.595 89.9147 148.797 90.2187 150.003 90.5749C148.925 94.2191 147.783 97.8442 146.578 101.449C143.158 100.488 139.67 99.4061 136.245 98.3849C137.447 94.6599 138.468 91.0556 139.43 87.6318C141.768 88.2322 144.113 88.8934 146.393 89.5537V89.5537ZM138.644 87.3915C137.683 90.8115 136.661 94.4215 135.46 98.1445C135.1 98.0248 134.795 97.965 134.438 97.8443C131.375 96.9428 128.371 95.9823 125.307 95.0808C126.628 91.7168 127.89 88.2921 128.971 84.8075C132.155 85.6492 135.4 86.4899 138.644 87.3915ZM128.194 84.6279C127.063 88.0835 125.841 91.5088 124.53 94.9003C121.045 93.879 117.62 92.9186 114.197 92.0769C115.458 88.7728 116.599 85.4687 117.741 82.2244C121.161 82.8856 124.646 83.7264 128.19 84.6279H128.194ZM107.287 80.3016C110.412 80.7225 113.595 81.263 116.96 81.9841C115.82 85.2882 114.617 88.5324 113.416 91.8365C110.111 90.9958 106.807 90.3346 103.683 89.794C104.944 86.6534 106.145 83.4887 107.284 80.3016H107.287ZM99.1772 99.4061C100.619 96.5229 102.001 93.5161 103.262 90.5711C106.447 91.1117 109.691 91.8327 113.055 92.6136C111.853 95.7382 110.652 98.8618 109.33 101.924C105.972 100.984 102.586 100.145 99.1781 99.4061H99.1772ZM110.111 102.17C111.433 99.0461 112.695 95.9215 113.836 92.7979C117.201 93.6387 120.684 94.6029 124.169 95.6213C122.9 98.8728 121.518 102.079 120.024 105.233C116.776 104.152 113.412 103.131 110.103 102.17H110.111ZM124.95 106.796C123.568 106.375 122.186 105.895 120.805 105.474C122.307 102.29 123.688 99.1088 124.95 95.8617C128.013 96.7632 131.078 97.6667 134.142 98.6252C134.502 98.7459 134.807 98.8057 135.163 98.9254C134.081 102.23 132.94 105.594 131.619 108.958C129.452 108.237 127.169 107.516 124.946 106.796H124.95ZM132.459 109.199C133.712 105.88 134.893 102.535 136.004 99.1658C139.424 100.187 142.912 101.269 146.337 102.23C145.197 105.594 143.994 108.899 142.673 112.262C139.253 111.288 135.847 110.267 132.456 109.199H132.459ZM154.147 114.846C150.662 114.181 147.058 113.345 143.514 112.383C144.775 109.079 146.037 105.774 147.178 102.408C150.843 103.429 154.447 104.391 157.932 105.172C156.666 108.418 155.405 111.662 154.143 114.846H154.147ZM158.112 104.396C154.628 103.615 151.023 102.653 147.358 101.632C148.563 98.0275 149.705 94.4024 150.783 90.7583C154.433 91.7932 158.098 92.775 161.776 93.7033C160.632 97.3038 159.43 100.908 158.109 104.393L158.112 104.396Z" fill="white"/>
<path d="M117.257 71.3495L114.493 73.3321L113.652 70.6284L112.21 71.0493L113.172 74.2327L109.747 76.6362L110.588 77.8978L113.652 75.7955L114.553 78.6787L115.995 78.2579L114.974 74.8341L118.157 72.6111L117.257 71.3495ZM128.611 75.4943L125.968 76.8167C125.668 75.7347 125.368 74.7134 125.068 73.6323L123.626 73.9924C123.918 75.1817 124.238 76.3638 124.587 77.5378L121.043 79.3428L121.708 80.6642L125.072 78.9818C125.432 80.003 125.793 81.0851 126.154 82.1063L127.596 81.5648C127.175 80.4837 126.815 79.4026 126.456 78.3215L129.279 76.8794L128.611 75.4943ZM140.806 77.5976C139.354 78.2757 137.912 78.9766 136.481 79.7L135.1 76.1555L133.717 76.6961L135.16 80.3612C134.138 80.9017 133.117 81.3824 132.156 81.9828L132.877 83.3043C133.805 82.7804 134.747 82.2796 135.7 81.8023L136.962 84.9269L138.343 84.3863L137.022 81.0822C138.464 80.3612 139.967 79.6401 141.408 78.9191L140.806 77.5976ZM151.861 79.7C150.121 80.485 148.398 81.3063 146.693 82.1633C146.163 80.7377 145.622 79.3158 145.072 77.8978L143.691 78.4384C144.231 79.8805 144.831 81.3834 145.372 82.8844C144.471 83.3651 143.51 83.8458 142.608 84.3255L143.33 85.6479C144.17 85.1672 145.012 84.7464 145.853 84.3255C146.214 85.2869 146.518 86.2483 146.874 87.2097L148.316 86.729C147.955 85.7078 147.595 84.6267 147.235 83.6054C148.973 82.7154 150.736 81.874 152.522 81.0822L151.861 79.7ZM163.636 84.5659L163.155 83.1247C161.713 83.6054 160.271 84.146 158.83 84.6267C158.529 83.4249 158.228 82.2232 157.808 81.0167L156.366 81.4974C156.735 82.7112 157.075 83.9332 157.388 85.1625C156.126 85.6432 154.805 86.1239 153.543 86.6046L154.084 87.9859C155.285 87.5052 156.486 87.0843 157.688 86.6046C158.049 88.1056 158.288 89.6075 158.529 91.1703L160.031 90.9299C159.79 89.3073 159.49 87.685 159.13 86.0631C160.632 85.5871 162.134 85.0466 163.636 84.5659V84.5659ZM174.389 87.0292L173.608 85.7078L170.364 87.6904C169.944 86.4288 169.523 85.2271 169.163 83.9655L167.721 84.4462C168.142 85.7676 168.621 87.1499 169.042 88.4713L163.275 91.9607L164.056 93.2821L169.523 89.978C169.883 90.9993 170.188 91.9607 170.544 92.9819L171.986 92.5012C171.625 91.4201 171.205 90.3381 170.846 89.1971L174.389 87.0292ZM103.139 81.0214C102.06 81.5057 100.998 82.0269 99.9544 82.5842C99.5898 81.8825 99.1887 81.2004 98.7527 80.5407L97.4312 81.3226C97.8343 81.9696 98.2146 82.6306 98.5712 83.3043C97.3695 83.9693 96.1677 84.6865 94.9612 85.4076L95.8029 86.6692C96.9429 85.9481 98.1456 85.2271 99.2875 84.6267C99.7074 85.4076 100.068 86.1885 100.488 86.9694L101.871 86.3044C101.51 85.4636 101.09 84.6827 100.669 83.9018C101.69 83.3613 102.711 82.8806 103.733 82.3999L103.139 81.0214ZM115.034 82.7637L111.249 84.8062L109.928 81.6826L108.545 82.283L109.928 85.5273L105.843 87.6904L106.564 89.0119L110.469 86.9095C110.821 87.843 111.285 88.7305 111.85 89.5524L113.048 88.6518C112.553 87.9014 112.15 87.0945 111.847 86.2483L111.787 86.1286L115.692 84.0253L115.034 82.7637ZM142.729 102.049C141.564 102.044 140.416 101.771 139.374 101.25C138.332 100.729 137.424 99.9741 136.721 99.0448C135.979 98.0468 135.52 96.8666 135.393 95.6291C135.266 94.3916 135.476 93.1428 136 92.0148C136.668 90.7665 137.653 89.7155 138.855 88.9669C140.056 88.2184 141.434 87.7985 142.849 87.7493C144.264 87.6585 145.677 87.9716 146.921 88.6522C148.166 89.3329 149.192 90.353 149.879 91.594C150.463 92.7002 150.716 93.9508 150.61 95.1971C150.504 96.4433 150.041 97.6328 149.278 98.624C148.558 99.605 147.629 100.415 146.56 100.996C145.49 101.578 144.305 101.916 143.09 101.988C142.977 102.038 142.853 102.058 142.729 102.049V102.049ZM142.909 89.3121C141.763 89.3274 140.642 89.6471 139.66 90.2383C138.678 90.8296 137.871 91.6712 137.322 92.677C136.929 93.5597 136.777 94.531 136.883 95.4915C136.989 96.452 137.348 97.3671 137.923 98.1433C138.525 98.9141 139.302 99.5293 140.191 99.9371C141.079 100.345 142.053 100.533 143.029 100.487C144.019 100.414 144.982 100.129 145.852 99.6522C146.723 99.1755 147.481 98.5178 148.076 97.7234C148.68 96.9711 149.052 96.0597 149.148 95.0999C149.244 94.14 149.059 93.1729 148.616 92.316C148.024 91.3476 147.181 90.5573 146.176 90.0286C145.171 89.4998 144.042 89.2523 142.909 89.3121V89.3121Z" fill="black"/>
<path d="M106.502 64.682C105.534 64.633 104.617 64.2345 103.921 63.5604C103.225 62.8864 102.797 61.9825 102.717 61.0169C102.671 60.09 102.836 59.1646 103.2 58.311C103.564 57.4574 104.118 56.6979 104.82 56.0902C105.353 55.5252 105.996 55.0741 106.708 54.7639C107.421 54.4537 108.188 54.2909 108.965 54.2852C109.819 54.283 110.648 54.5655 111.323 55.0879C111.998 55.6103 112.479 56.3427 112.69 57.1694L111.068 57.4696C110.928 57.0083 110.641 56.6056 110.25 56.3235C109.86 56.0413 109.387 55.8952 108.906 55.9078C107.791 55.9563 106.738 56.429 105.961 57.2292C105.449 57.6633 105.043 58.2078 104.772 58.8218C104.501 59.4358 104.374 60.1032 104.399 60.7737C104.453 61.3491 104.714 61.8854 105.133 62.2831C105.552 62.6809 106.101 62.9131 106.679 62.9368L106.859 64.5585C106.757 64.6374 106.631 64.6808 106.502 64.682V64.682ZM117.737 66.1212C116.769 66.0727 115.852 65.6745 115.156 65.0005C114.46 64.3265 114.032 63.4227 113.952 62.4571C113.905 61.5301 114.071 60.6048 114.435 59.7512C114.799 58.8976 115.353 58.1381 116.054 57.5304C116.588 56.9654 117.23 56.5142 117.942 56.204C118.655 55.8938 119.422 55.731 120.199 55.7254C121.053 55.7227 121.882 56.005 122.557 56.5275C123.232 57.05 123.713 57.7827 123.924 58.6096L122.302 58.9098C122.163 58.4483 121.876 58.0455 121.485 57.7632C121.094 57.4809 120.621 57.3347 120.139 57.347C119.025 57.3958 117.971 57.8689 117.194 58.6694C116.683 59.1035 116.276 59.648 116.005 60.262C115.735 60.8759 115.607 61.5433 115.632 62.2139C115.686 62.7891 115.947 63.3252 116.366 63.7227C116.785 64.1203 117.334 64.3524 117.912 64.3761L118.092 65.9987C117.99 66.0769 117.865 66.1198 117.737 66.1212V66.1212ZM128.31 68.3461C127.343 68.2976 126.425 67.8994 125.729 67.2254C125.033 66.5514 124.605 65.6476 124.525 64.682C124.479 63.7551 124.644 62.8297 125.008 61.9761C125.373 61.1225 125.926 60.363 126.628 59.7553C127.161 59.1903 127.803 58.7391 128.516 58.4289C129.228 58.1187 129.996 57.9559 130.773 57.9503L130.713 59.5719C129.585 59.6355 128.518 60.1053 127.709 60.8943C127.198 61.3286 126.791 61.8732 126.521 62.4871C126.25 63.101 126.123 63.7683 126.147 64.4388C126.201 65.0141 126.462 65.5502 126.881 65.9479C127.301 66.3455 127.85 66.5775 128.427 66.601L128.608 68.2236C128.551 68.3461 128.43 68.3461 128.31 68.3461ZM150.418 74.714C149.45 74.6653 148.533 74.267 147.837 73.593C147.141 72.9191 146.713 72.0154 146.633 71.0498C146.587 70.1229 146.752 69.1976 147.117 68.344C147.481 67.4904 148.035 66.731 148.736 66.1231C149.27 65.5582 149.912 65.1071 150.624 64.7969C151.336 64.4867 152.104 64.3238 152.881 64.3181C153.734 64.3157 154.564 64.598 155.239 65.1205C155.914 65.6429 156.395 66.3755 156.606 67.2023L154.983 67.5025C154.844 67.0413 154.557 66.6386 154.166 66.3564C153.775 66.0742 153.303 65.9282 152.821 65.9407C151.707 65.9892 150.653 66.462 149.876 67.2622C149.365 67.6963 148.958 68.2409 148.688 68.8548C148.417 69.4688 148.29 70.1361 148.314 70.8066C148.368 71.382 148.629 71.9183 149.048 72.3159C149.468 72.7136 150.017 72.9456 150.594 72.9688L150.775 74.5914C150.676 74.6765 150.548 74.7203 150.418 74.714V74.714ZM160.15 77.298C159.183 77.249 158.266 76.8505 157.57 76.1764C156.873 75.5024 156.446 74.5985 156.366 73.6329C156.319 72.7061 156.484 71.7809 156.848 70.9274C157.213 70.0739 157.767 69.3146 158.468 68.7071C159.562 67.5886 161.05 66.941 162.614 66.9021C163.467 66.8999 164.297 67.1823 164.971 67.7047C165.646 68.2272 166.127 68.9597 166.338 69.7863L164.716 70.0865C164.576 69.6252 164.289 69.2225 163.898 68.9403C163.508 68.6582 163.035 68.5121 162.553 68.5247C161.439 68.5732 160.385 69.046 159.608 69.8462C159.096 70.2802 158.69 70.8247 158.419 71.4387C158.149 72.0527 158.021 72.7201 158.046 73.3906C158.1 73.966 158.361 74.5023 158.78 74.9001C159.2 75.2978 159.749 75.5301 160.326 75.5538L160.506 77.1754C160.459 77.2208 160.403 77.2554 160.342 77.2766C160.28 77.2977 160.215 77.3051 160.15 77.298ZM171.205 80.5413C170.237 80.4928 169.32 80.0945 168.624 79.4205C167.927 78.7466 167.5 77.8428 167.42 76.8771C167.373 75.9502 167.538 75.0249 167.903 74.1712C168.267 73.3176 168.821 72.5582 169.522 71.9504C170.616 70.8324 172.103 70.1849 173.667 70.1454C174.52 70.1428 175.35 70.4251 176.025 70.9476C176.7 71.47 177.181 72.2028 177.392 73.0296L175.77 73.3298C175.631 72.8685 175.343 72.4658 174.953 72.1836C174.562 71.9015 174.089 71.7554 173.607 71.768H173.547C172.454 71.8284 171.424 72.3005 170.664 73.0895C170.151 73.5235 169.744 74.0683 169.473 74.6828C169.201 75.2973 169.073 75.9655 169.098 76.6368C169.152 77.2121 169.413 77.7483 169.832 78.146C170.251 78.5437 170.8 78.776 171.378 78.7999L171.558 80.4216C171.456 80.4983 171.332 80.5403 171.205 80.5413V80.5413Z" fill="white"/>
<path d="M131.014 73.3926C130.894 73.7536 130.773 74.1735 130.354 74.1735C127.59 74.2333 127.83 59.2746 130.233 57.7128C132.336 56.3306 133.717 58.9146 133.717 60.9571C133.537 65.2226 132.035 69.4881 131.014 73.3926V73.3926Z" fill="#F7846C"/>
<path d="M46.1867 143.926C46.0062 140.142 45.8267 136.297 45.7659 132.512C45.6563 130.585 45.7569 128.651 46.0661 126.745C46.8479 122.899 49.1308 119.595 51.3528 116.351C49.1879 117.875 47.2292 119.672 45.5255 121.698C45.1655 118.514 44.6848 114.97 44.0236 109.443C42.8427 120.358 42.6818 131.36 43.5429 142.305" fill="#17447D"/>
<path d="M16.9882 147.527C13.744 149.029 10.1995 150.531 8.33751 153.535C8.0934 153.868 7.91962 154.248 7.82669 154.651C7.73377 155.053 7.72366 155.471 7.79696 155.877C8.21686 157.26 10.077 157.56 11.521 157.5C19.7668 157.242 27.8104 154.884 34.891 150.65C38.976 148.188 43.061 144.583 43.3621 139.777C43.4582 138.998 43.3331 138.208 43.0011 137.497C42.5506 136.793 41.8919 136.247 41.1167 135.935C40.3416 135.622 39.4884 135.559 38.6758 135.754C35.1912 136.476 31.6458 139.9 28.583 141.644C24.7383 143.742 20.8975 145.725 16.9882 147.527V147.527Z" fill="black"/>
<path d="M120.081 111.72L126.569 118.149L103.259 146.084L93.4664 138.695L120.081 111.72Z" fill="#D70A32"/>
<path d="M100.915 144.342L103.195 146.085L126.504 118.155L125.483 117.133C117.676 126.5 109.265 135.391 100.915 144.342V144.342Z" fill="#FF465A"/>
<path d="M126.568 118.15L131.013 106.796L120.078 111.721C120.137 112.544 120.371 113.345 120.764 114.07C121.157 114.796 121.7 115.429 122.358 115.927C123.592 116.952 125.026 117.709 126.568 118.15V118.15Z" fill="white"/>
<path d="M104.7 144.342C104.7 144.342 98.8726 145.184 95.3281 136.837C95.3281 136.837 88.7798 142.605 89.1398 144.467C89.6804 147.771 93.6457 151.976 97.4903 152.217C99.834 152.333 104.7 144.342 104.7 144.342Z" fill="#008C6E"/>
<path d="M101.696 148.668C103.318 146.565 104.7 144.342 104.7 144.342C104.7 144.342 98.8729 145.184 95.3284 136.837C95.3284 136.837 93.5234 138.459 91.8438 140.257C92.4442 145.184 96.8304 147.647 101.696 148.668V148.668Z" fill="white"/>
<path d="M130.293 108.537C130.039 108.517 129.799 108.411 129.613 108.237C129.428 108.062 129.307 107.829 129.272 107.577C129.272 107.577 132.035 105.173 132.396 105.297C132.756 105.473 130.293 108.537 130.293 108.537Z" fill="black"/>
<path d="M110.829 141.456C110.649 141.096 110.409 140.791 110.288 140.555C109.207 138.813 108.246 136.95 107.105 135.268C110.05 135.569 111.67 138.213 114.674 138.452C115.635 138.573 117.077 138.031 116.717 137.131C116.643 136.987 116.541 136.86 116.417 136.757C116.293 136.654 116.15 136.576 115.996 136.529C115.215 136.169 114.373 135.748 113.592 135.389C114.575 135.631 115.584 135.752 116.596 135.749C117.137 135.749 117.918 135.509 117.858 134.969C117.858 134.668 117.617 134.488 117.377 134.304C114.133 131.6 111.43 126.553 108.186 123.854C110.048 122.772 113.532 123.974 115.216 126.077C116.537 127.759 115.756 130.942 117.021 132.685C117.177 132.917 117.394 133.102 117.649 133.219C117.903 133.336 118.185 133.382 118.463 133.35C119.244 133.29 119.423 133.05 119.544 132.328C120.016 129.664 119.852 126.926 119.063 124.338C118.342 121.935 116.9 119.588 114.617 118.571C112.515 117.67 110.052 118.09 107.829 118.631C101.521 120.193 79.9537 127.161 88.3042 136.894C88.9586 137.798 89.816 138.535 90.8074 139.046C91.7987 139.558 92.8963 139.829 94.0118 139.839C97.2979 139.95 100.542 139.071 103.322 137.316C103.623 137.135 105.545 139.057 105.725 139.238C106.446 139.903 107.167 140.74 107.828 141.461C108.308 141.942 110.291 143.684 111.072 142.843C111.309 142.596 111.009 141.819 110.829 141.456V141.456Z" fill="#F7846C"/>
<path d="M89.9833 126.982C68.6558 142.657 54.2376 143.382 41.3813 148.849C42.1376 145.886 42.301 142.803 41.862 139.777C41.6216 138.637 40.6602 136.954 39.2181 137.434C33.0906 139.657 29.2431 145.545 23.1783 147.884C23.5986 152.442 24.2604 156.974 25.161 161.462C25.8811 164.882 26.5423 169.212 29.6659 171.675C30.9883 172.697 34.4159 171.435 36.8754 170.894C39.639 170.229 42.9431 169.873 45.5869 168.912C50.9835 166.894 56.1903 164.401 61.146 161.462C72.9811 154.494 82.1125 143.139 94.3086 136.831C91.7256 134.13 89.5624 130.646 89.9833 126.982V126.982Z" fill="#F7846C"/>
<path d="M32.2482 167.232C31.7968 166.919 31.2723 166.726 30.7252 166.674C30.1781 166.621 29.6266 166.71 29.1237 166.932C28.3457 167.185 27.5998 167.528 26.9007 167.953C27.4935 169.408 28.4441 170.689 29.6642 171.678C30.3853 172.219 31.7675 172.099 33.2742 171.798C33.3892 170.176 33.449 168.253 32.2482 167.232V167.232Z" fill="#DD4040"/>
</g>
<defs>
<clipPath id="clip0_1118_199">
<rect width="190" height="190" fill="white"/>
</clipPath>
</defs>
</svg>
