<svg width="1730" height="1303" viewBox="0 0 1730 1303" fill="none" xmlns="http://www.w3.org/2000/svg">
<path d="M1975.67 1212.77C1899.01 1517.4 1385.23 768.653 621.861 1054.23C-143.759 1258.77 -498.224 407.85 -421.568 103.217C-344.911 -201.416 405.787 281.467 843.391 118.188C1864.42 -125.034 2052.32 908.138 1975.67 1212.77Z" fill="#D4DEFB"/>
<path fill-rule="evenodd" clip-rule="evenodd" d="M635 1055.22C7.1979 1157.26 847.728 921.339 804.092 543.418C727.836 197.155 -116.867 21.6058 154.012 88.8289C402.271 150.438 641.852 205.781 853.853 128.387C1888.72 -111.354 2083.07 923.442 2006.42 1228.07C1974.54 1354.74 1865.35 1298.85 1693.06 1210.67C1470.48 1096.75 1142.59 928.935 740.061 1031.16C704.782 1040.12 671.405 1041.9 635 1055.22Z" fill="#D4DEFB"/>
</svg>
